G04 EAGLE Gerber RS-274X export*
G75*
%MOMM*%
%FSLAX34Y34*%
%LPD*%
%INTop Copper*%
%IPPOS*%
%AMOC8*
5,1,8,0,0,1.08239X$1,22.5*%
G01*
%ADD10C,1.879600*%
%ADD11R,1.000000X1.400000*%
%ADD12R,2.511800X1.301800*%
%ADD13C,0.756400*%
%ADD14C,1.016000*%
%ADD15C,0.812800*%
%ADD16C,0.508000*%

G36*
X157873Y40941D02*
X157873Y40941D01*
X157934Y40939D01*
X158157Y40961D01*
X158382Y40977D01*
X158441Y40989D01*
X158501Y40995D01*
X158719Y41049D01*
X158939Y41096D01*
X158995Y41116D01*
X159054Y41131D01*
X159263Y41214D01*
X159474Y41292D01*
X159527Y41320D01*
X159583Y41343D01*
X159778Y41454D01*
X159976Y41560D01*
X160025Y41596D01*
X160077Y41626D01*
X160168Y41701D01*
X160436Y41897D01*
X160597Y42054D01*
X160686Y42127D01*
X161412Y42853D01*
X166984Y45161D01*
X172037Y45161D01*
X172097Y45165D01*
X172158Y45163D01*
X172381Y45185D01*
X172606Y45201D01*
X172665Y45213D01*
X172725Y45219D01*
X172943Y45273D01*
X173163Y45320D01*
X173219Y45340D01*
X173278Y45355D01*
X173487Y45438D01*
X173698Y45516D01*
X173751Y45544D01*
X173807Y45566D01*
X174002Y45678D01*
X174200Y45784D01*
X174249Y45820D01*
X174301Y45850D01*
X174392Y45925D01*
X174660Y46121D01*
X174821Y46278D01*
X174910Y46351D01*
X176412Y47853D01*
X181984Y50161D01*
X188016Y50161D01*
X190945Y48947D01*
X191002Y48928D01*
X191057Y48903D01*
X191272Y48838D01*
X191485Y48767D01*
X191545Y48756D01*
X191603Y48738D01*
X191825Y48704D01*
X192046Y48663D01*
X192106Y48661D01*
X192166Y48652D01*
X192391Y48649D01*
X192615Y48640D01*
X192675Y48646D01*
X192736Y48645D01*
X192958Y48674D01*
X193182Y48696D01*
X193241Y48710D01*
X193301Y48718D01*
X193413Y48752D01*
X193736Y48830D01*
X193945Y48914D01*
X194055Y48947D01*
X196984Y50161D01*
X203016Y50161D01*
X205945Y48947D01*
X206002Y48928D01*
X206057Y48903D01*
X206272Y48838D01*
X206485Y48767D01*
X206545Y48756D01*
X206603Y48738D01*
X206825Y48704D01*
X207046Y48663D01*
X207106Y48661D01*
X207166Y48652D01*
X207391Y48649D01*
X207615Y48640D01*
X207675Y48646D01*
X207736Y48645D01*
X207958Y48674D01*
X208182Y48696D01*
X208241Y48710D01*
X208301Y48718D01*
X208413Y48752D01*
X208736Y48830D01*
X208945Y48914D01*
X209055Y48947D01*
X211984Y50161D01*
X218016Y50161D01*
X220945Y48947D01*
X221002Y48928D01*
X221057Y48903D01*
X221272Y48838D01*
X221485Y48767D01*
X221545Y48756D01*
X221603Y48738D01*
X221825Y48704D01*
X222046Y48663D01*
X222106Y48661D01*
X222166Y48652D01*
X222391Y48649D01*
X222615Y48640D01*
X222675Y48646D01*
X222736Y48645D01*
X222958Y48674D01*
X223182Y48696D01*
X223241Y48710D01*
X223301Y48718D01*
X223413Y48752D01*
X223736Y48830D01*
X223945Y48914D01*
X224055Y48947D01*
X226984Y50161D01*
X233016Y50161D01*
X234221Y49661D01*
X234385Y49607D01*
X234545Y49543D01*
X234655Y49516D01*
X234761Y49481D01*
X234931Y49450D01*
X235099Y49409D01*
X235211Y49398D01*
X235322Y49378D01*
X235494Y49370D01*
X235666Y49354D01*
X235779Y49358D01*
X235891Y49354D01*
X236063Y49371D01*
X236236Y49378D01*
X236346Y49399D01*
X236458Y49410D01*
X236626Y49451D01*
X236796Y49482D01*
X236902Y49518D01*
X237012Y49545D01*
X237172Y49608D01*
X237336Y49663D01*
X237437Y49714D01*
X237541Y49755D01*
X237691Y49841D01*
X237845Y49919D01*
X237938Y49983D01*
X238036Y50038D01*
X238172Y50144D01*
X238314Y50242D01*
X238397Y50319D01*
X238486Y50388D01*
X238606Y50512D01*
X238733Y50629D01*
X238804Y50716D01*
X238883Y50796D01*
X238984Y50936D01*
X239094Y51070D01*
X239152Y51166D01*
X239219Y51257D01*
X239300Y51409D01*
X239389Y51557D01*
X239434Y51660D01*
X239487Y51760D01*
X239546Y51922D01*
X239614Y52081D01*
X239643Y52189D01*
X239682Y52295D01*
X239718Y52464D01*
X239763Y52631D01*
X239771Y52716D01*
X239800Y52852D01*
X239838Y53402D01*
X239839Y53415D01*
X239839Y331179D01*
X239823Y331408D01*
X239813Y331639D01*
X239803Y331693D01*
X239799Y331747D01*
X239751Y331973D01*
X239709Y332199D01*
X239692Y332251D01*
X239680Y332305D01*
X239601Y332521D01*
X239528Y332739D01*
X239503Y332788D01*
X239484Y332840D01*
X239376Y333042D01*
X239273Y333248D01*
X239242Y333294D01*
X239216Y333342D01*
X239080Y333528D01*
X238949Y333717D01*
X238912Y333758D01*
X238879Y333802D01*
X238719Y333967D01*
X238563Y334136D01*
X238520Y334171D01*
X238482Y334210D01*
X238300Y334351D01*
X238122Y334497D01*
X238074Y334525D01*
X238031Y334559D01*
X237831Y334673D01*
X237634Y334792D01*
X237584Y334814D01*
X237536Y334841D01*
X237322Y334926D01*
X237111Y335017D01*
X237058Y335031D01*
X237007Y335051D01*
X236782Y335106D01*
X236561Y335166D01*
X236517Y335170D01*
X236453Y335186D01*
X235886Y335241D01*
X235820Y335238D01*
X235776Y335242D01*
X211676Y335242D01*
X211447Y335226D01*
X211216Y335216D01*
X211162Y335206D01*
X211108Y335202D01*
X210882Y335154D01*
X210656Y335112D01*
X210604Y335095D01*
X210550Y335083D01*
X210334Y335004D01*
X210116Y334931D01*
X210067Y334906D01*
X210015Y334887D01*
X209812Y334779D01*
X209607Y334676D01*
X209561Y334645D01*
X209513Y334619D01*
X209327Y334483D01*
X209138Y334352D01*
X209097Y334315D01*
X209053Y334282D01*
X208888Y334122D01*
X208719Y333966D01*
X208684Y333923D01*
X208645Y333885D01*
X208504Y333703D01*
X208358Y333525D01*
X208330Y333477D01*
X208296Y333434D01*
X208182Y333234D01*
X208063Y333037D01*
X208041Y332987D01*
X208014Y332939D01*
X207929Y332725D01*
X207838Y332514D01*
X207824Y332461D01*
X207804Y332410D01*
X207749Y332185D01*
X207689Y331964D01*
X207685Y331920D01*
X207669Y331856D01*
X207614Y331289D01*
X207617Y331223D01*
X207613Y331179D01*
X207613Y301329D01*
X207617Y301269D01*
X207615Y301209D01*
X207637Y300985D01*
X207653Y300761D01*
X207665Y300702D01*
X207671Y300642D01*
X207725Y300423D01*
X207772Y300204D01*
X207792Y300147D01*
X207807Y300088D01*
X207890Y299880D01*
X207968Y299669D01*
X207996Y299615D01*
X208018Y299559D01*
X208130Y299364D01*
X208236Y299166D01*
X208272Y299117D01*
X208302Y299065D01*
X208377Y298974D01*
X208573Y298706D01*
X208730Y298545D01*
X208803Y298456D01*
X224630Y282629D01*
X225898Y279567D01*
X225907Y279532D01*
X225990Y279323D01*
X226068Y279112D01*
X226096Y279059D01*
X226118Y279003D01*
X226230Y278808D01*
X226336Y278610D01*
X226372Y278561D01*
X226402Y278508D01*
X226477Y278417D01*
X226673Y278150D01*
X226830Y277989D01*
X226903Y277900D01*
X229152Y275651D01*
X231047Y271076D01*
X231047Y266124D01*
X229152Y261549D01*
X225651Y258048D01*
X221076Y256153D01*
X216124Y256153D01*
X211549Y258048D01*
X208773Y260824D01*
X208600Y260975D01*
X208430Y261131D01*
X208384Y261162D01*
X208343Y261198D01*
X208150Y261323D01*
X207960Y261454D01*
X207911Y261478D01*
X207865Y261508D01*
X207656Y261605D01*
X207450Y261707D01*
X207398Y261725D01*
X207348Y261748D01*
X207128Y261815D01*
X206909Y261887D01*
X206855Y261897D01*
X206803Y261913D01*
X206576Y261948D01*
X206349Y261990D01*
X206294Y261992D01*
X206240Y262000D01*
X206010Y262003D01*
X205779Y262013D01*
X205725Y262007D01*
X205670Y262008D01*
X205442Y261979D01*
X205213Y261956D01*
X205159Y261943D01*
X205105Y261936D01*
X204882Y261875D01*
X204659Y261820D01*
X204608Y261800D01*
X204555Y261786D01*
X204344Y261695D01*
X204130Y261609D01*
X204082Y261581D01*
X204032Y261560D01*
X203836Y261440D01*
X203636Y261325D01*
X203602Y261297D01*
X203546Y261263D01*
X203105Y260901D01*
X203061Y260853D01*
X203027Y260825D01*
X200251Y258048D01*
X195676Y256153D01*
X190724Y256153D01*
X187894Y257326D01*
X187839Y257344D01*
X187787Y257368D01*
X187569Y257434D01*
X187353Y257506D01*
X187297Y257517D01*
X187241Y257533D01*
X187017Y257568D01*
X186793Y257610D01*
X186735Y257612D01*
X186678Y257621D01*
X186451Y257624D01*
X186224Y257633D01*
X186166Y257628D01*
X186109Y257628D01*
X185883Y257600D01*
X185657Y257577D01*
X185601Y257564D01*
X185543Y257556D01*
X185324Y257496D01*
X185103Y257443D01*
X185050Y257421D01*
X184994Y257406D01*
X184785Y257316D01*
X184574Y257232D01*
X184524Y257203D01*
X184471Y257180D01*
X184276Y257061D01*
X184079Y256949D01*
X184034Y256913D01*
X183984Y256883D01*
X183809Y256739D01*
X183629Y256599D01*
X183589Y256558D01*
X183544Y256521D01*
X183391Y256354D01*
X183232Y256191D01*
X183198Y256144D01*
X183159Y256101D01*
X183030Y255914D01*
X182896Y255730D01*
X182869Y255679D01*
X182837Y255632D01*
X182735Y255428D01*
X182628Y255227D01*
X182608Y255173D01*
X182583Y255122D01*
X182511Y254905D01*
X182433Y254692D01*
X182421Y254636D01*
X182403Y254581D01*
X182362Y254357D01*
X182315Y254135D01*
X182311Y254077D01*
X182300Y254021D01*
X182291Y253793D01*
X182276Y253566D01*
X182280Y253509D01*
X182277Y253451D01*
X182300Y253225D01*
X182316Y252998D01*
X182328Y252942D01*
X182334Y252884D01*
X182388Y252663D01*
X182436Y252441D01*
X182456Y252387D01*
X182470Y252331D01*
X182554Y252120D01*
X182633Y251906D01*
X182660Y251855D01*
X182681Y251802D01*
X182794Y251605D01*
X182902Y251404D01*
X182936Y251357D01*
X182965Y251308D01*
X183039Y251218D01*
X183239Y250945D01*
X183393Y250787D01*
X183466Y250699D01*
X205134Y229031D01*
X205808Y228356D01*
X205982Y228205D01*
X206151Y228050D01*
X206197Y228019D01*
X206238Y227983D01*
X206431Y227858D01*
X206621Y227727D01*
X206670Y227703D01*
X206716Y227673D01*
X206925Y227576D01*
X207131Y227474D01*
X207183Y227456D01*
X207233Y227433D01*
X207453Y227366D01*
X207672Y227294D01*
X207726Y227284D01*
X207778Y227268D01*
X208006Y227233D01*
X208232Y227191D01*
X208287Y227189D01*
X208341Y227181D01*
X208571Y227177D01*
X208802Y227168D01*
X208856Y227174D01*
X208911Y227173D01*
X209139Y227202D01*
X209369Y227225D01*
X209422Y227238D01*
X209476Y227245D01*
X209698Y227306D01*
X209922Y227360D01*
X209973Y227381D01*
X210026Y227395D01*
X210237Y227487D01*
X210451Y227572D01*
X210499Y227599D01*
X210549Y227621D01*
X210745Y227741D01*
X210945Y227856D01*
X210980Y227884D01*
X211035Y227918D01*
X211475Y228280D01*
X211520Y228328D01*
X211547Y228351D01*
X216124Y230247D01*
X221076Y230247D01*
X225651Y228352D01*
X229152Y224851D01*
X231047Y220276D01*
X231047Y215324D01*
X229152Y210749D01*
X226375Y207973D01*
X226225Y207799D01*
X226069Y207630D01*
X226038Y207584D01*
X226002Y207543D01*
X225877Y207350D01*
X225746Y207160D01*
X225722Y207111D01*
X225692Y207065D01*
X225595Y206856D01*
X225493Y206650D01*
X225475Y206598D01*
X225452Y206548D01*
X225385Y206327D01*
X225313Y206109D01*
X225303Y206055D01*
X225287Y206003D01*
X225252Y205775D01*
X225210Y205549D01*
X225208Y205494D01*
X225200Y205440D01*
X225197Y205210D01*
X225187Y204979D01*
X225193Y204925D01*
X225192Y204870D01*
X225221Y204641D01*
X225244Y204412D01*
X225257Y204359D01*
X225264Y204305D01*
X225325Y204082D01*
X225380Y203859D01*
X225400Y203808D01*
X225414Y203755D01*
X225506Y203543D01*
X225591Y203330D01*
X225618Y203282D01*
X225640Y203232D01*
X225760Y203035D01*
X225875Y202836D01*
X225903Y202801D01*
X225937Y202746D01*
X226299Y202305D01*
X226347Y202261D01*
X226376Y202227D01*
X229152Y199451D01*
X231047Y194876D01*
X231047Y189924D01*
X229152Y185349D01*
X226375Y182573D01*
X226225Y182399D01*
X226069Y182230D01*
X226038Y182184D01*
X226002Y182143D01*
X225877Y181950D01*
X225746Y181760D01*
X225722Y181711D01*
X225692Y181665D01*
X225595Y181456D01*
X225493Y181250D01*
X225475Y181198D01*
X225452Y181148D01*
X225385Y180927D01*
X225313Y180709D01*
X225303Y180655D01*
X225287Y180603D01*
X225252Y180375D01*
X225210Y180149D01*
X225208Y180094D01*
X225200Y180040D01*
X225197Y179810D01*
X225187Y179579D01*
X225193Y179525D01*
X225192Y179470D01*
X225221Y179241D01*
X225244Y179012D01*
X225257Y178959D01*
X225264Y178905D01*
X225325Y178682D01*
X225380Y178459D01*
X225400Y178408D01*
X225414Y178355D01*
X225506Y178143D01*
X225591Y177930D01*
X225618Y177882D01*
X225640Y177832D01*
X225760Y177635D01*
X225875Y177436D01*
X225903Y177401D01*
X225937Y177346D01*
X226299Y176905D01*
X226347Y176861D01*
X226376Y176827D01*
X229152Y174051D01*
X231047Y169476D01*
X231047Y164524D01*
X229152Y159949D01*
X226375Y157173D01*
X226225Y156999D01*
X226069Y156830D01*
X226038Y156784D01*
X226002Y156743D01*
X225877Y156550D01*
X225746Y156360D01*
X225722Y156311D01*
X225692Y156265D01*
X225595Y156056D01*
X225493Y155850D01*
X225475Y155798D01*
X225452Y155748D01*
X225385Y155527D01*
X225313Y155309D01*
X225303Y155255D01*
X225287Y155203D01*
X225252Y154975D01*
X225210Y154749D01*
X225208Y154694D01*
X225200Y154640D01*
X225197Y154410D01*
X225187Y154179D01*
X225193Y154125D01*
X225192Y154070D01*
X225221Y153841D01*
X225244Y153612D01*
X225257Y153559D01*
X225264Y153505D01*
X225325Y153282D01*
X225380Y153059D01*
X225400Y153008D01*
X225414Y152955D01*
X225506Y152743D01*
X225591Y152530D01*
X225618Y152482D01*
X225640Y152432D01*
X225760Y152235D01*
X225875Y152036D01*
X225903Y152001D01*
X225937Y151946D01*
X226299Y151505D01*
X226347Y151461D01*
X226376Y151427D01*
X229152Y148651D01*
X231047Y144076D01*
X231047Y139124D01*
X229152Y134549D01*
X226375Y131773D01*
X226225Y131599D01*
X226069Y131430D01*
X226038Y131384D01*
X226002Y131343D01*
X225877Y131150D01*
X225746Y130960D01*
X225722Y130911D01*
X225692Y130865D01*
X225595Y130656D01*
X225493Y130450D01*
X225475Y130398D01*
X225452Y130348D01*
X225385Y130127D01*
X225313Y129909D01*
X225303Y129855D01*
X225287Y129803D01*
X225252Y129575D01*
X225210Y129349D01*
X225208Y129294D01*
X225200Y129240D01*
X225197Y129010D01*
X225187Y128779D01*
X225193Y128725D01*
X225192Y128670D01*
X225221Y128441D01*
X225244Y128212D01*
X225257Y128159D01*
X225264Y128105D01*
X225325Y127882D01*
X225380Y127659D01*
X225400Y127608D01*
X225414Y127555D01*
X225506Y127343D01*
X225591Y127130D01*
X225618Y127082D01*
X225640Y127032D01*
X225760Y126835D01*
X225875Y126636D01*
X225903Y126601D01*
X225937Y126546D01*
X226299Y126105D01*
X226347Y126061D01*
X226376Y126027D01*
X229152Y123251D01*
X231047Y118676D01*
X231047Y113724D01*
X229152Y109149D01*
X226375Y106373D01*
X226225Y106199D01*
X226069Y106030D01*
X226038Y105984D01*
X226002Y105943D01*
X225877Y105750D01*
X225746Y105560D01*
X225722Y105511D01*
X225692Y105465D01*
X225595Y105256D01*
X225493Y105050D01*
X225475Y104998D01*
X225452Y104948D01*
X225385Y104727D01*
X225313Y104509D01*
X225303Y104455D01*
X225287Y104403D01*
X225252Y104175D01*
X225210Y103949D01*
X225208Y103894D01*
X225200Y103840D01*
X225197Y103610D01*
X225187Y103379D01*
X225193Y103325D01*
X225192Y103270D01*
X225221Y103041D01*
X225244Y102812D01*
X225257Y102759D01*
X225264Y102705D01*
X225325Y102482D01*
X225380Y102259D01*
X225400Y102208D01*
X225414Y102155D01*
X225506Y101943D01*
X225591Y101730D01*
X225618Y101682D01*
X225640Y101632D01*
X225760Y101435D01*
X225875Y101236D01*
X225903Y101201D01*
X225937Y101146D01*
X226299Y100705D01*
X226347Y100661D01*
X226376Y100627D01*
X229152Y97851D01*
X231047Y93276D01*
X231047Y88324D01*
X229152Y83749D01*
X225651Y80248D01*
X221076Y78353D01*
X216124Y78353D01*
X211549Y80248D01*
X209300Y82497D01*
X209255Y82537D01*
X209214Y82581D01*
X209040Y82723D01*
X208870Y82871D01*
X208820Y82904D01*
X208773Y82942D01*
X208581Y83059D01*
X208392Y83181D01*
X208337Y83206D01*
X208286Y83237D01*
X208079Y83326D01*
X207875Y83421D01*
X207817Y83438D01*
X207762Y83462D01*
X207545Y83520D01*
X207330Y83586D01*
X207270Y83595D01*
X207212Y83611D01*
X207095Y83622D01*
X206767Y83673D01*
X206542Y83676D01*
X206427Y83687D01*
X175460Y83687D01*
X175196Y83669D01*
X174933Y83653D01*
X174912Y83649D01*
X174892Y83647D01*
X174633Y83592D01*
X174374Y83539D01*
X174355Y83533D01*
X174334Y83528D01*
X174086Y83437D01*
X173837Y83349D01*
X173819Y83340D01*
X173799Y83332D01*
X173567Y83208D01*
X173332Y83085D01*
X173315Y83073D01*
X173297Y83064D01*
X173085Y82909D01*
X172869Y82754D01*
X172854Y82739D01*
X172837Y82727D01*
X172648Y82543D01*
X172456Y82361D01*
X172444Y82344D01*
X172429Y82330D01*
X172300Y82163D01*
X159500Y82163D01*
X148267Y82163D01*
X148436Y82683D01*
X149289Y84357D01*
X150394Y85878D01*
X151722Y87206D01*
X153243Y88311D01*
X154917Y89164D01*
X156727Y89752D01*
X156746Y89755D01*
X156943Y89808D01*
X157141Y89854D01*
X157217Y89883D01*
X157295Y89905D01*
X157482Y89986D01*
X157672Y90059D01*
X157744Y90099D01*
X157818Y90131D01*
X157992Y90237D01*
X158170Y90336D01*
X158235Y90385D01*
X158305Y90428D01*
X158462Y90557D01*
X158625Y90680D01*
X158682Y90738D01*
X158745Y90790D01*
X158882Y90940D01*
X159026Y91084D01*
X159075Y91150D01*
X159130Y91209D01*
X159245Y91377D01*
X159367Y91541D01*
X159406Y91612D01*
X159453Y91679D01*
X159543Y91862D01*
X159641Y92040D01*
X159670Y92116D01*
X159706Y92189D01*
X159771Y92383D01*
X159843Y92573D01*
X159860Y92653D01*
X159886Y92730D01*
X159923Y92930D01*
X159967Y93129D01*
X159974Y93210D01*
X159989Y93290D01*
X159997Y93494D01*
X160013Y93697D01*
X160008Y93778D01*
X160012Y93860D01*
X159991Y94062D01*
X159979Y94266D01*
X159963Y94346D01*
X159955Y94427D01*
X159906Y94625D01*
X159866Y94824D01*
X159839Y94901D01*
X159819Y94980D01*
X159744Y95170D01*
X159676Y95361D01*
X159638Y95434D01*
X159608Y95509D01*
X159506Y95686D01*
X159412Y95867D01*
X159365Y95933D01*
X159324Y96003D01*
X159247Y96097D01*
X159080Y96330D01*
X158900Y96519D01*
X158823Y96612D01*
X121986Y133450D01*
X120903Y136064D01*
X120903Y136285D01*
X120895Y136400D01*
X120897Y136516D01*
X120875Y136684D01*
X120863Y136854D01*
X120839Y136966D01*
X120825Y137081D01*
X120780Y137245D01*
X120744Y137411D01*
X120705Y137519D01*
X120674Y137630D01*
X120607Y137786D01*
X120548Y137946D01*
X120494Y138048D01*
X120448Y138153D01*
X120360Y138299D01*
X120280Y138448D01*
X120212Y138541D01*
X120152Y138640D01*
X120044Y138771D01*
X119943Y138908D01*
X119863Y138991D01*
X119790Y139080D01*
X119664Y139195D01*
X119546Y139317D01*
X119455Y139387D01*
X119370Y139465D01*
X119229Y139561D01*
X119095Y139665D01*
X118995Y139722D01*
X118900Y139788D01*
X118748Y139863D01*
X118600Y139948D01*
X118493Y139990D01*
X118390Y140041D01*
X118229Y140095D01*
X118071Y140158D01*
X117958Y140185D01*
X117849Y140221D01*
X117682Y140252D01*
X117517Y140292D01*
X117402Y140303D01*
X117289Y140324D01*
X117119Y140331D01*
X116950Y140347D01*
X116835Y140342D01*
X116719Y140347D01*
X116550Y140330D01*
X116380Y140323D01*
X116267Y140302D01*
X116152Y140290D01*
X115987Y140250D01*
X115820Y140219D01*
X115711Y140182D01*
X115599Y140155D01*
X115441Y140091D01*
X115280Y140037D01*
X115177Y139986D01*
X115070Y139943D01*
X114923Y139858D01*
X114771Y139782D01*
X114676Y139717D01*
X114576Y139659D01*
X114487Y139586D01*
X114302Y139458D01*
X114058Y139233D01*
X113967Y139159D01*
X111445Y136636D01*
X106870Y134741D01*
X101918Y134741D01*
X97343Y136636D01*
X93842Y140137D01*
X91947Y144712D01*
X91947Y149664D01*
X93842Y154239D01*
X97343Y157740D01*
X101918Y159635D01*
X106870Y159635D01*
X111445Y157740D01*
X113967Y155217D01*
X114054Y155142D01*
X114134Y155059D01*
X114269Y154955D01*
X114397Y154844D01*
X114494Y154781D01*
X114585Y154711D01*
X114732Y154627D01*
X114875Y154534D01*
X114980Y154485D01*
X115080Y154428D01*
X115238Y154366D01*
X115392Y154294D01*
X115502Y154261D01*
X115609Y154218D01*
X115775Y154178D01*
X115937Y154129D01*
X116051Y154111D01*
X116163Y154084D01*
X116333Y154068D01*
X116500Y154042D01*
X116615Y154040D01*
X116730Y154029D01*
X116900Y154036D01*
X117070Y154034D01*
X117184Y154048D01*
X117300Y154053D01*
X117467Y154084D01*
X117635Y154106D01*
X117747Y154136D01*
X117860Y154157D01*
X118021Y154211D01*
X118185Y154256D01*
X118291Y154302D01*
X118400Y154339D01*
X118552Y154415D01*
X118708Y154482D01*
X118806Y154542D01*
X118909Y154594D01*
X119049Y154691D01*
X119194Y154779D01*
X119283Y154852D01*
X119378Y154918D01*
X119503Y155033D01*
X119635Y155141D01*
X119712Y155226D01*
X119797Y155304D01*
X119905Y155436D01*
X120020Y155561D01*
X120085Y155656D01*
X120158Y155745D01*
X120246Y155890D01*
X120342Y156030D01*
X120394Y156134D01*
X120453Y156232D01*
X120520Y156388D01*
X120596Y156541D01*
X120632Y156650D01*
X120678Y156756D01*
X120722Y156920D01*
X120776Y157081D01*
X120797Y157195D01*
X120827Y157306D01*
X120838Y157421D01*
X120878Y157642D01*
X120892Y157973D01*
X120903Y158091D01*
X120903Y201309D01*
X120895Y201424D01*
X120897Y201540D01*
X120875Y201708D01*
X120863Y201878D01*
X120839Y201990D01*
X120825Y202105D01*
X120780Y202269D01*
X120744Y202435D01*
X120705Y202543D01*
X120674Y202654D01*
X120607Y202810D01*
X120548Y202970D01*
X120494Y203072D01*
X120448Y203177D01*
X120360Y203323D01*
X120280Y203472D01*
X120212Y203565D01*
X120152Y203664D01*
X120044Y203795D01*
X119943Y203932D01*
X119863Y204015D01*
X119790Y204104D01*
X119664Y204219D01*
X119546Y204341D01*
X119455Y204411D01*
X119370Y204489D01*
X119229Y204585D01*
X119095Y204689D01*
X118995Y204746D01*
X118900Y204812D01*
X118748Y204887D01*
X118600Y204972D01*
X118493Y205014D01*
X118390Y205065D01*
X118229Y205119D01*
X118071Y205182D01*
X117958Y205209D01*
X117849Y205245D01*
X117682Y205276D01*
X117517Y205316D01*
X117402Y205327D01*
X117289Y205348D01*
X117119Y205355D01*
X116950Y205371D01*
X116835Y205366D01*
X116719Y205371D01*
X116550Y205354D01*
X116380Y205347D01*
X116267Y205326D01*
X116152Y205314D01*
X115987Y205274D01*
X115820Y205243D01*
X115711Y205206D01*
X115599Y205179D01*
X115441Y205115D01*
X115280Y205061D01*
X115177Y205010D01*
X115070Y204967D01*
X114923Y204882D01*
X114771Y204806D01*
X114676Y204741D01*
X114576Y204683D01*
X114487Y204610D01*
X114302Y204482D01*
X114058Y204257D01*
X113967Y204183D01*
X111445Y201660D01*
X106870Y199765D01*
X101918Y199765D01*
X97343Y201660D01*
X93842Y205161D01*
X91947Y209736D01*
X91947Y214688D01*
X93842Y219263D01*
X97343Y222764D01*
X101918Y224659D01*
X106870Y224659D01*
X111445Y222764D01*
X113967Y220241D01*
X114054Y220166D01*
X114134Y220083D01*
X114269Y219979D01*
X114397Y219868D01*
X114494Y219805D01*
X114585Y219735D01*
X114732Y219651D01*
X114875Y219558D01*
X114980Y219509D01*
X115080Y219452D01*
X115238Y219390D01*
X115392Y219318D01*
X115502Y219285D01*
X115609Y219242D01*
X115775Y219202D01*
X115937Y219153D01*
X116051Y219135D01*
X116163Y219108D01*
X116333Y219092D01*
X116500Y219066D01*
X116615Y219064D01*
X116730Y219053D01*
X116900Y219060D01*
X117070Y219058D01*
X117184Y219072D01*
X117300Y219077D01*
X117467Y219108D01*
X117635Y219130D01*
X117747Y219160D01*
X117860Y219181D01*
X118021Y219235D01*
X118185Y219280D01*
X118291Y219326D01*
X118400Y219363D01*
X118552Y219439D01*
X118708Y219506D01*
X118806Y219566D01*
X118909Y219618D01*
X119049Y219715D01*
X119194Y219803D01*
X119283Y219876D01*
X119378Y219942D01*
X119503Y220057D01*
X119635Y220165D01*
X119712Y220250D01*
X119797Y220328D01*
X119905Y220460D01*
X120020Y220585D01*
X120085Y220680D01*
X120158Y220769D01*
X120246Y220914D01*
X120342Y221054D01*
X120394Y221158D01*
X120453Y221256D01*
X120520Y221412D01*
X120596Y221565D01*
X120632Y221674D01*
X120678Y221780D01*
X120722Y221944D01*
X120776Y222105D01*
X120797Y222219D01*
X120827Y222330D01*
X120838Y222445D01*
X120878Y222666D01*
X120892Y222997D01*
X120903Y223115D01*
X120903Y234449D01*
X120899Y234510D01*
X120901Y234570D01*
X120879Y234793D01*
X120863Y235018D01*
X120851Y235077D01*
X120845Y235137D01*
X120791Y235355D01*
X120744Y235575D01*
X120724Y235632D01*
X120709Y235690D01*
X120626Y235899D01*
X120548Y236110D01*
X120520Y236163D01*
X120498Y236219D01*
X120386Y236414D01*
X120280Y236613D01*
X120244Y236661D01*
X120214Y236714D01*
X120139Y236805D01*
X119943Y237072D01*
X119786Y237234D01*
X119713Y237323D01*
X84039Y272997D01*
X83993Y273037D01*
X83952Y273081D01*
X83778Y273223D01*
X83608Y273371D01*
X83558Y273404D01*
X83511Y273442D01*
X83319Y273559D01*
X83130Y273681D01*
X83075Y273706D01*
X83024Y273737D01*
X82817Y273826D01*
X82613Y273921D01*
X82556Y273938D01*
X82500Y273962D01*
X82283Y274020D01*
X82068Y274086D01*
X82008Y274095D01*
X81950Y274111D01*
X81833Y274122D01*
X81505Y274173D01*
X81280Y274176D01*
X81165Y274187D01*
X74785Y274187D01*
X72171Y275270D01*
X70170Y277271D01*
X69087Y279885D01*
X69087Y282715D01*
X70170Y285329D01*
X72171Y287330D01*
X74785Y288413D01*
X87209Y288413D01*
X89824Y287330D01*
X128699Y248455D01*
X128786Y248379D01*
X128866Y248297D01*
X129001Y248193D01*
X129129Y248081D01*
X129226Y248018D01*
X129317Y247948D01*
X129465Y247864D01*
X129607Y247771D01*
X129712Y247723D01*
X129812Y247666D01*
X129970Y247603D01*
X130124Y247531D01*
X130234Y247498D01*
X130341Y247455D01*
X130507Y247415D01*
X130669Y247366D01*
X130783Y247349D01*
X130895Y247321D01*
X131065Y247305D01*
X131232Y247279D01*
X131347Y247277D01*
X131462Y247266D01*
X131632Y247273D01*
X131802Y247271D01*
X131916Y247286D01*
X132032Y247291D01*
X132199Y247322D01*
X132367Y247343D01*
X132479Y247374D01*
X132592Y247395D01*
X132753Y247449D01*
X132917Y247494D01*
X133023Y247539D01*
X133132Y247576D01*
X133284Y247652D01*
X133440Y247720D01*
X133538Y247780D01*
X133641Y247831D01*
X133781Y247928D01*
X133926Y248016D01*
X134015Y248089D01*
X134110Y248155D01*
X134235Y248270D01*
X134367Y248378D01*
X134444Y248463D01*
X134529Y248541D01*
X134637Y248673D01*
X134752Y248798D01*
X134817Y248893D01*
X134890Y248982D01*
X134978Y249128D01*
X135074Y249268D01*
X135126Y249371D01*
X135185Y249469D01*
X135252Y249626D01*
X135328Y249778D01*
X135364Y249887D01*
X135410Y249993D01*
X135454Y250157D01*
X135508Y250319D01*
X135529Y250432D01*
X135559Y250543D01*
X135570Y250658D01*
X135610Y250879D01*
X135624Y251211D01*
X135635Y251328D01*
X135635Y482473D01*
X136718Y485088D01*
X144097Y492467D01*
X144137Y492512D01*
X144181Y492553D01*
X144323Y492727D01*
X144471Y492897D01*
X144504Y492948D01*
X144542Y492994D01*
X144659Y493187D01*
X144781Y493375D01*
X144806Y493430D01*
X144837Y493481D01*
X144926Y493688D01*
X145021Y493892D01*
X145038Y493950D01*
X145062Y494005D01*
X145120Y494222D01*
X145186Y494437D01*
X145195Y494497D01*
X145211Y494555D01*
X145222Y494672D01*
X145273Y495000D01*
X145276Y495225D01*
X145287Y495340D01*
X145287Y503824D01*
X145271Y504053D01*
X145261Y504284D01*
X145251Y504338D01*
X145247Y504392D01*
X145199Y504618D01*
X145157Y504844D01*
X145140Y504896D01*
X145128Y504950D01*
X145049Y505166D01*
X144976Y505384D01*
X144951Y505433D01*
X144932Y505485D01*
X144824Y505688D01*
X144721Y505893D01*
X144690Y505939D01*
X144664Y505987D01*
X144528Y506173D01*
X144397Y506362D01*
X144360Y506403D01*
X144327Y506447D01*
X144167Y506612D01*
X144011Y506781D01*
X143968Y506816D01*
X143930Y506855D01*
X143748Y506996D01*
X143570Y507142D01*
X143522Y507170D01*
X143479Y507204D01*
X143279Y507318D01*
X143082Y507437D01*
X143032Y507459D01*
X142984Y507486D01*
X142770Y507571D01*
X142559Y507662D01*
X142506Y507676D01*
X142455Y507696D01*
X142230Y507751D01*
X142009Y507811D01*
X141965Y507815D01*
X141901Y507831D01*
X141334Y507886D01*
X141268Y507883D01*
X141224Y507887D01*
X109200Y507887D01*
X109140Y507883D01*
X109080Y507885D01*
X108856Y507863D01*
X108632Y507847D01*
X108573Y507835D01*
X108513Y507829D01*
X108294Y507775D01*
X108075Y507728D01*
X108018Y507708D01*
X107959Y507693D01*
X107751Y507610D01*
X107540Y507532D01*
X107486Y507504D01*
X107430Y507482D01*
X107235Y507370D01*
X107037Y507264D01*
X106988Y507228D01*
X106936Y507198D01*
X106845Y507123D01*
X106577Y506927D01*
X106416Y506770D01*
X106327Y506697D01*
X95874Y496244D01*
X95834Y496198D01*
X95790Y496157D01*
X95648Y495983D01*
X95500Y495814D01*
X95467Y495763D01*
X95429Y495716D01*
X95312Y495524D01*
X95190Y495336D01*
X95165Y495281D01*
X95134Y495229D01*
X95045Y495023D01*
X94950Y494819D01*
X94933Y494761D01*
X94909Y494705D01*
X94851Y494489D01*
X94785Y494273D01*
X94776Y494214D01*
X94760Y494155D01*
X94749Y494038D01*
X94698Y493710D01*
X94695Y493485D01*
X94684Y493371D01*
X94684Y430956D01*
X93601Y428342D01*
X80226Y414967D01*
X80195Y414951D01*
X80138Y414931D01*
X79940Y414824D01*
X79739Y414724D01*
X79689Y414690D01*
X79636Y414661D01*
X79455Y414528D01*
X79270Y414401D01*
X79225Y414360D01*
X79177Y414324D01*
X79016Y414167D01*
X78851Y414015D01*
X78812Y413968D01*
X78769Y413926D01*
X78632Y413748D01*
X78489Y413575D01*
X78458Y413523D01*
X78421Y413475D01*
X78366Y413371D01*
X78193Y413088D01*
X78104Y412881D01*
X78050Y412779D01*
X78044Y412764D01*
X77126Y411846D01*
X77033Y411800D01*
X76938Y411734D01*
X76837Y411677D01*
X76703Y411573D01*
X76563Y411476D01*
X76478Y411398D01*
X76387Y411328D01*
X76269Y411206D01*
X76144Y411091D01*
X76071Y411001D01*
X75990Y410919D01*
X75890Y410782D01*
X75783Y410650D01*
X75723Y410552D01*
X75655Y410459D01*
X75575Y410309D01*
X75486Y410164D01*
X75441Y410057D01*
X75387Y409956D01*
X75328Y409796D01*
X75261Y409640D01*
X75231Y409529D01*
X75191Y409420D01*
X75156Y409254D01*
X75111Y409090D01*
X75097Y408976D01*
X75073Y408863D01*
X75061Y408693D01*
X75040Y408525D01*
X75042Y408410D01*
X75034Y408295D01*
X75046Y408125D01*
X75049Y407955D01*
X75066Y407841D01*
X75075Y407726D01*
X75110Y407560D01*
X75137Y407392D01*
X75170Y407282D01*
X75194Y407169D01*
X75253Y407010D01*
X75302Y406847D01*
X75351Y406743D01*
X75391Y406634D01*
X75471Y406485D01*
X75543Y406331D01*
X75606Y406234D01*
X75660Y406132D01*
X75761Y405995D01*
X75853Y405853D01*
X75929Y405766D01*
X75997Y405673D01*
X76116Y405551D01*
X76228Y405423D01*
X76315Y405348D01*
X76395Y405265D01*
X76530Y405161D01*
X76658Y405050D01*
X76755Y404988D01*
X76846Y404917D01*
X76948Y404863D01*
X77137Y404741D01*
X77140Y404739D01*
X78044Y403836D01*
X78508Y402715D01*
X78508Y388485D01*
X78044Y387364D01*
X77186Y386506D01*
X76878Y386379D01*
X76775Y386328D01*
X76668Y386285D01*
X76521Y386201D01*
X76369Y386125D01*
X76274Y386059D01*
X76174Y386002D01*
X76039Y385898D01*
X75899Y385801D01*
X75815Y385723D01*
X75723Y385653D01*
X75605Y385531D01*
X75480Y385416D01*
X75407Y385327D01*
X75327Y385244D01*
X75226Y385106D01*
X75119Y384975D01*
X75059Y384877D01*
X74991Y384783D01*
X74911Y384633D01*
X74823Y384488D01*
X74777Y384382D01*
X74723Y384281D01*
X74664Y384121D01*
X74597Y383965D01*
X74567Y383854D01*
X74528Y383745D01*
X74492Y383579D01*
X74448Y383415D01*
X74433Y383301D01*
X74409Y383188D01*
X74398Y383018D01*
X74376Y382850D01*
X74378Y382734D01*
X74370Y382619D01*
X74382Y382450D01*
X74385Y382280D01*
X74403Y382166D01*
X74411Y382051D01*
X74447Y381885D01*
X74473Y381717D01*
X74506Y381607D01*
X74531Y381494D01*
X74589Y381335D01*
X74639Y381172D01*
X74688Y381067D01*
X74727Y380959D01*
X74808Y380810D01*
X74879Y380656D01*
X74942Y380559D01*
X74997Y380457D01*
X75097Y380320D01*
X75190Y380178D01*
X75265Y380091D01*
X75334Y379998D01*
X75453Y379876D01*
X75564Y379748D01*
X75651Y379673D01*
X75732Y379590D01*
X75867Y379486D01*
X75995Y379375D01*
X76092Y379313D01*
X76183Y379242D01*
X76285Y379188D01*
X76473Y379066D01*
X76576Y379018D01*
X77079Y378682D01*
X77432Y378329D01*
X77711Y377912D01*
X77902Y377450D01*
X78000Y376959D01*
X78000Y374263D01*
X62900Y374263D01*
X47493Y374263D01*
X47445Y374392D01*
X47391Y374494D01*
X47345Y374600D01*
X47257Y374745D01*
X47177Y374895D01*
X47109Y374988D01*
X47049Y375086D01*
X46941Y375218D01*
X46840Y375355D01*
X46760Y375437D01*
X46687Y375526D01*
X46562Y375641D01*
X46443Y375763D01*
X46352Y375834D01*
X46267Y375911D01*
X46127Y376008D01*
X45992Y376112D01*
X45892Y376169D01*
X45797Y376234D01*
X45645Y376310D01*
X45497Y376394D01*
X45390Y376437D01*
X45287Y376488D01*
X45126Y376541D01*
X44968Y376604D01*
X44855Y376631D01*
X44746Y376668D01*
X44579Y376698D01*
X44414Y376738D01*
X44299Y376749D01*
X44186Y376770D01*
X44016Y376777D01*
X43847Y376794D01*
X43732Y376789D01*
X43616Y376793D01*
X43447Y376776D01*
X43277Y376769D01*
X43164Y376748D01*
X43050Y376736D01*
X42884Y376696D01*
X42717Y376665D01*
X42608Y376628D01*
X42496Y376601D01*
X42338Y376538D01*
X42177Y376484D01*
X42074Y376432D01*
X41967Y376389D01*
X41820Y376305D01*
X41668Y376229D01*
X41573Y376163D01*
X41473Y376106D01*
X41384Y376033D01*
X41199Y375905D01*
X40955Y375680D01*
X40864Y375605D01*
X33703Y368444D01*
X33663Y368398D01*
X33619Y368357D01*
X33477Y368183D01*
X33329Y368014D01*
X33296Y367963D01*
X33258Y367916D01*
X33141Y367724D01*
X33019Y367536D01*
X32994Y367481D01*
X32963Y367429D01*
X32874Y367223D01*
X32779Y367019D01*
X32762Y366961D01*
X32738Y366905D01*
X32679Y366688D01*
X32614Y366473D01*
X32605Y366414D01*
X32589Y366355D01*
X32578Y366238D01*
X32527Y365910D01*
X32524Y365685D01*
X32513Y365571D01*
X32513Y351118D01*
X32521Y351003D01*
X32519Y350888D01*
X32541Y350719D01*
X32553Y350550D01*
X32577Y350437D01*
X32591Y350323D01*
X32636Y350158D01*
X32672Y349992D01*
X32711Y349884D01*
X32742Y349773D01*
X32809Y349617D01*
X32868Y349457D01*
X32922Y349356D01*
X32968Y349250D01*
X33056Y349105D01*
X33136Y348955D01*
X33204Y348862D01*
X33264Y348764D01*
X33372Y348632D01*
X33473Y348495D01*
X33553Y348413D01*
X33626Y348323D01*
X33752Y348209D01*
X33870Y348087D01*
X33961Y348016D01*
X34046Y347938D01*
X34186Y347842D01*
X34321Y347738D01*
X34421Y347681D01*
X34516Y347616D01*
X34668Y347540D01*
X34816Y347456D01*
X34923Y347413D01*
X35026Y347362D01*
X35187Y347308D01*
X35345Y347246D01*
X35458Y347218D01*
X35567Y347182D01*
X35734Y347152D01*
X35899Y347112D01*
X36014Y347100D01*
X36127Y347080D01*
X36297Y347073D01*
X36466Y347056D01*
X36581Y347061D01*
X36697Y347057D01*
X36866Y347073D01*
X37036Y347081D01*
X37149Y347102D01*
X37264Y347113D01*
X37429Y347154D01*
X37596Y347185D01*
X37705Y347221D01*
X37817Y347249D01*
X37975Y347312D01*
X38136Y347366D01*
X38239Y347418D01*
X38346Y347461D01*
X38493Y347545D01*
X38645Y347621D01*
X38740Y347687D01*
X38840Y347744D01*
X38929Y347817D01*
X39114Y347945D01*
X39358Y348170D01*
X39449Y348245D01*
X42895Y351691D01*
X45883Y352929D01*
X45966Y352929D01*
X46026Y352933D01*
X46087Y352931D01*
X46310Y352953D01*
X46534Y352969D01*
X46594Y352981D01*
X46654Y352987D01*
X46872Y353041D01*
X47092Y353088D01*
X47148Y353108D01*
X47207Y353123D01*
X47416Y353206D01*
X47627Y353284D01*
X47680Y353312D01*
X47736Y353334D01*
X47931Y353446D01*
X48129Y353552D01*
X48178Y353588D01*
X48230Y353618D01*
X48321Y353693D01*
X48572Y353876D01*
X48922Y354021D01*
X49025Y354072D01*
X49132Y354115D01*
X49279Y354199D01*
X49431Y354275D01*
X49526Y354341D01*
X49626Y354398D01*
X49761Y354502D01*
X49901Y354599D01*
X49985Y354677D01*
X50077Y354747D01*
X50195Y354869D01*
X50320Y354984D01*
X50393Y355073D01*
X50473Y355156D01*
X50574Y355294D01*
X50681Y355425D01*
X50741Y355523D01*
X50809Y355617D01*
X50889Y355767D01*
X50977Y355912D01*
X51023Y356018D01*
X51077Y356119D01*
X51136Y356279D01*
X51203Y356435D01*
X51233Y356546D01*
X51272Y356655D01*
X51308Y356821D01*
X51352Y356985D01*
X51367Y357099D01*
X51391Y357212D01*
X51402Y357382D01*
X51424Y357550D01*
X51422Y357666D01*
X51430Y357781D01*
X51418Y357950D01*
X51415Y358120D01*
X51397Y358234D01*
X51389Y358349D01*
X51353Y358515D01*
X51327Y358683D01*
X51294Y358793D01*
X51269Y358906D01*
X51211Y359065D01*
X51161Y359228D01*
X51112Y359333D01*
X51073Y359441D01*
X50992Y359590D01*
X50921Y359744D01*
X50858Y359841D01*
X50803Y359943D01*
X50703Y360080D01*
X50610Y360222D01*
X50535Y360309D01*
X50466Y360402D01*
X50347Y360524D01*
X50236Y360652D01*
X50149Y360727D01*
X50068Y360810D01*
X49933Y360914D01*
X49805Y361025D01*
X49708Y361087D01*
X49617Y361158D01*
X49515Y361212D01*
X49327Y361334D01*
X49224Y361382D01*
X48721Y361718D01*
X48368Y362071D01*
X48089Y362488D01*
X47898Y362950D01*
X47800Y363441D01*
X47800Y366137D01*
X62900Y366137D01*
X78000Y366137D01*
X78000Y363441D01*
X77902Y362950D01*
X77711Y362488D01*
X77432Y362071D01*
X77079Y361718D01*
X76580Y361384D01*
X76521Y361350D01*
X76369Y361275D01*
X76274Y361209D01*
X76174Y361152D01*
X76039Y361048D01*
X75900Y360951D01*
X75815Y360873D01*
X75724Y360803D01*
X75605Y360681D01*
X75480Y360566D01*
X75407Y360476D01*
X75327Y360394D01*
X75227Y360257D01*
X75119Y360125D01*
X75059Y360026D01*
X74991Y359933D01*
X74911Y359784D01*
X74823Y359638D01*
X74777Y359532D01*
X74723Y359431D01*
X74665Y359271D01*
X74597Y359115D01*
X74567Y359004D01*
X74528Y358895D01*
X74492Y358729D01*
X74448Y358565D01*
X74433Y358451D01*
X74409Y358338D01*
X74398Y358169D01*
X74376Y358000D01*
X74378Y357884D01*
X74370Y357769D01*
X74382Y357600D01*
X74385Y357430D01*
X74403Y357316D01*
X74411Y357201D01*
X74447Y357035D01*
X74473Y356867D01*
X74506Y356757D01*
X74531Y356644D01*
X74589Y356484D01*
X74639Y356322D01*
X74687Y356218D01*
X74727Y356109D01*
X74808Y355960D01*
X74879Y355806D01*
X74942Y355709D01*
X74997Y355607D01*
X75097Y355470D01*
X75190Y355328D01*
X75265Y355241D01*
X75334Y355148D01*
X75453Y355026D01*
X75564Y354898D01*
X75651Y354823D01*
X75732Y354740D01*
X75866Y354636D01*
X75995Y354525D01*
X76092Y354462D01*
X76183Y354392D01*
X76284Y354338D01*
X76473Y354216D01*
X76775Y354076D01*
X76878Y354021D01*
X77186Y353894D01*
X78044Y353036D01*
X78508Y351915D01*
X78508Y337685D01*
X78044Y336564D01*
X77186Y335706D01*
X76065Y335242D01*
X51121Y335242D01*
X51061Y335238D01*
X51000Y335240D01*
X50777Y335218D01*
X50553Y335202D01*
X50494Y335190D01*
X50433Y335184D01*
X50215Y335130D01*
X49995Y335083D01*
X49939Y335062D01*
X49880Y335048D01*
X49672Y334965D01*
X49460Y334887D01*
X49407Y334859D01*
X49351Y334836D01*
X49156Y334725D01*
X48958Y334619D01*
X48909Y334583D01*
X48857Y334553D01*
X48766Y334478D01*
X48498Y334282D01*
X48337Y334125D01*
X48248Y334052D01*
X47419Y333223D01*
X47379Y333177D01*
X47335Y333137D01*
X47192Y332962D01*
X47045Y332793D01*
X47012Y332742D01*
X46974Y332696D01*
X46857Y332503D01*
X46735Y332315D01*
X46710Y332260D01*
X46679Y332208D01*
X46590Y332002D01*
X46495Y331798D01*
X46478Y331740D01*
X46454Y331685D01*
X46396Y331468D01*
X46330Y331252D01*
X46321Y331193D01*
X46305Y331135D01*
X46294Y331018D01*
X46243Y330689D01*
X46240Y330465D01*
X46229Y330350D01*
X46229Y266983D01*
X44991Y263995D01*
X42705Y261709D01*
X39717Y260471D01*
X36576Y260471D01*
X36347Y260455D01*
X36116Y260445D01*
X36062Y260435D01*
X36008Y260431D01*
X35782Y260383D01*
X35556Y260341D01*
X35504Y260324D01*
X35450Y260312D01*
X35234Y260233D01*
X35016Y260160D01*
X34967Y260135D01*
X34915Y260116D01*
X34712Y260008D01*
X34507Y259905D01*
X34461Y259874D01*
X34413Y259848D01*
X34227Y259712D01*
X34038Y259581D01*
X33997Y259544D01*
X33953Y259511D01*
X33788Y259351D01*
X33619Y259195D01*
X33584Y259152D01*
X33545Y259114D01*
X33404Y258932D01*
X33258Y258754D01*
X33230Y258706D01*
X33196Y258663D01*
X33082Y258463D01*
X32963Y258266D01*
X32941Y258216D01*
X32914Y258168D01*
X32829Y257954D01*
X32738Y257743D01*
X32724Y257690D01*
X32704Y257639D01*
X32649Y257414D01*
X32589Y257193D01*
X32585Y257149D01*
X32569Y257085D01*
X32514Y256518D01*
X32517Y256452D01*
X32513Y256408D01*
X32513Y171629D01*
X32517Y171569D01*
X32515Y171509D01*
X32537Y171285D01*
X32553Y171061D01*
X32565Y171002D01*
X32571Y170942D01*
X32625Y170723D01*
X32672Y170504D01*
X32692Y170447D01*
X32707Y170388D01*
X32790Y170180D01*
X32868Y169969D01*
X32896Y169915D01*
X32918Y169859D01*
X33030Y169664D01*
X33136Y169466D01*
X33172Y169417D01*
X33202Y169365D01*
X33277Y169274D01*
X33473Y169006D01*
X33630Y168845D01*
X33703Y168756D01*
X100530Y101929D01*
X101613Y99315D01*
X101613Y90273D01*
X101617Y90212D01*
X101615Y90152D01*
X101637Y89929D01*
X101653Y89704D01*
X101665Y89645D01*
X101671Y89585D01*
X101725Y89367D01*
X101772Y89147D01*
X101792Y89091D01*
X101807Y89032D01*
X101890Y88823D01*
X101968Y88612D01*
X101996Y88558D01*
X102019Y88503D01*
X102130Y88308D01*
X102236Y88110D01*
X102272Y88061D01*
X102302Y88008D01*
X102377Y87917D01*
X102573Y87650D01*
X102730Y87488D01*
X102803Y87399D01*
X105052Y85151D01*
X106947Y80576D01*
X106947Y75624D01*
X105052Y71049D01*
X101551Y67548D01*
X96976Y65653D01*
X92024Y65653D01*
X87449Y67548D01*
X83948Y71049D01*
X82053Y75624D01*
X82053Y80576D01*
X83948Y85151D01*
X86197Y87399D01*
X86237Y87445D01*
X86281Y87486D01*
X86424Y87660D01*
X86571Y87830D01*
X86604Y87880D01*
X86642Y87927D01*
X86758Y88119D01*
X86881Y88308D01*
X86906Y88363D01*
X86937Y88414D01*
X87026Y88620D01*
X87121Y88825D01*
X87138Y88883D01*
X87162Y88938D01*
X87220Y89155D01*
X87286Y89370D01*
X87295Y89430D01*
X87311Y89488D01*
X87322Y89605D01*
X87373Y89933D01*
X87376Y90158D01*
X87387Y90273D01*
X87387Y93271D01*
X87383Y93331D01*
X87385Y93391D01*
X87363Y93615D01*
X87347Y93839D01*
X87335Y93898D01*
X87329Y93958D01*
X87275Y94177D01*
X87228Y94396D01*
X87208Y94453D01*
X87193Y94512D01*
X87110Y94720D01*
X87032Y94931D01*
X87004Y94985D01*
X86982Y95041D01*
X86870Y95236D01*
X86764Y95434D01*
X86728Y95483D01*
X86698Y95535D01*
X86623Y95626D01*
X86427Y95894D01*
X86270Y96055D01*
X86197Y96144D01*
X19370Y162971D01*
X18287Y165585D01*
X18287Y371615D01*
X19370Y374229D01*
X33607Y388466D01*
X33647Y388512D01*
X33691Y388553D01*
X33833Y388727D01*
X33981Y388896D01*
X34014Y388947D01*
X34052Y388994D01*
X34169Y389186D01*
X34291Y389374D01*
X34316Y389429D01*
X34347Y389481D01*
X34436Y389687D01*
X34531Y389891D01*
X34548Y389949D01*
X34572Y390005D01*
X34630Y390221D01*
X34696Y390437D01*
X34705Y390496D01*
X34721Y390555D01*
X34732Y390672D01*
X34783Y391000D01*
X34786Y391225D01*
X34797Y391339D01*
X34797Y410739D01*
X34785Y410912D01*
X34783Y411084D01*
X34765Y411195D01*
X34757Y411308D01*
X34721Y411477D01*
X34695Y411647D01*
X34662Y411755D01*
X34638Y411865D01*
X34579Y412027D01*
X34529Y412192D01*
X34481Y412294D01*
X34442Y412400D01*
X34361Y412552D01*
X34288Y412709D01*
X34227Y412803D01*
X34174Y412902D01*
X34072Y413042D01*
X33978Y413187D01*
X33904Y413271D01*
X33837Y413362D01*
X33717Y413486D01*
X33603Y413616D01*
X33518Y413690D01*
X33440Y413770D01*
X33303Y413876D01*
X33173Y413989D01*
X33078Y414050D01*
X32989Y414119D01*
X32839Y414205D01*
X32694Y414298D01*
X32592Y414346D01*
X32494Y414401D01*
X32333Y414465D01*
X32177Y414538D01*
X32069Y414570D01*
X31965Y414612D01*
X31796Y414652D01*
X31631Y414702D01*
X31520Y414719D01*
X31411Y414746D01*
X31239Y414762D01*
X31068Y414789D01*
X30956Y414790D01*
X30844Y414801D01*
X30671Y414793D01*
X30498Y414796D01*
X30387Y414781D01*
X30274Y414776D01*
X30104Y414745D01*
X29933Y414723D01*
X29852Y414698D01*
X29714Y414672D01*
X29192Y414497D01*
X29179Y414493D01*
X27876Y413953D01*
X22924Y413953D01*
X18349Y415848D01*
X17097Y417101D01*
X17010Y417176D01*
X16930Y417259D01*
X16795Y417363D01*
X16667Y417474D01*
X16570Y417537D01*
X16479Y417607D01*
X16332Y417691D01*
X16189Y417784D01*
X16084Y417833D01*
X15984Y417890D01*
X15826Y417952D01*
X15672Y418024D01*
X15562Y418057D01*
X15455Y418100D01*
X15289Y418140D01*
X15127Y418189D01*
X15013Y418207D01*
X14901Y418234D01*
X14731Y418250D01*
X14564Y418276D01*
X14449Y418278D01*
X14334Y418289D01*
X14164Y418282D01*
X13994Y418284D01*
X13880Y418270D01*
X13764Y418265D01*
X13597Y418234D01*
X13429Y418212D01*
X13317Y418182D01*
X13204Y418161D01*
X13043Y418107D01*
X12879Y418062D01*
X12773Y418016D01*
X12664Y417979D01*
X12512Y417903D01*
X12356Y417836D01*
X12258Y417776D01*
X12155Y417724D01*
X12014Y417627D01*
X11870Y417539D01*
X11781Y417466D01*
X11686Y417400D01*
X11561Y417285D01*
X11429Y417177D01*
X11352Y417092D01*
X11267Y417014D01*
X11159Y416882D01*
X11044Y416757D01*
X10979Y416662D01*
X10906Y416573D01*
X10818Y416428D01*
X10722Y416288D01*
X10670Y416184D01*
X10611Y416086D01*
X10544Y415930D01*
X10468Y415777D01*
X10432Y415668D01*
X10386Y415562D01*
X10342Y415398D01*
X10288Y415237D01*
X10267Y415123D01*
X10237Y415012D01*
X10226Y414897D01*
X10186Y414676D01*
X10172Y414345D01*
X10161Y414227D01*
X10161Y77573D01*
X10169Y77458D01*
X10167Y77342D01*
X10189Y77174D01*
X10201Y77004D01*
X10225Y76891D01*
X10239Y76777D01*
X10284Y76613D01*
X10320Y76447D01*
X10359Y76339D01*
X10390Y76228D01*
X10457Y76072D01*
X10516Y75912D01*
X10570Y75810D01*
X10616Y75705D01*
X10704Y75560D01*
X10784Y75410D01*
X10852Y75316D01*
X10912Y75218D01*
X11020Y75087D01*
X11121Y74950D01*
X11201Y74867D01*
X11274Y74778D01*
X11400Y74663D01*
X11518Y74541D01*
X11609Y74471D01*
X11694Y74393D01*
X11834Y74297D01*
X11969Y74193D01*
X12069Y74136D01*
X12164Y74070D01*
X12316Y73995D01*
X12464Y73910D01*
X12571Y73868D01*
X12674Y73817D01*
X12835Y73763D01*
X12993Y73700D01*
X13106Y73673D01*
X13215Y73637D01*
X13382Y73606D01*
X13547Y73566D01*
X13662Y73555D01*
X13775Y73534D01*
X13945Y73527D01*
X14114Y73511D01*
X14229Y73516D01*
X14345Y73511D01*
X14514Y73528D01*
X14684Y73535D01*
X14797Y73556D01*
X14912Y73568D01*
X15077Y73608D01*
X15244Y73639D01*
X15353Y73676D01*
X15465Y73704D01*
X15623Y73767D01*
X15784Y73821D01*
X15887Y73872D01*
X15994Y73915D01*
X16141Y74000D01*
X16293Y74076D01*
X16388Y74141D01*
X16488Y74199D01*
X16577Y74272D01*
X16762Y74400D01*
X17006Y74625D01*
X17097Y74699D01*
X18349Y75952D01*
X22924Y77847D01*
X27876Y77847D01*
X32451Y75952D01*
X35607Y72795D01*
X35807Y72622D01*
X36005Y72446D01*
X36022Y72435D01*
X36038Y72421D01*
X36260Y72277D01*
X36480Y72132D01*
X36498Y72123D01*
X36516Y72111D01*
X36756Y72000D01*
X36994Y71886D01*
X37014Y71880D01*
X37033Y71872D01*
X37286Y71795D01*
X37538Y71716D01*
X37558Y71712D01*
X37578Y71706D01*
X37838Y71666D01*
X38100Y71623D01*
X38121Y71622D01*
X38141Y71619D01*
X38405Y71615D01*
X38669Y71609D01*
X38690Y71612D01*
X38711Y71611D01*
X38973Y71645D01*
X39235Y71675D01*
X39255Y71681D01*
X39276Y71683D01*
X39532Y71753D01*
X39786Y71820D01*
X39805Y71828D01*
X39826Y71834D01*
X40068Y71939D01*
X40312Y72041D01*
X40330Y72051D01*
X40349Y72060D01*
X40574Y72197D01*
X40801Y72333D01*
X40817Y72346D01*
X40835Y72356D01*
X41040Y72525D01*
X41245Y72690D01*
X41256Y72703D01*
X41275Y72718D01*
X41660Y73138D01*
X41673Y73157D01*
X43022Y74506D01*
X44543Y75611D01*
X46217Y76464D01*
X46737Y76633D01*
X46737Y65400D01*
X46753Y65171D01*
X46763Y64941D01*
X46773Y64887D01*
X46777Y64832D01*
X46825Y64607D01*
X46867Y64381D01*
X46884Y64328D01*
X46896Y64275D01*
X46975Y64059D01*
X47048Y63840D01*
X47073Y63791D01*
X47091Y63740D01*
X47200Y63537D01*
X47303Y63331D01*
X47334Y63286D01*
X47360Y63237D01*
X47496Y63052D01*
X47627Y62862D01*
X47664Y62822D01*
X47697Y62777D01*
X47857Y62613D01*
X48013Y62443D01*
X48014Y62443D01*
X48056Y62408D01*
X48094Y62369D01*
X48095Y62369D01*
X48276Y62228D01*
X48455Y62082D01*
X48502Y62053D01*
X48545Y62020D01*
X48745Y61906D01*
X48942Y61786D01*
X48992Y61765D01*
X49040Y61738D01*
X49255Y61652D01*
X49466Y61562D01*
X49518Y61548D01*
X49570Y61527D01*
X49794Y61473D01*
X50016Y61413D01*
X50060Y61409D01*
X50124Y61393D01*
X50691Y61338D01*
X50756Y61341D01*
X50800Y61337D01*
X62033Y61337D01*
X61864Y60817D01*
X61011Y59143D01*
X59906Y57622D01*
X59381Y57097D01*
X59306Y57010D01*
X59223Y56930D01*
X59119Y56795D01*
X59007Y56667D01*
X58945Y56570D01*
X58874Y56479D01*
X58790Y56332D01*
X58698Y56189D01*
X58649Y56084D01*
X58592Y55984D01*
X58529Y55826D01*
X58458Y55672D01*
X58424Y55562D01*
X58382Y55455D01*
X58342Y55289D01*
X58293Y55127D01*
X58275Y55013D01*
X58248Y54901D01*
X58231Y54731D01*
X58205Y54564D01*
X58204Y54449D01*
X58192Y54334D01*
X58200Y54164D01*
X58197Y53994D01*
X58212Y53880D01*
X58217Y53764D01*
X58248Y53597D01*
X58270Y53429D01*
X58300Y53317D01*
X58321Y53204D01*
X58375Y53043D01*
X58420Y52879D01*
X58466Y52773D01*
X58502Y52664D01*
X58579Y52512D01*
X58646Y52356D01*
X58706Y52258D01*
X58757Y52155D01*
X58854Y52014D01*
X58943Y51870D01*
X59016Y51781D01*
X59081Y51686D01*
X59197Y51561D01*
X59304Y51430D01*
X59389Y51352D01*
X59468Y51267D01*
X59599Y51159D01*
X59724Y51044D01*
X59819Y50979D01*
X59909Y50906D01*
X60054Y50818D01*
X60194Y50722D01*
X60297Y50670D01*
X60396Y50611D01*
X60552Y50544D01*
X60704Y50468D01*
X60814Y50432D01*
X60920Y50386D01*
X61084Y50342D01*
X61245Y50288D01*
X61358Y50267D01*
X61469Y50237D01*
X61584Y50226D01*
X61805Y50186D01*
X62137Y50172D01*
X62254Y50161D01*
X68016Y50161D01*
X73588Y47853D01*
X75090Y46351D01*
X75135Y46311D01*
X75176Y46267D01*
X75350Y46125D01*
X75520Y45977D01*
X75570Y45944D01*
X75617Y45906D01*
X75810Y45789D01*
X75998Y45667D01*
X76053Y45642D01*
X76104Y45611D01*
X76311Y45522D01*
X76515Y45427D01*
X76573Y45410D01*
X76628Y45386D01*
X76845Y45328D01*
X77060Y45262D01*
X77120Y45253D01*
X77178Y45237D01*
X77295Y45226D01*
X77623Y45175D01*
X77848Y45172D01*
X77963Y45161D01*
X83016Y45161D01*
X88588Y42853D01*
X89314Y42127D01*
X89359Y42087D01*
X89400Y42043D01*
X89574Y41901D01*
X89744Y41753D01*
X89794Y41720D01*
X89841Y41682D01*
X90034Y41565D01*
X90222Y41443D01*
X90277Y41418D01*
X90328Y41387D01*
X90535Y41298D01*
X90739Y41204D01*
X90797Y41186D01*
X90852Y41162D01*
X91069Y41104D01*
X91284Y41038D01*
X91344Y41029D01*
X91402Y41013D01*
X91519Y41002D01*
X91847Y40951D01*
X92072Y40948D01*
X92187Y40937D01*
X157813Y40937D01*
X157873Y40941D01*
G37*
G36*
X153984Y558227D02*
X153984Y558227D01*
X154154Y558224D01*
X154268Y558239D01*
X154384Y558244D01*
X154551Y558275D01*
X154719Y558297D01*
X154831Y558327D01*
X154944Y558348D01*
X155105Y558402D01*
X155269Y558447D01*
X155375Y558493D01*
X155484Y558529D01*
X155636Y558605D01*
X155792Y558673D01*
X155890Y558733D01*
X155993Y558784D01*
X156133Y558881D01*
X156278Y558970D01*
X156367Y559043D01*
X156462Y559108D01*
X156587Y559224D01*
X156719Y559332D01*
X156796Y559416D01*
X156881Y559495D01*
X156989Y559626D01*
X157104Y559751D01*
X157169Y559846D01*
X157242Y559936D01*
X157330Y560081D01*
X157426Y560221D01*
X157478Y560324D01*
X157537Y560423D01*
X157604Y560579D01*
X157680Y560731D01*
X157716Y560841D01*
X157762Y560947D01*
X157806Y561110D01*
X157860Y561272D01*
X157881Y561385D01*
X157911Y561496D01*
X157922Y561611D01*
X157962Y561832D01*
X157976Y562164D01*
X157987Y562281D01*
X157987Y585615D01*
X159070Y588229D01*
X175671Y604830D01*
X178285Y605913D01*
X203950Y605913D01*
X204010Y605917D01*
X204071Y605915D01*
X204294Y605937D01*
X204519Y605953D01*
X204578Y605965D01*
X204638Y605971D01*
X204856Y606025D01*
X205076Y606072D01*
X205132Y606093D01*
X205191Y606107D01*
X205399Y606190D01*
X205611Y606268D01*
X205664Y606296D01*
X205720Y606319D01*
X205915Y606430D01*
X206113Y606536D01*
X206162Y606572D01*
X206214Y606602D01*
X206305Y606677D01*
X206573Y606873D01*
X206734Y607030D01*
X206823Y607103D01*
X207674Y607954D01*
X207767Y608000D01*
X207862Y608066D01*
X207963Y608123D01*
X208097Y608227D01*
X208237Y608324D01*
X208322Y608402D01*
X208413Y608472D01*
X208531Y608594D01*
X208656Y608709D01*
X208729Y608799D01*
X208810Y608881D01*
X208910Y609018D01*
X209017Y609150D01*
X209077Y609248D01*
X209145Y609341D01*
X209225Y609491D01*
X209314Y609636D01*
X209359Y609743D01*
X209413Y609844D01*
X209472Y610004D01*
X209539Y610160D01*
X209569Y610271D01*
X209609Y610380D01*
X209644Y610546D01*
X209689Y610710D01*
X209703Y610824D01*
X209727Y610937D01*
X209739Y611107D01*
X209760Y611275D01*
X209758Y611390D01*
X209766Y611505D01*
X209754Y611675D01*
X209751Y611845D01*
X209734Y611959D01*
X209725Y612074D01*
X209690Y612240D01*
X209663Y612408D01*
X209630Y612518D01*
X209606Y612631D01*
X209547Y612790D01*
X209498Y612953D01*
X209449Y613057D01*
X209409Y613166D01*
X209329Y613315D01*
X209257Y613469D01*
X209194Y613566D01*
X209140Y613668D01*
X209039Y613805D01*
X208947Y613947D01*
X208871Y614034D01*
X208803Y614127D01*
X208684Y614249D01*
X208572Y614377D01*
X208485Y614452D01*
X208405Y614535D01*
X208270Y614639D01*
X208142Y614750D01*
X208045Y614812D01*
X207954Y614883D01*
X207852Y614937D01*
X207663Y615059D01*
X207660Y615061D01*
X206756Y615964D01*
X206699Y616103D01*
X206698Y616105D01*
X206697Y616108D01*
X206571Y616358D01*
X206445Y616613D01*
X206443Y616615D01*
X206442Y616617D01*
X206281Y616850D01*
X206121Y617082D01*
X206119Y617084D01*
X206118Y617086D01*
X205926Y617295D01*
X205736Y617501D01*
X205733Y617503D01*
X205732Y617505D01*
X205504Y617691D01*
X205295Y617863D01*
X205293Y617864D01*
X205291Y617866D01*
X205040Y618018D01*
X204808Y618159D01*
X204806Y618160D01*
X204803Y618161D01*
X204545Y618272D01*
X204285Y618384D01*
X204282Y618385D01*
X204280Y618386D01*
X204011Y618459D01*
X203735Y618534D01*
X203732Y618534D01*
X203730Y618535D01*
X203716Y618536D01*
X203170Y618605D01*
X203030Y618603D01*
X202945Y618611D01*
X194688Y618611D01*
X192634Y619462D01*
X186626Y625471D01*
X184482Y627614D01*
X183631Y629668D01*
X183631Y646782D01*
X183627Y646842D01*
X183629Y646903D01*
X183607Y647126D01*
X183591Y647350D01*
X183579Y647410D01*
X183573Y647470D01*
X183519Y647688D01*
X183472Y647908D01*
X183452Y647964D01*
X183437Y648023D01*
X183354Y648232D01*
X183276Y648443D01*
X183248Y648496D01*
X183226Y648552D01*
X183114Y648747D01*
X183008Y648945D01*
X182972Y648994D01*
X182942Y649046D01*
X182867Y649137D01*
X182671Y649405D01*
X182514Y649566D01*
X182441Y649655D01*
X111175Y720921D01*
X111130Y720961D01*
X111089Y721005D01*
X110915Y721147D01*
X110745Y721295D01*
X110694Y721328D01*
X110648Y721366D01*
X110455Y721483D01*
X110267Y721605D01*
X110212Y721630D01*
X110160Y721661D01*
X109954Y721750D01*
X109750Y721845D01*
X109692Y721862D01*
X109637Y721886D01*
X109420Y721944D01*
X109205Y722010D01*
X109145Y722019D01*
X109087Y722035D01*
X108970Y722046D01*
X108642Y722097D01*
X108417Y722100D01*
X108302Y722111D01*
X63888Y722111D01*
X61834Y722962D01*
X53235Y731561D01*
X53190Y731601D01*
X53149Y731645D01*
X52975Y731787D01*
X52805Y731935D01*
X52754Y731968D01*
X52708Y732006D01*
X52515Y732123D01*
X52327Y732245D01*
X52272Y732270D01*
X52220Y732301D01*
X52014Y732390D01*
X51810Y732485D01*
X51752Y732502D01*
X51697Y732526D01*
X51480Y732584D01*
X51265Y732650D01*
X51205Y732659D01*
X51147Y732675D01*
X51030Y732686D01*
X50702Y732737D01*
X50477Y732740D01*
X50362Y732751D01*
X48794Y732751D01*
X47673Y733215D01*
X46815Y734073D01*
X46351Y735194D01*
X46351Y737383D01*
X46343Y737498D01*
X46345Y737613D01*
X46323Y737782D01*
X46311Y737951D01*
X46287Y738064D01*
X46273Y738178D01*
X46228Y738343D01*
X46192Y738508D01*
X46153Y738617D01*
X46122Y738728D01*
X46055Y738884D01*
X45996Y739043D01*
X45942Y739145D01*
X45896Y739251D01*
X45808Y739396D01*
X45728Y739546D01*
X45660Y739639D01*
X45600Y739737D01*
X45491Y739869D01*
X45391Y740006D01*
X45311Y740088D01*
X45238Y740177D01*
X45112Y740292D01*
X44994Y740414D01*
X44903Y740485D01*
X44818Y740563D01*
X44678Y740659D01*
X44543Y740763D01*
X44443Y740820D01*
X44348Y740885D01*
X44196Y740961D01*
X44048Y741045D01*
X43941Y741088D01*
X43838Y741139D01*
X43677Y741192D01*
X43519Y741255D01*
X43406Y741282D01*
X43297Y741319D01*
X43130Y741349D01*
X42965Y741389D01*
X42850Y741401D01*
X42737Y741421D01*
X42567Y741428D01*
X42398Y741445D01*
X42282Y741440D01*
X42167Y741444D01*
X41998Y741427D01*
X41828Y741420D01*
X41715Y741399D01*
X41600Y741387D01*
X41435Y741347D01*
X41268Y741316D01*
X41159Y741279D01*
X41047Y741252D01*
X40889Y741189D01*
X40728Y741135D01*
X40625Y741083D01*
X40518Y741040D01*
X40371Y740956D01*
X40219Y740880D01*
X40124Y740814D01*
X40024Y740757D01*
X39935Y740684D01*
X39750Y740556D01*
X39506Y740331D01*
X39415Y740256D01*
X39037Y739878D01*
X38997Y739832D01*
X38953Y739791D01*
X38810Y739617D01*
X38663Y739448D01*
X38630Y739397D01*
X38592Y739350D01*
X38476Y739158D01*
X38353Y738969D01*
X38328Y738915D01*
X38297Y738863D01*
X38208Y738657D01*
X38113Y738453D01*
X38096Y738395D01*
X38072Y738339D01*
X38013Y738122D01*
X37948Y737907D01*
X37939Y737848D01*
X37923Y737789D01*
X37912Y737672D01*
X37861Y737344D01*
X37858Y737119D01*
X37847Y737005D01*
X37847Y731424D01*
X35952Y726849D01*
X33175Y724073D01*
X33025Y723899D01*
X32869Y723730D01*
X32838Y723684D01*
X32802Y723643D01*
X32677Y723450D01*
X32546Y723260D01*
X32522Y723211D01*
X32492Y723165D01*
X32395Y722956D01*
X32293Y722750D01*
X32275Y722698D01*
X32252Y722648D01*
X32185Y722427D01*
X32113Y722209D01*
X32103Y722155D01*
X32087Y722103D01*
X32052Y721875D01*
X32010Y721649D01*
X32008Y721594D01*
X32000Y721540D01*
X31997Y721310D01*
X31987Y721079D01*
X31993Y721025D01*
X31992Y720970D01*
X32021Y720741D01*
X32044Y720512D01*
X32057Y720459D01*
X32064Y720405D01*
X32125Y720182D01*
X32180Y719959D01*
X32200Y719908D01*
X32214Y719855D01*
X32306Y719643D01*
X32391Y719430D01*
X32418Y719382D01*
X32440Y719332D01*
X32560Y719135D01*
X32675Y718936D01*
X32703Y718901D01*
X32737Y718846D01*
X33099Y718405D01*
X33147Y718361D01*
X33176Y718327D01*
X35952Y715551D01*
X37847Y710976D01*
X37847Y706024D01*
X35952Y701449D01*
X32451Y697948D01*
X27876Y696053D01*
X22924Y696053D01*
X18349Y697948D01*
X17097Y699201D01*
X17010Y699276D01*
X16930Y699359D01*
X16795Y699463D01*
X16667Y699574D01*
X16570Y699637D01*
X16479Y699707D01*
X16332Y699791D01*
X16189Y699884D01*
X16084Y699933D01*
X15984Y699990D01*
X15826Y700052D01*
X15672Y700124D01*
X15562Y700157D01*
X15455Y700200D01*
X15289Y700240D01*
X15127Y700289D01*
X15013Y700307D01*
X14901Y700334D01*
X14731Y700350D01*
X14564Y700376D01*
X14449Y700378D01*
X14334Y700389D01*
X14164Y700382D01*
X13994Y700384D01*
X13880Y700370D01*
X13764Y700365D01*
X13597Y700334D01*
X13429Y700312D01*
X13317Y700282D01*
X13204Y700261D01*
X13043Y700207D01*
X12879Y700162D01*
X12773Y700116D01*
X12664Y700079D01*
X12512Y700003D01*
X12356Y699936D01*
X12258Y699876D01*
X12155Y699824D01*
X12014Y699727D01*
X11870Y699639D01*
X11781Y699566D01*
X11686Y699500D01*
X11561Y699385D01*
X11429Y699277D01*
X11352Y699192D01*
X11267Y699114D01*
X11159Y698982D01*
X11044Y698857D01*
X10979Y698762D01*
X10906Y698673D01*
X10818Y698528D01*
X10722Y698388D01*
X10670Y698284D01*
X10611Y698186D01*
X10544Y698030D01*
X10468Y697877D01*
X10432Y697768D01*
X10386Y697662D01*
X10342Y697498D01*
X10288Y697337D01*
X10267Y697223D01*
X10237Y697112D01*
X10226Y696997D01*
X10186Y696776D01*
X10172Y696445D01*
X10161Y696327D01*
X10161Y669154D01*
X10169Y669039D01*
X10167Y668924D01*
X10189Y668756D01*
X10201Y668586D01*
X10225Y668473D01*
X10239Y668359D01*
X10284Y668195D01*
X10320Y668029D01*
X10359Y667920D01*
X10390Y667809D01*
X10457Y667653D01*
X10516Y667494D01*
X10570Y667392D01*
X10616Y667286D01*
X10704Y667141D01*
X10784Y666991D01*
X10852Y666898D01*
X10912Y666800D01*
X11021Y666668D01*
X11121Y666531D01*
X11201Y666449D01*
X11274Y666360D01*
X11400Y666245D01*
X11518Y666123D01*
X11609Y666052D01*
X11694Y665974D01*
X11834Y665878D01*
X11969Y665774D01*
X12069Y665717D01*
X12164Y665652D01*
X12316Y665576D01*
X12464Y665492D01*
X12571Y665449D01*
X12674Y665398D01*
X12835Y665345D01*
X12993Y665282D01*
X13106Y665255D01*
X13215Y665218D01*
X13382Y665188D01*
X13547Y665148D01*
X13662Y665137D01*
X13775Y665116D01*
X13945Y665109D01*
X14114Y665092D01*
X14229Y665097D01*
X14345Y665093D01*
X14514Y665110D01*
X14684Y665117D01*
X14797Y665138D01*
X14912Y665150D01*
X15077Y665190D01*
X15244Y665221D01*
X15353Y665258D01*
X15465Y665285D01*
X15623Y665348D01*
X15784Y665402D01*
X15887Y665454D01*
X15994Y665497D01*
X16141Y665581D01*
X16293Y665657D01*
X16388Y665723D01*
X16488Y665780D01*
X16577Y665853D01*
X16762Y665981D01*
X17006Y666206D01*
X17097Y666281D01*
X17622Y666806D01*
X19143Y667911D01*
X20817Y668764D01*
X21337Y668933D01*
X21337Y657700D01*
X21353Y657471D01*
X21363Y657241D01*
X21373Y657187D01*
X21377Y657132D01*
X21425Y656907D01*
X21467Y656681D01*
X21484Y656628D01*
X21496Y656575D01*
X21575Y656359D01*
X21648Y656140D01*
X21673Y656091D01*
X21691Y656040D01*
X21800Y655837D01*
X21903Y655631D01*
X21934Y655586D01*
X21960Y655537D01*
X22096Y655352D01*
X22227Y655162D01*
X22264Y655122D01*
X22297Y655077D01*
X22457Y654913D01*
X22613Y654743D01*
X22614Y654743D01*
X22656Y654708D01*
X22694Y654669D01*
X22695Y654669D01*
X22876Y654528D01*
X23055Y654382D01*
X23102Y654353D01*
X23145Y654320D01*
X23345Y654206D01*
X23542Y654086D01*
X23592Y654065D01*
X23640Y654038D01*
X23855Y653952D01*
X24066Y653862D01*
X24118Y653848D01*
X24170Y653827D01*
X24394Y653773D01*
X24616Y653713D01*
X24660Y653709D01*
X24724Y653693D01*
X25291Y653638D01*
X25356Y653641D01*
X25400Y653637D01*
X36633Y653637D01*
X36464Y653117D01*
X35611Y651443D01*
X34506Y649922D01*
X33106Y648522D01*
X33077Y648497D01*
X32873Y648330D01*
X32859Y648315D01*
X32844Y648302D01*
X32667Y648105D01*
X32488Y647910D01*
X32477Y647893D01*
X32463Y647878D01*
X32315Y647658D01*
X32166Y647441D01*
X32157Y647422D01*
X32145Y647405D01*
X32030Y647167D01*
X31912Y646931D01*
X31905Y646911D01*
X31896Y646892D01*
X31816Y646641D01*
X31732Y646390D01*
X31728Y646370D01*
X31722Y646350D01*
X31677Y646090D01*
X31630Y645829D01*
X31629Y645809D01*
X31625Y645788D01*
X31617Y645525D01*
X31607Y645260D01*
X31609Y645239D01*
X31608Y645219D01*
X31637Y644955D01*
X31663Y644693D01*
X31668Y644673D01*
X31671Y644652D01*
X31736Y644397D01*
X31799Y644140D01*
X31807Y644120D01*
X31812Y644100D01*
X31912Y643857D01*
X32011Y643611D01*
X32021Y643593D01*
X32029Y643574D01*
X32163Y643345D01*
X32294Y643116D01*
X32305Y643103D01*
X32317Y643082D01*
X32672Y642636D01*
X32751Y642561D01*
X32795Y642507D01*
X35952Y639351D01*
X37941Y634548D01*
X37977Y634356D01*
X37994Y634304D01*
X38006Y634250D01*
X38085Y634034D01*
X38158Y633816D01*
X38183Y633767D01*
X38202Y633715D01*
X38310Y633512D01*
X38413Y633307D01*
X38444Y633261D01*
X38470Y633213D01*
X38606Y633027D01*
X38737Y632838D01*
X38774Y632797D01*
X38807Y632753D01*
X38967Y632588D01*
X39123Y632419D01*
X39166Y632384D01*
X39204Y632345D01*
X39386Y632204D01*
X39564Y632058D01*
X39612Y632030D01*
X39655Y631996D01*
X39855Y631882D01*
X40052Y631763D01*
X40102Y631741D01*
X40150Y631714D01*
X40364Y631629D01*
X40575Y631538D01*
X40628Y631524D01*
X40679Y631504D01*
X40904Y631449D01*
X41125Y631389D01*
X41169Y631385D01*
X41233Y631369D01*
X41800Y631314D01*
X41866Y631317D01*
X41910Y631313D01*
X44950Y631313D01*
X45010Y631317D01*
X45071Y631315D01*
X45294Y631337D01*
X45518Y631353D01*
X45578Y631365D01*
X45638Y631371D01*
X45856Y631425D01*
X46076Y631472D01*
X46132Y631492D01*
X46191Y631507D01*
X46400Y631590D01*
X46611Y631668D01*
X46664Y631696D01*
X46720Y631718D01*
X46915Y631830D01*
X47113Y631936D01*
X47162Y631972D01*
X47214Y632002D01*
X47305Y632077D01*
X47573Y632273D01*
X47734Y632430D01*
X47823Y632503D01*
X48674Y633354D01*
X48768Y633400D01*
X48863Y633466D01*
X48963Y633523D01*
X49097Y633627D01*
X49237Y633724D01*
X49322Y633802D01*
X49413Y633873D01*
X49531Y633994D01*
X49656Y634109D01*
X49729Y634199D01*
X49810Y634281D01*
X49910Y634419D01*
X50018Y634550D01*
X50078Y634649D01*
X50146Y634742D01*
X50225Y634891D01*
X50314Y635037D01*
X50359Y635143D01*
X50414Y635245D01*
X50472Y635404D01*
X50539Y635560D01*
X50569Y635672D01*
X50609Y635780D01*
X50644Y635946D01*
X50689Y636110D01*
X50703Y636225D01*
X50727Y636337D01*
X50739Y636507D01*
X50760Y636675D01*
X50758Y636791D01*
X50766Y636906D01*
X50754Y637075D01*
X50751Y637245D01*
X50734Y637359D01*
X50725Y637474D01*
X50690Y637640D01*
X50663Y637808D01*
X50630Y637918D01*
X50606Y638031D01*
X50547Y638191D01*
X50497Y638353D01*
X50449Y638458D01*
X50409Y638566D01*
X50329Y638716D01*
X50257Y638870D01*
X50194Y638966D01*
X50139Y639068D01*
X50039Y639205D01*
X49946Y639347D01*
X49871Y639434D01*
X49802Y639527D01*
X49684Y639649D01*
X49572Y639777D01*
X49485Y639853D01*
X49404Y639935D01*
X49270Y640039D01*
X49142Y640150D01*
X49045Y640213D01*
X48953Y640283D01*
X48852Y640337D01*
X48663Y640459D01*
X48660Y640461D01*
X47756Y641364D01*
X47292Y642485D01*
X47292Y656715D01*
X47756Y657836D01*
X48674Y658754D01*
X48768Y658800D01*
X48863Y658866D01*
X48963Y658923D01*
X49097Y659027D01*
X49237Y659124D01*
X49322Y659202D01*
X49413Y659273D01*
X49531Y659394D01*
X49656Y659509D01*
X49729Y659599D01*
X49810Y659681D01*
X49910Y659819D01*
X50018Y659950D01*
X50078Y660049D01*
X50146Y660142D01*
X50225Y660291D01*
X50314Y660437D01*
X50359Y660543D01*
X50414Y660645D01*
X50472Y660804D01*
X50539Y660960D01*
X50569Y661072D01*
X50609Y661180D01*
X50644Y661346D01*
X50689Y661510D01*
X50703Y661625D01*
X50727Y661737D01*
X50739Y661907D01*
X50760Y662075D01*
X50758Y662191D01*
X50766Y662306D01*
X50754Y662475D01*
X50751Y662645D01*
X50734Y662759D01*
X50725Y662874D01*
X50690Y663040D01*
X50663Y663208D01*
X50630Y663318D01*
X50606Y663431D01*
X50547Y663591D01*
X50497Y663753D01*
X50449Y663858D01*
X50409Y663966D01*
X50329Y664116D01*
X50257Y664270D01*
X50194Y664366D01*
X50139Y664468D01*
X50039Y664605D01*
X49946Y664747D01*
X49871Y664834D01*
X49802Y664927D01*
X49684Y665049D01*
X49572Y665177D01*
X49485Y665253D01*
X49404Y665335D01*
X49270Y665439D01*
X49142Y665550D01*
X49045Y665613D01*
X48953Y665683D01*
X48852Y665737D01*
X48663Y665859D01*
X48660Y665861D01*
X47756Y666764D01*
X47292Y667885D01*
X47292Y682115D01*
X47756Y683236D01*
X48674Y684154D01*
X48768Y684200D01*
X48863Y684266D01*
X48963Y684323D01*
X49097Y684427D01*
X49237Y684524D01*
X49322Y684602D01*
X49413Y684673D01*
X49531Y684794D01*
X49656Y684909D01*
X49729Y684999D01*
X49810Y685081D01*
X49910Y685219D01*
X50018Y685350D01*
X50078Y685449D01*
X50146Y685542D01*
X50225Y685691D01*
X50314Y685837D01*
X50359Y685943D01*
X50414Y686045D01*
X50472Y686204D01*
X50539Y686360D01*
X50569Y686472D01*
X50609Y686580D01*
X50644Y686746D01*
X50689Y686910D01*
X50703Y687025D01*
X50727Y687137D01*
X50739Y687307D01*
X50760Y687475D01*
X50758Y687591D01*
X50766Y687706D01*
X50754Y687875D01*
X50751Y688045D01*
X50734Y688159D01*
X50725Y688274D01*
X50690Y688440D01*
X50663Y688608D01*
X50630Y688718D01*
X50606Y688831D01*
X50547Y688991D01*
X50497Y689153D01*
X50449Y689258D01*
X50409Y689366D01*
X50329Y689516D01*
X50257Y689670D01*
X50194Y689766D01*
X50139Y689868D01*
X50039Y690005D01*
X49946Y690147D01*
X49871Y690234D01*
X49802Y690327D01*
X49684Y690449D01*
X49572Y690577D01*
X49485Y690653D01*
X49404Y690735D01*
X49270Y690839D01*
X49142Y690950D01*
X49045Y691013D01*
X48953Y691083D01*
X48852Y691137D01*
X48663Y691259D01*
X48660Y691261D01*
X47756Y692164D01*
X47292Y693285D01*
X47292Y707515D01*
X47756Y708636D01*
X48614Y709494D01*
X49735Y709958D01*
X76065Y709958D01*
X77186Y709494D01*
X78044Y708636D01*
X78508Y707515D01*
X78508Y693285D01*
X78044Y692164D01*
X77126Y691246D01*
X77033Y691200D01*
X76938Y691134D01*
X76837Y691077D01*
X76703Y690973D01*
X76563Y690876D01*
X76478Y690798D01*
X76387Y690728D01*
X76269Y690606D01*
X76144Y690491D01*
X76071Y690401D01*
X75990Y690319D01*
X75890Y690182D01*
X75783Y690050D01*
X75723Y689952D01*
X75655Y689859D01*
X75575Y689709D01*
X75486Y689564D01*
X75441Y689457D01*
X75387Y689356D01*
X75328Y689196D01*
X75261Y689040D01*
X75231Y688929D01*
X75191Y688820D01*
X75156Y688654D01*
X75111Y688490D01*
X75097Y688376D01*
X75073Y688263D01*
X75061Y688093D01*
X75040Y687925D01*
X75042Y687810D01*
X75034Y687695D01*
X75046Y687525D01*
X75049Y687355D01*
X75066Y687241D01*
X75075Y687126D01*
X75110Y686960D01*
X75137Y686792D01*
X75170Y686682D01*
X75194Y686569D01*
X75253Y686410D01*
X75302Y686247D01*
X75351Y686143D01*
X75391Y686034D01*
X75471Y685885D01*
X75543Y685731D01*
X75606Y685634D01*
X75660Y685532D01*
X75761Y685395D01*
X75853Y685253D01*
X75929Y685166D01*
X75997Y685073D01*
X76116Y684951D01*
X76228Y684823D01*
X76315Y684748D01*
X76395Y684665D01*
X76530Y684561D01*
X76658Y684450D01*
X76755Y684388D01*
X76846Y684317D01*
X76948Y684263D01*
X77137Y684141D01*
X77140Y684139D01*
X78044Y683236D01*
X78508Y682115D01*
X78508Y667885D01*
X78044Y666764D01*
X77126Y665846D01*
X77033Y665800D01*
X76938Y665734D01*
X76837Y665677D01*
X76703Y665573D01*
X76563Y665476D01*
X76478Y665398D01*
X76387Y665328D01*
X76269Y665206D01*
X76144Y665091D01*
X76071Y665001D01*
X75990Y664919D01*
X75890Y664782D01*
X75783Y664650D01*
X75723Y664552D01*
X75655Y664459D01*
X75575Y664309D01*
X75486Y664164D01*
X75441Y664057D01*
X75387Y663956D01*
X75328Y663796D01*
X75261Y663640D01*
X75231Y663529D01*
X75191Y663420D01*
X75156Y663254D01*
X75111Y663090D01*
X75097Y662976D01*
X75073Y662863D01*
X75061Y662693D01*
X75040Y662525D01*
X75042Y662410D01*
X75034Y662295D01*
X75046Y662125D01*
X75049Y661955D01*
X75066Y661841D01*
X75075Y661726D01*
X75110Y661560D01*
X75137Y661392D01*
X75170Y661282D01*
X75194Y661169D01*
X75253Y661010D01*
X75302Y660847D01*
X75351Y660743D01*
X75391Y660634D01*
X75471Y660485D01*
X75543Y660331D01*
X75606Y660234D01*
X75660Y660132D01*
X75761Y659995D01*
X75853Y659853D01*
X75929Y659766D01*
X75997Y659673D01*
X76116Y659551D01*
X76228Y659423D01*
X76315Y659348D01*
X76395Y659265D01*
X76530Y659161D01*
X76658Y659050D01*
X76755Y658988D01*
X76846Y658917D01*
X76948Y658863D01*
X77137Y658741D01*
X77140Y658739D01*
X78044Y657836D01*
X78508Y656715D01*
X78508Y642485D01*
X78044Y641364D01*
X77126Y640446D01*
X77033Y640400D01*
X76938Y640334D01*
X76837Y640277D01*
X76703Y640173D01*
X76563Y640076D01*
X76478Y639998D01*
X76387Y639928D01*
X76269Y639806D01*
X76144Y639691D01*
X76071Y639601D01*
X75990Y639519D01*
X75890Y639382D01*
X75783Y639250D01*
X75723Y639152D01*
X75655Y639059D01*
X75575Y638909D01*
X75486Y638764D01*
X75441Y638657D01*
X75387Y638556D01*
X75328Y638396D01*
X75261Y638240D01*
X75231Y638129D01*
X75191Y638020D01*
X75156Y637854D01*
X75111Y637690D01*
X75097Y637576D01*
X75073Y637463D01*
X75061Y637293D01*
X75040Y637125D01*
X75042Y637010D01*
X75034Y636895D01*
X75046Y636725D01*
X75049Y636555D01*
X75066Y636441D01*
X75075Y636326D01*
X75110Y636160D01*
X75137Y635992D01*
X75170Y635882D01*
X75194Y635769D01*
X75253Y635610D01*
X75302Y635447D01*
X75351Y635343D01*
X75391Y635234D01*
X75471Y635085D01*
X75543Y634931D01*
X75606Y634834D01*
X75660Y634732D01*
X75761Y634595D01*
X75853Y634453D01*
X75929Y634366D01*
X75997Y634273D01*
X76116Y634151D01*
X76228Y634023D01*
X76315Y633948D01*
X76395Y633865D01*
X76530Y633761D01*
X76658Y633650D01*
X76755Y633588D01*
X76846Y633517D01*
X76948Y633463D01*
X77137Y633341D01*
X77140Y633339D01*
X77977Y632503D01*
X78022Y632463D01*
X78063Y632419D01*
X78237Y632277D01*
X78407Y632129D01*
X78458Y632096D01*
X78504Y632058D01*
X78697Y631941D01*
X78885Y631819D01*
X78940Y631794D01*
X78991Y631763D01*
X79198Y631674D01*
X79402Y631579D01*
X79460Y631562D01*
X79515Y631538D01*
X79732Y631480D01*
X79947Y631414D01*
X80007Y631405D01*
X80065Y631389D01*
X80182Y631378D01*
X80510Y631327D01*
X80735Y631324D01*
X80850Y631313D01*
X103015Y631313D01*
X105629Y630230D01*
X107630Y628229D01*
X108713Y625615D01*
X108713Y622785D01*
X107630Y620171D01*
X105629Y618170D01*
X103015Y617087D01*
X80850Y617087D01*
X80790Y617083D01*
X80729Y617085D01*
X80506Y617063D01*
X80282Y617047D01*
X80222Y617035D01*
X80162Y617029D01*
X79944Y616975D01*
X79724Y616928D01*
X79668Y616908D01*
X79609Y616893D01*
X79400Y616810D01*
X79189Y616732D01*
X79136Y616704D01*
X79080Y616682D01*
X78885Y616570D01*
X78687Y616464D01*
X78638Y616428D01*
X78586Y616398D01*
X78495Y616323D01*
X78227Y616127D01*
X78066Y615970D01*
X77977Y615897D01*
X77126Y615046D01*
X77033Y615000D01*
X76938Y614934D01*
X76837Y614877D01*
X76703Y614773D01*
X76563Y614676D01*
X76478Y614598D01*
X76387Y614528D01*
X76269Y614406D01*
X76144Y614291D01*
X76071Y614201D01*
X75990Y614119D01*
X75890Y613982D01*
X75783Y613850D01*
X75723Y613752D01*
X75655Y613659D01*
X75575Y613509D01*
X75486Y613364D01*
X75441Y613257D01*
X75387Y613156D01*
X75328Y612996D01*
X75261Y612840D01*
X75231Y612729D01*
X75191Y612620D01*
X75156Y612454D01*
X75111Y612290D01*
X75097Y612176D01*
X75073Y612063D01*
X75061Y611893D01*
X75040Y611725D01*
X75042Y611610D01*
X75034Y611495D01*
X75046Y611325D01*
X75049Y611155D01*
X75066Y611041D01*
X75075Y610926D01*
X75110Y610760D01*
X75137Y610592D01*
X75170Y610482D01*
X75194Y610369D01*
X75253Y610210D01*
X75302Y610047D01*
X75351Y609943D01*
X75391Y609834D01*
X75471Y609685D01*
X75543Y609531D01*
X75606Y609434D01*
X75660Y609332D01*
X75761Y609195D01*
X75853Y609053D01*
X75929Y608966D01*
X75997Y608873D01*
X76116Y608751D01*
X76228Y608623D01*
X76315Y608548D01*
X76395Y608465D01*
X76530Y608361D01*
X76658Y608250D01*
X76755Y608188D01*
X76846Y608117D01*
X76948Y608063D01*
X77137Y607941D01*
X77140Y607939D01*
X78044Y607036D01*
X78508Y605915D01*
X78508Y591685D01*
X78044Y590564D01*
X77126Y589646D01*
X77033Y589600D01*
X76938Y589534D01*
X76837Y589477D01*
X76703Y589373D01*
X76563Y589276D01*
X76478Y589198D01*
X76387Y589128D01*
X76269Y589006D01*
X76144Y588891D01*
X76071Y588801D01*
X75990Y588719D01*
X75890Y588582D01*
X75783Y588450D01*
X75723Y588352D01*
X75655Y588259D01*
X75575Y588109D01*
X75486Y587964D01*
X75441Y587857D01*
X75387Y587756D01*
X75328Y587596D01*
X75261Y587440D01*
X75231Y587329D01*
X75191Y587220D01*
X75156Y587054D01*
X75111Y586890D01*
X75097Y586776D01*
X75073Y586663D01*
X75061Y586493D01*
X75040Y586325D01*
X75042Y586210D01*
X75034Y586095D01*
X75046Y585925D01*
X75049Y585755D01*
X75066Y585641D01*
X75075Y585526D01*
X75110Y585360D01*
X75137Y585192D01*
X75170Y585082D01*
X75194Y584969D01*
X75253Y584810D01*
X75302Y584647D01*
X75351Y584543D01*
X75391Y584434D01*
X75471Y584285D01*
X75543Y584131D01*
X75606Y584034D01*
X75660Y583932D01*
X75761Y583795D01*
X75853Y583653D01*
X75929Y583566D01*
X75997Y583473D01*
X76116Y583351D01*
X76228Y583223D01*
X76315Y583148D01*
X76395Y583065D01*
X76530Y582961D01*
X76658Y582850D01*
X76755Y582788D01*
X76846Y582717D01*
X76948Y582663D01*
X77137Y582541D01*
X77140Y582539D01*
X77977Y581703D01*
X78022Y581663D01*
X78063Y581619D01*
X78237Y581477D01*
X78407Y581329D01*
X78458Y581296D01*
X78504Y581258D01*
X78697Y581141D01*
X78885Y581019D01*
X78940Y580994D01*
X78991Y580963D01*
X79198Y580874D01*
X79402Y580779D01*
X79460Y580762D01*
X79515Y580738D01*
X79732Y580680D01*
X79947Y580614D01*
X80007Y580605D01*
X80065Y580589D01*
X80182Y580578D01*
X80510Y580527D01*
X80735Y580524D01*
X80850Y580513D01*
X128415Y580513D01*
X131029Y579430D01*
X151051Y559408D01*
X151138Y559332D01*
X151218Y559250D01*
X151353Y559146D01*
X151481Y559034D01*
X151578Y558972D01*
X151669Y558901D01*
X151817Y558817D01*
X151959Y558725D01*
X152064Y558676D01*
X152164Y558619D01*
X152322Y558556D01*
X152476Y558485D01*
X152586Y558451D01*
X152693Y558409D01*
X152859Y558369D01*
X153021Y558319D01*
X153135Y558302D01*
X153247Y558275D01*
X153417Y558258D01*
X153584Y558232D01*
X153699Y558231D01*
X153814Y558219D01*
X153984Y558227D01*
G37*
G36*
X206488Y97917D02*
X206488Y97917D01*
X206548Y97915D01*
X206772Y97937D01*
X206996Y97953D01*
X207055Y97965D01*
X207115Y97971D01*
X207334Y98025D01*
X207553Y98072D01*
X207610Y98092D01*
X207668Y98107D01*
X207877Y98190D01*
X208088Y98268D01*
X208141Y98296D01*
X208197Y98318D01*
X208392Y98430D01*
X208590Y98536D01*
X208639Y98572D01*
X208691Y98602D01*
X208783Y98677D01*
X209050Y98873D01*
X209211Y99030D01*
X209300Y99103D01*
X210824Y100627D01*
X210976Y100801D01*
X211131Y100970D01*
X211162Y101016D01*
X211198Y101057D01*
X211323Y101250D01*
X211454Y101440D01*
X211478Y101489D01*
X211508Y101535D01*
X211605Y101744D01*
X211707Y101950D01*
X211725Y102002D01*
X211748Y102052D01*
X211815Y102273D01*
X211887Y102491D01*
X211897Y102545D01*
X211913Y102597D01*
X211948Y102825D01*
X211990Y103051D01*
X211992Y103106D01*
X212000Y103160D01*
X212003Y103390D01*
X212013Y103621D01*
X212007Y103675D01*
X212008Y103730D01*
X211979Y103958D01*
X211956Y104187D01*
X211943Y104241D01*
X211936Y104295D01*
X211875Y104517D01*
X211820Y104741D01*
X211800Y104792D01*
X211786Y104845D01*
X211694Y105056D01*
X211609Y105270D01*
X211582Y105318D01*
X211560Y105368D01*
X211440Y105564D01*
X211325Y105764D01*
X211297Y105799D01*
X211263Y105854D01*
X210901Y106294D01*
X210853Y106339D01*
X210825Y106373D01*
X208500Y108697D01*
X208455Y108737D01*
X208414Y108781D01*
X208240Y108923D01*
X208070Y109071D01*
X208020Y109104D01*
X207973Y109142D01*
X207781Y109259D01*
X207592Y109381D01*
X207537Y109406D01*
X207486Y109437D01*
X207279Y109526D01*
X207075Y109621D01*
X207017Y109638D01*
X206962Y109662D01*
X206745Y109720D01*
X206530Y109786D01*
X206470Y109795D01*
X206412Y109811D01*
X206295Y109822D01*
X205967Y109873D01*
X205742Y109876D01*
X205627Y109887D01*
X200585Y109887D01*
X197971Y110970D01*
X171770Y137171D01*
X170687Y139785D01*
X170687Y208165D01*
X170683Y208226D01*
X170685Y208286D01*
X170663Y208510D01*
X170647Y208734D01*
X170635Y208793D01*
X170629Y208853D01*
X170575Y209071D01*
X170528Y209291D01*
X170507Y209348D01*
X170493Y209406D01*
X170410Y209614D01*
X170332Y209826D01*
X170304Y209880D01*
X170282Y209935D01*
X170170Y210130D01*
X170064Y210329D01*
X170028Y210377D01*
X169998Y210430D01*
X169923Y210521D01*
X169727Y210788D01*
X169570Y210949D01*
X169497Y211039D01*
X168239Y212297D01*
X168178Y212350D01*
X168122Y212409D01*
X167963Y212537D01*
X167809Y212670D01*
X167741Y212715D01*
X167677Y212765D01*
X167502Y212870D01*
X167331Y212980D01*
X167257Y213014D01*
X167187Y213056D01*
X166998Y213135D01*
X166814Y213220D01*
X166736Y213244D01*
X166661Y213275D01*
X166463Y213326D01*
X166268Y213385D01*
X166188Y213398D01*
X166109Y213418D01*
X165907Y213441D01*
X165705Y213473D01*
X165624Y213474D01*
X165543Y213483D01*
X165339Y213478D01*
X165136Y213480D01*
X165055Y213470D01*
X164974Y213468D01*
X164773Y213434D01*
X164570Y213408D01*
X164492Y213387D01*
X164412Y213373D01*
X164217Y213312D01*
X164021Y213258D01*
X163946Y213226D01*
X163869Y213201D01*
X163685Y213113D01*
X163498Y213032D01*
X163428Y212990D01*
X163355Y212955D01*
X163186Y212842D01*
X163011Y212735D01*
X162948Y212684D01*
X162881Y212639D01*
X162729Y212503D01*
X162571Y212373D01*
X162516Y212313D01*
X162456Y212259D01*
X162324Y212104D01*
X162186Y211953D01*
X162140Y211886D01*
X162088Y211824D01*
X161979Y211652D01*
X161864Y211484D01*
X161827Y211411D01*
X161784Y211342D01*
X161700Y211156D01*
X161610Y210974D01*
X161584Y210897D01*
X161551Y210822D01*
X161520Y210704D01*
X161430Y210433D01*
X161383Y210176D01*
X161353Y210059D01*
X161251Y209416D01*
X160670Y207629D01*
X159817Y205955D01*
X158712Y204434D01*
X157384Y203106D01*
X155863Y202001D01*
X154189Y201148D01*
X153669Y200979D01*
X153669Y212212D01*
X153653Y212441D01*
X153643Y212671D01*
X153633Y212725D01*
X153629Y212780D01*
X153581Y213005D01*
X153539Y213231D01*
X153522Y213284D01*
X153510Y213337D01*
X153431Y213553D01*
X153358Y213772D01*
X153333Y213821D01*
X153315Y213872D01*
X153206Y214075D01*
X153103Y214281D01*
X153072Y214326D01*
X153046Y214375D01*
X152910Y214560D01*
X152779Y214750D01*
X152742Y214790D01*
X152709Y214835D01*
X152549Y214999D01*
X152393Y215169D01*
X152350Y215204D01*
X152312Y215243D01*
X152130Y215384D01*
X151952Y215530D01*
X151905Y215558D01*
X151861Y215592D01*
X151661Y215706D01*
X151465Y215825D01*
X151414Y215847D01*
X151366Y215874D01*
X151152Y215959D01*
X150941Y216049D01*
X150888Y216064D01*
X150837Y216084D01*
X150612Y216138D01*
X150391Y216198D01*
X150347Y216203D01*
X150283Y216218D01*
X149716Y216273D01*
X149650Y216271D01*
X149606Y216275D01*
X149376Y216259D01*
X149146Y216249D01*
X149092Y216239D01*
X149037Y216235D01*
X148812Y216187D01*
X148586Y216145D01*
X148534Y216127D01*
X148480Y216116D01*
X148264Y216037D01*
X148046Y215964D01*
X147997Y215939D01*
X147945Y215920D01*
X147742Y215811D01*
X147536Y215708D01*
X147491Y215677D01*
X147443Y215651D01*
X147257Y215516D01*
X147068Y215385D01*
X147027Y215347D01*
X146983Y215315D01*
X146818Y215155D01*
X146649Y214998D01*
X146614Y214956D01*
X146575Y214917D01*
X146434Y214736D01*
X146288Y214557D01*
X146259Y214510D01*
X146226Y214467D01*
X146112Y214267D01*
X145992Y214070D01*
X145971Y214020D01*
X145944Y213972D01*
X145858Y213757D01*
X145768Y213546D01*
X145754Y213494D01*
X145733Y213442D01*
X145679Y213218D01*
X145619Y212996D01*
X145615Y212952D01*
X145599Y212888D01*
X145544Y212321D01*
X145547Y212256D01*
X145543Y212212D01*
X145543Y200979D01*
X145023Y201148D01*
X143349Y202001D01*
X141580Y203286D01*
X141511Y203329D01*
X141447Y203379D01*
X141270Y203480D01*
X141097Y203588D01*
X141023Y203621D01*
X140952Y203661D01*
X140762Y203736D01*
X140576Y203819D01*
X140498Y203841D01*
X140423Y203871D01*
X140224Y203919D01*
X140028Y203975D01*
X139948Y203986D01*
X139869Y204005D01*
X139666Y204025D01*
X139464Y204053D01*
X139383Y204053D01*
X139302Y204060D01*
X139098Y204052D01*
X138894Y204051D01*
X138814Y204039D01*
X138732Y204036D01*
X138532Y203999D01*
X138330Y203969D01*
X138252Y203947D01*
X138172Y203932D01*
X137979Y203867D01*
X137783Y203810D01*
X137709Y203776D01*
X137632Y203751D01*
X137449Y203659D01*
X137264Y203575D01*
X137195Y203532D01*
X137123Y203495D01*
X136954Y203379D01*
X136783Y203270D01*
X136721Y203218D01*
X136654Y203172D01*
X136504Y203033D01*
X136349Y202901D01*
X136295Y202840D01*
X136235Y202785D01*
X136106Y202627D01*
X135970Y202475D01*
X135926Y202407D01*
X135874Y202344D01*
X135768Y202170D01*
X135656Y202000D01*
X135621Y201926D01*
X135579Y201857D01*
X135498Y201670D01*
X135411Y201486D01*
X135386Y201408D01*
X135354Y201333D01*
X135301Y201137D01*
X135240Y200942D01*
X135226Y200862D01*
X135205Y200783D01*
X135193Y200662D01*
X135147Y200380D01*
X135140Y200119D01*
X135129Y199999D01*
X135129Y160123D01*
X135137Y160008D01*
X135135Y159892D01*
X135157Y159724D01*
X135169Y159554D01*
X135193Y159441D01*
X135207Y159327D01*
X135252Y159163D01*
X135288Y158997D01*
X135327Y158889D01*
X135358Y158778D01*
X135425Y158622D01*
X135484Y158462D01*
X135538Y158360D01*
X135584Y158254D01*
X135672Y158109D01*
X135752Y157960D01*
X135820Y157867D01*
X135880Y157768D01*
X135989Y157637D01*
X136089Y157500D01*
X136169Y157417D01*
X136242Y157328D01*
X136368Y157213D01*
X136486Y157091D01*
X136577Y157021D01*
X136662Y156943D01*
X136803Y156847D01*
X136937Y156743D01*
X137037Y156686D01*
X137132Y156620D01*
X137284Y156545D01*
X137432Y156460D01*
X137539Y156418D01*
X137642Y156367D01*
X137803Y156313D01*
X137961Y156250D01*
X138073Y156223D01*
X138183Y156187D01*
X138350Y156156D01*
X138515Y156116D01*
X138630Y156105D01*
X138743Y156084D01*
X138913Y156077D01*
X139082Y156061D01*
X139197Y156066D01*
X139313Y156061D01*
X139482Y156078D01*
X139652Y156085D01*
X139765Y156106D01*
X139880Y156118D01*
X140045Y156158D01*
X140212Y156189D01*
X140321Y156226D01*
X140433Y156254D01*
X140591Y156317D01*
X140752Y156371D01*
X140855Y156422D01*
X140962Y156465D01*
X141109Y156550D01*
X141261Y156626D01*
X141356Y156691D01*
X141456Y156749D01*
X141545Y156822D01*
X141730Y156950D01*
X141975Y157175D01*
X142065Y157250D01*
X142555Y157740D01*
X147130Y159635D01*
X152082Y159635D01*
X156657Y157740D01*
X160158Y154239D01*
X162053Y149664D01*
X162053Y144712D01*
X160158Y140137D01*
X156657Y136636D01*
X152082Y134741D01*
X150622Y134741D01*
X150507Y134733D01*
X150392Y134735D01*
X150223Y134713D01*
X150054Y134701D01*
X149941Y134677D01*
X149827Y134663D01*
X149662Y134618D01*
X149496Y134582D01*
X149388Y134543D01*
X149277Y134512D01*
X149121Y134445D01*
X148961Y134386D01*
X148859Y134332D01*
X148754Y134286D01*
X148609Y134198D01*
X148459Y134118D01*
X148366Y134050D01*
X148267Y133990D01*
X148136Y133882D01*
X147999Y133781D01*
X147916Y133701D01*
X147827Y133628D01*
X147713Y133503D01*
X147591Y133384D01*
X147520Y133293D01*
X147442Y133208D01*
X147346Y133068D01*
X147242Y132933D01*
X147185Y132833D01*
X147120Y132738D01*
X147044Y132586D01*
X146960Y132438D01*
X146917Y132331D01*
X146866Y132228D01*
X146812Y132067D01*
X146749Y131909D01*
X146722Y131796D01*
X146686Y131687D01*
X146655Y131520D01*
X146615Y131355D01*
X146604Y131240D01*
X146583Y131127D01*
X146577Y130957D01*
X146560Y130788D01*
X146565Y130673D01*
X146560Y130557D01*
X146577Y130388D01*
X146585Y130218D01*
X146606Y130105D01*
X146617Y129991D01*
X146658Y129825D01*
X146689Y129658D01*
X146725Y129549D01*
X146753Y129437D01*
X146816Y129279D01*
X146870Y129118D01*
X146922Y129015D01*
X146964Y128908D01*
X147049Y128761D01*
X147125Y128609D01*
X147191Y128514D01*
X147248Y128414D01*
X147321Y128325D01*
X147449Y128140D01*
X147674Y127896D01*
X147749Y127805D01*
X176451Y99103D01*
X176496Y99063D01*
X176537Y99019D01*
X176711Y98877D01*
X176881Y98729D01*
X176932Y98696D01*
X176978Y98658D01*
X177171Y98541D01*
X177359Y98419D01*
X177414Y98394D01*
X177466Y98363D01*
X177672Y98274D01*
X177876Y98179D01*
X177934Y98162D01*
X177989Y98138D01*
X178206Y98080D01*
X178421Y98014D01*
X178481Y98005D01*
X178539Y97989D01*
X178656Y97978D01*
X178984Y97927D01*
X179209Y97924D01*
X179324Y97913D01*
X206427Y97913D01*
X206488Y97917D01*
G37*
G36*
X129384Y720271D02*
X129384Y720271D01*
X129554Y720269D01*
X129668Y720284D01*
X129784Y720289D01*
X129951Y720320D01*
X130119Y720341D01*
X130231Y720372D01*
X130344Y720393D01*
X130505Y720447D01*
X130669Y720492D01*
X130775Y720537D01*
X130884Y720574D01*
X131036Y720650D01*
X131192Y720718D01*
X131290Y720778D01*
X131393Y720829D01*
X131533Y720926D01*
X131678Y721014D01*
X131767Y721087D01*
X131862Y721153D01*
X131987Y721268D01*
X132119Y721376D01*
X132196Y721461D01*
X132281Y721539D01*
X132389Y721671D01*
X132504Y721796D01*
X132569Y721891D01*
X132642Y721980D01*
X132730Y722126D01*
X132826Y722266D01*
X132878Y722369D01*
X132937Y722468D01*
X133004Y722624D01*
X133080Y722776D01*
X133116Y722885D01*
X133162Y722991D01*
X133206Y723155D01*
X133260Y723317D01*
X133281Y723430D01*
X133311Y723541D01*
X133322Y723656D01*
X133362Y723877D01*
X133376Y724209D01*
X133387Y724326D01*
X133387Y751727D01*
X133383Y751788D01*
X133385Y751848D01*
X133363Y752071D01*
X133347Y752296D01*
X133335Y752355D01*
X133329Y752415D01*
X133275Y752633D01*
X133228Y752853D01*
X133208Y752910D01*
X133193Y752968D01*
X133110Y753177D01*
X133032Y753388D01*
X133004Y753441D01*
X132982Y753497D01*
X132870Y753692D01*
X132764Y753890D01*
X132728Y753939D01*
X132698Y753992D01*
X132623Y754083D01*
X132427Y754350D01*
X132270Y754511D01*
X132197Y754601D01*
X130293Y756505D01*
X130092Y756679D01*
X129895Y756854D01*
X129878Y756865D01*
X129862Y756879D01*
X129641Y757022D01*
X129420Y757168D01*
X129401Y757177D01*
X129384Y757189D01*
X129146Y757299D01*
X128906Y757414D01*
X128886Y757420D01*
X128867Y757428D01*
X128614Y757505D01*
X128362Y757584D01*
X128342Y757588D01*
X128322Y757594D01*
X128062Y757634D01*
X127800Y757677D01*
X127779Y757678D01*
X127759Y757681D01*
X127495Y757685D01*
X127231Y757691D01*
X127210Y757688D01*
X127189Y757689D01*
X126926Y757655D01*
X126665Y757625D01*
X126645Y757619D01*
X126624Y757617D01*
X126368Y757546D01*
X126114Y757480D01*
X126095Y757472D01*
X126074Y757466D01*
X125831Y757361D01*
X125588Y757259D01*
X125570Y757249D01*
X125551Y757240D01*
X125325Y757103D01*
X125099Y756967D01*
X125083Y756954D01*
X125065Y756944D01*
X124861Y756776D01*
X124655Y756610D01*
X124644Y756597D01*
X124625Y756582D01*
X124240Y756162D01*
X124227Y756143D01*
X122878Y754794D01*
X121357Y753689D01*
X119683Y752836D01*
X119163Y752667D01*
X119163Y763900D01*
X119147Y764129D01*
X119137Y764359D01*
X119127Y764413D01*
X119123Y764468D01*
X119075Y764693D01*
X119033Y764919D01*
X119016Y764972D01*
X119004Y765025D01*
X118925Y765241D01*
X118852Y765460D01*
X118827Y765509D01*
X118809Y765560D01*
X118700Y765763D01*
X118597Y765969D01*
X118566Y766014D01*
X118540Y766063D01*
X118404Y766248D01*
X118273Y766438D01*
X118236Y766478D01*
X118203Y766523D01*
X118043Y766687D01*
X117887Y766857D01*
X117844Y766892D01*
X117806Y766931D01*
X117624Y767072D01*
X117446Y767218D01*
X117399Y767246D01*
X117355Y767280D01*
X117155Y767394D01*
X116959Y767513D01*
X116908Y767535D01*
X116860Y767562D01*
X116646Y767647D01*
X116435Y767737D01*
X116382Y767752D01*
X116331Y767772D01*
X116106Y767826D01*
X115885Y767886D01*
X115841Y767891D01*
X115777Y767906D01*
X115210Y767961D01*
X115144Y767959D01*
X115100Y767963D01*
X114870Y767947D01*
X114640Y767937D01*
X114586Y767927D01*
X114531Y767923D01*
X114306Y767875D01*
X114080Y767833D01*
X114028Y767815D01*
X113974Y767804D01*
X113758Y767725D01*
X113540Y767652D01*
X113491Y767627D01*
X113439Y767608D01*
X113236Y767499D01*
X113030Y767396D01*
X112985Y767365D01*
X112937Y767339D01*
X112751Y767204D01*
X112562Y767073D01*
X112521Y767035D01*
X112477Y767003D01*
X112312Y766843D01*
X112143Y766686D01*
X112108Y766644D01*
X112069Y766605D01*
X111928Y766424D01*
X111782Y766245D01*
X111753Y766198D01*
X111720Y766155D01*
X111606Y765955D01*
X111486Y765758D01*
X111465Y765708D01*
X111438Y765660D01*
X111352Y765445D01*
X111262Y765234D01*
X111248Y765182D01*
X111227Y765130D01*
X111173Y764906D01*
X111113Y764684D01*
X111109Y764640D01*
X111093Y764576D01*
X111038Y764009D01*
X111041Y763944D01*
X111037Y763900D01*
X111037Y752667D01*
X110517Y752836D01*
X108843Y753689D01*
X107322Y754794D01*
X105922Y756194D01*
X105897Y756223D01*
X105730Y756427D01*
X105715Y756441D01*
X105702Y756456D01*
X105505Y756633D01*
X105310Y756812D01*
X105293Y756823D01*
X105278Y756837D01*
X105058Y756985D01*
X104841Y757134D01*
X104822Y757143D01*
X104805Y757155D01*
X104567Y757270D01*
X104331Y757388D01*
X104311Y757395D01*
X104292Y757404D01*
X104041Y757484D01*
X103790Y757568D01*
X103770Y757572D01*
X103750Y757578D01*
X103490Y757623D01*
X103229Y757670D01*
X103209Y757671D01*
X103188Y757675D01*
X102925Y757683D01*
X102660Y757693D01*
X102639Y757691D01*
X102619Y757692D01*
X102355Y757663D01*
X102093Y757637D01*
X102073Y757632D01*
X102052Y757629D01*
X101797Y757564D01*
X101540Y757501D01*
X101520Y757493D01*
X101500Y757488D01*
X101257Y757388D01*
X101011Y757289D01*
X100993Y757279D01*
X100974Y757271D01*
X100745Y757137D01*
X100516Y757006D01*
X100503Y756995D01*
X100482Y756983D01*
X100036Y756628D01*
X99961Y756549D01*
X99907Y756505D01*
X96751Y753348D01*
X92176Y751453D01*
X87224Y751453D01*
X86559Y751729D01*
X86459Y751762D01*
X86417Y751780D01*
X86375Y751791D01*
X86235Y751847D01*
X86125Y751874D01*
X86019Y751909D01*
X85849Y751941D01*
X85681Y751981D01*
X85569Y751992D01*
X85458Y752013D01*
X85286Y752020D01*
X85114Y752037D01*
X85001Y752032D01*
X84889Y752037D01*
X84717Y752020D01*
X84544Y752012D01*
X84434Y751992D01*
X84322Y751980D01*
X84154Y751940D01*
X83984Y751908D01*
X83878Y751872D01*
X83768Y751846D01*
X83608Y751782D01*
X83444Y751727D01*
X83343Y751676D01*
X83239Y751635D01*
X83089Y751549D01*
X82935Y751472D01*
X82842Y751408D01*
X82744Y751352D01*
X82608Y751246D01*
X82466Y751148D01*
X82383Y751071D01*
X82294Y751003D01*
X82174Y750879D01*
X82047Y750762D01*
X81976Y750674D01*
X81897Y750594D01*
X81796Y750454D01*
X81686Y750320D01*
X81628Y750224D01*
X81561Y750133D01*
X81480Y749981D01*
X81391Y749833D01*
X81346Y749730D01*
X81293Y749631D01*
X81234Y749468D01*
X81166Y749310D01*
X81137Y749201D01*
X81098Y749095D01*
X81062Y748926D01*
X81017Y748760D01*
X81009Y748675D01*
X80980Y748538D01*
X80957Y748200D01*
X80942Y748052D01*
X80944Y748014D01*
X80942Y747988D01*
X80941Y747975D01*
X80941Y746863D01*
X73400Y746863D01*
X73171Y746847D01*
X72941Y746837D01*
X72887Y746827D01*
X72832Y746823D01*
X72607Y746775D01*
X72381Y746733D01*
X72328Y746716D01*
X72275Y746704D01*
X72059Y746625D01*
X71840Y746552D01*
X71791Y746527D01*
X71740Y746509D01*
X71537Y746400D01*
X71331Y746297D01*
X71286Y746266D01*
X71237Y746240D01*
X71052Y746104D01*
X70862Y745973D01*
X70822Y745936D01*
X70777Y745903D01*
X70613Y745743D01*
X70443Y745587D01*
X70408Y745544D01*
X70369Y745506D01*
X70228Y745324D01*
X70082Y745146D01*
X70054Y745099D01*
X70020Y745055D01*
X69906Y744855D01*
X69787Y744659D01*
X69765Y744608D01*
X69738Y744560D01*
X69653Y744346D01*
X69563Y744135D01*
X69548Y744082D01*
X69528Y744031D01*
X69474Y743806D01*
X69414Y743585D01*
X69409Y743541D01*
X69394Y743477D01*
X69339Y742910D01*
X69341Y742859D01*
X69341Y742844D01*
X69337Y742800D01*
X69353Y742570D01*
X69363Y742340D01*
X69373Y742286D01*
X69377Y742231D01*
X69425Y742006D01*
X69467Y741780D01*
X69485Y741728D01*
X69496Y741674D01*
X69575Y741458D01*
X69648Y741240D01*
X69673Y741191D01*
X69692Y741139D01*
X69801Y740936D01*
X69904Y740730D01*
X69935Y740685D01*
X69961Y740637D01*
X70096Y740451D01*
X70227Y740262D01*
X70265Y740221D01*
X70297Y740177D01*
X70457Y740012D01*
X70614Y739843D01*
X70656Y739808D01*
X70695Y739769D01*
X70877Y739628D01*
X71055Y739482D01*
X71102Y739453D01*
X71145Y739420D01*
X71345Y739306D01*
X71542Y739186D01*
X71592Y739165D01*
X71640Y739138D01*
X71855Y739052D01*
X72066Y738962D01*
X72118Y738948D01*
X72170Y738927D01*
X72394Y738873D01*
X72616Y738813D01*
X72660Y738809D01*
X72724Y738793D01*
X73291Y738738D01*
X73356Y738741D01*
X73400Y738737D01*
X80941Y738737D01*
X80941Y737352D01*
X80957Y737123D01*
X80967Y736892D01*
X80977Y736838D01*
X80981Y736784D01*
X81029Y736558D01*
X81071Y736332D01*
X81088Y736280D01*
X81100Y736226D01*
X81179Y736010D01*
X81252Y735792D01*
X81277Y735743D01*
X81296Y735691D01*
X81404Y735488D01*
X81507Y735283D01*
X81538Y735237D01*
X81564Y735189D01*
X81700Y735003D01*
X81831Y734814D01*
X81868Y734773D01*
X81901Y734729D01*
X82061Y734564D01*
X82217Y734395D01*
X82260Y734360D01*
X82298Y734321D01*
X82480Y734180D01*
X82658Y734034D01*
X82706Y734006D01*
X82749Y733972D01*
X82949Y733858D01*
X83146Y733739D01*
X83196Y733717D01*
X83244Y733690D01*
X83458Y733605D01*
X83669Y733514D01*
X83722Y733500D01*
X83773Y733480D01*
X83998Y733425D01*
X84219Y733365D01*
X84263Y733361D01*
X84327Y733345D01*
X84894Y733290D01*
X84960Y733293D01*
X85004Y733289D01*
X113412Y733289D01*
X115466Y732438D01*
X117609Y730294D01*
X126451Y721453D01*
X126538Y721377D01*
X126618Y721295D01*
X126753Y721191D01*
X126881Y721079D01*
X126978Y721016D01*
X127069Y720946D01*
X127217Y720862D01*
X127359Y720769D01*
X127464Y720721D01*
X127564Y720664D01*
X127722Y720601D01*
X127876Y720529D01*
X127986Y720496D01*
X128093Y720453D01*
X128259Y720413D01*
X128421Y720364D01*
X128535Y720347D01*
X128647Y720319D01*
X128817Y720303D01*
X128984Y720277D01*
X129099Y720275D01*
X129214Y720264D01*
X129384Y720271D01*
G37*
G36*
X25630Y549353D02*
X25630Y549353D01*
X25860Y549363D01*
X25914Y549373D01*
X25969Y549377D01*
X26194Y549425D01*
X26420Y549467D01*
X26472Y549485D01*
X26526Y549496D01*
X26742Y549575D01*
X26960Y549648D01*
X27009Y549673D01*
X27061Y549692D01*
X27264Y549801D01*
X27470Y549904D01*
X27515Y549935D01*
X27563Y549961D01*
X27749Y550096D01*
X27938Y550227D01*
X27979Y550265D01*
X28023Y550297D01*
X28188Y550457D01*
X28357Y550614D01*
X28392Y550656D01*
X28431Y550695D01*
X28572Y550876D01*
X28718Y551055D01*
X28747Y551102D01*
X28780Y551145D01*
X28894Y551345D01*
X29013Y551542D01*
X29035Y551592D01*
X29062Y551640D01*
X29148Y551855D01*
X29238Y552066D01*
X29252Y552118D01*
X29273Y552170D01*
X29327Y552394D01*
X29387Y552616D01*
X29391Y552660D01*
X29407Y552724D01*
X29462Y553291D01*
X29459Y553356D01*
X29463Y553400D01*
X29463Y564633D01*
X29478Y564628D01*
X29491Y564625D01*
X29503Y564620D01*
X29768Y564556D01*
X30031Y564490D01*
X30044Y564489D01*
X30057Y564486D01*
X30329Y564459D01*
X30598Y564431D01*
X30611Y564432D01*
X30624Y564431D01*
X30898Y564442D01*
X31167Y564452D01*
X31180Y564455D01*
X31194Y564455D01*
X31461Y564505D01*
X31728Y564553D01*
X31741Y564557D01*
X31754Y564559D01*
X32011Y564645D01*
X32270Y564730D01*
X32281Y564736D01*
X32294Y564740D01*
X32538Y564863D01*
X32781Y564982D01*
X32792Y564990D01*
X32803Y564996D01*
X33029Y565151D01*
X33252Y565303D01*
X33261Y565312D01*
X33272Y565319D01*
X33473Y565505D01*
X33673Y565687D01*
X33681Y565697D01*
X33691Y565706D01*
X33865Y565918D01*
X34037Y566125D01*
X34043Y566136D01*
X34052Y566147D01*
X34193Y566379D01*
X34335Y566611D01*
X34341Y566623D01*
X34347Y566634D01*
X34453Y566880D01*
X34563Y567133D01*
X34567Y567146D01*
X34572Y567158D01*
X34642Y567418D01*
X34716Y567682D01*
X34717Y567695D01*
X34721Y567708D01*
X34726Y567760D01*
X34790Y568247D01*
X34788Y568401D01*
X34797Y568492D01*
X34797Y585761D01*
X34793Y585821D01*
X34795Y585881D01*
X34773Y586105D01*
X34757Y586329D01*
X34745Y586388D01*
X34739Y586448D01*
X34685Y586667D01*
X34638Y586886D01*
X34618Y586943D01*
X34603Y587002D01*
X34520Y587210D01*
X34442Y587421D01*
X34414Y587475D01*
X34392Y587531D01*
X34280Y587726D01*
X34174Y587924D01*
X34138Y587973D01*
X34108Y588025D01*
X34033Y588116D01*
X33837Y588384D01*
X33680Y588545D01*
X33607Y588634D01*
X28978Y593263D01*
X28932Y593303D01*
X28891Y593347D01*
X28717Y593489D01*
X28548Y593637D01*
X28497Y593670D01*
X28450Y593708D01*
X28258Y593825D01*
X28070Y593947D01*
X28015Y593972D01*
X27963Y594003D01*
X27757Y594092D01*
X27553Y594187D01*
X27495Y594204D01*
X27439Y594228D01*
X27223Y594286D01*
X27007Y594352D01*
X26948Y594361D01*
X26889Y594377D01*
X26772Y594388D01*
X26444Y594439D01*
X26219Y594442D01*
X26105Y594453D01*
X22924Y594453D01*
X18349Y596348D01*
X17097Y597601D01*
X17010Y597676D01*
X16930Y597759D01*
X16795Y597863D01*
X16667Y597974D01*
X16570Y598037D01*
X16479Y598107D01*
X16332Y598191D01*
X16189Y598284D01*
X16084Y598333D01*
X15984Y598390D01*
X15826Y598452D01*
X15672Y598524D01*
X15562Y598557D01*
X15455Y598600D01*
X15289Y598640D01*
X15127Y598689D01*
X15013Y598707D01*
X14901Y598734D01*
X14731Y598750D01*
X14564Y598776D01*
X14449Y598778D01*
X14334Y598789D01*
X14164Y598782D01*
X13994Y598784D01*
X13880Y598770D01*
X13764Y598765D01*
X13597Y598734D01*
X13429Y598712D01*
X13317Y598682D01*
X13204Y598661D01*
X13043Y598607D01*
X12879Y598562D01*
X12773Y598516D01*
X12664Y598479D01*
X12512Y598403D01*
X12356Y598336D01*
X12258Y598276D01*
X12155Y598224D01*
X12014Y598127D01*
X11870Y598039D01*
X11781Y597966D01*
X11686Y597900D01*
X11561Y597785D01*
X11429Y597677D01*
X11352Y597592D01*
X11267Y597514D01*
X11159Y597382D01*
X11044Y597257D01*
X10979Y597162D01*
X10906Y597073D01*
X10818Y596928D01*
X10722Y596788D01*
X10670Y596684D01*
X10611Y596586D01*
X10544Y596430D01*
X10468Y596277D01*
X10432Y596168D01*
X10386Y596062D01*
X10342Y595898D01*
X10288Y595737D01*
X10267Y595623D01*
X10237Y595512D01*
X10226Y595397D01*
X10186Y595176D01*
X10172Y594845D01*
X10161Y594727D01*
X10161Y564854D01*
X10169Y564739D01*
X10167Y564624D01*
X10189Y564456D01*
X10201Y564286D01*
X10225Y564173D01*
X10239Y564059D01*
X10284Y563895D01*
X10320Y563729D01*
X10359Y563620D01*
X10390Y563509D01*
X10457Y563353D01*
X10516Y563194D01*
X10570Y563092D01*
X10616Y562986D01*
X10704Y562841D01*
X10784Y562691D01*
X10852Y562598D01*
X10912Y562500D01*
X11021Y562368D01*
X11121Y562231D01*
X11201Y562149D01*
X11274Y562060D01*
X11400Y561945D01*
X11518Y561823D01*
X11609Y561752D01*
X11694Y561674D01*
X11834Y561578D01*
X11969Y561474D01*
X12069Y561417D01*
X12164Y561352D01*
X12316Y561276D01*
X12464Y561192D01*
X12571Y561149D01*
X12674Y561098D01*
X12835Y561045D01*
X12993Y560982D01*
X13106Y560955D01*
X13215Y560918D01*
X13382Y560888D01*
X13547Y560848D01*
X13662Y560837D01*
X13775Y560816D01*
X13945Y560809D01*
X14114Y560792D01*
X14229Y560797D01*
X14345Y560793D01*
X14514Y560810D01*
X14684Y560817D01*
X14797Y560838D01*
X14912Y560850D01*
X15077Y560890D01*
X15244Y560921D01*
X15353Y560958D01*
X15465Y560985D01*
X15623Y561048D01*
X15784Y561102D01*
X15887Y561154D01*
X15994Y561197D01*
X16141Y561281D01*
X16293Y561357D01*
X16388Y561423D01*
X16488Y561480D01*
X16577Y561553D01*
X16762Y561681D01*
X17006Y561906D01*
X17097Y561981D01*
X17622Y562506D01*
X19143Y563611D01*
X20817Y564464D01*
X21337Y564633D01*
X21337Y553400D01*
X21353Y553171D01*
X21363Y552941D01*
X21373Y552887D01*
X21377Y552832D01*
X21425Y552607D01*
X21467Y552381D01*
X21484Y552328D01*
X21496Y552275D01*
X21575Y552059D01*
X21648Y551840D01*
X21673Y551791D01*
X21691Y551740D01*
X21800Y551537D01*
X21903Y551331D01*
X21934Y551286D01*
X21960Y551237D01*
X22096Y551052D01*
X22227Y550862D01*
X22264Y550822D01*
X22297Y550777D01*
X22457Y550613D01*
X22613Y550443D01*
X22656Y550408D01*
X22694Y550369D01*
X22876Y550228D01*
X23054Y550082D01*
X23101Y550054D01*
X23145Y550020D01*
X23345Y549906D01*
X23541Y549787D01*
X23592Y549765D01*
X23640Y549738D01*
X23854Y549653D01*
X24065Y549563D01*
X24118Y549548D01*
X24169Y549528D01*
X24394Y549474D01*
X24615Y549414D01*
X24659Y549409D01*
X24723Y549394D01*
X25290Y549339D01*
X25356Y549341D01*
X25400Y549337D01*
X25630Y549353D01*
G37*
%LPC*%
G36*
X29463Y661763D02*
X29463Y661763D01*
X29463Y668933D01*
X29983Y668764D01*
X31657Y667911D01*
X33178Y666806D01*
X34506Y665478D01*
X35611Y663957D01*
X36464Y662283D01*
X36633Y661763D01*
X29463Y661763D01*
G37*
%LPD*%
%LPC*%
G36*
X54863Y69463D02*
X54863Y69463D01*
X54863Y76633D01*
X55383Y76464D01*
X57057Y75611D01*
X58578Y74506D01*
X59906Y73178D01*
X61011Y71657D01*
X61864Y69983D01*
X62033Y69463D01*
X54863Y69463D01*
G37*
%LPD*%
%LPC*%
G36*
X163563Y74037D02*
X163563Y74037D01*
X170733Y74037D01*
X170564Y73517D01*
X169711Y71843D01*
X168606Y70322D01*
X167278Y68994D01*
X165757Y67889D01*
X164083Y67036D01*
X163563Y66867D01*
X163563Y74037D01*
G37*
%LPD*%
%LPC*%
G36*
X154917Y67036D02*
X154917Y67036D01*
X153243Y67889D01*
X151722Y68994D01*
X150394Y70322D01*
X149289Y71843D01*
X148436Y73517D01*
X148267Y74037D01*
X155437Y74037D01*
X155437Y66867D01*
X154917Y67036D01*
G37*
%LPD*%
D10*
X218600Y268600D03*
X193200Y268600D03*
X218600Y90800D03*
X218600Y116200D03*
X218600Y141600D03*
X218600Y167000D03*
X218600Y192400D03*
X218600Y217800D03*
X25400Y65400D03*
X50800Y65400D03*
X89700Y763900D03*
X115100Y763900D03*
X140500Y763900D03*
X165900Y763900D03*
X191300Y763900D03*
X25400Y606900D03*
X25400Y632300D03*
X25400Y657700D03*
X25400Y708500D03*
X25400Y733900D03*
X25400Y553400D03*
X25400Y528000D03*
X25400Y502600D03*
X25400Y477200D03*
X25400Y451800D03*
X25400Y426400D03*
D11*
X63900Y764800D03*
X73400Y742800D03*
X54400Y742800D03*
D10*
X149606Y212212D03*
X149606Y147188D03*
X104394Y212212D03*
X104394Y147188D03*
D12*
X62900Y700400D03*
X62900Y675000D03*
X62900Y649600D03*
X62900Y624200D03*
X62900Y598800D03*
X62900Y573400D03*
X62900Y548000D03*
X62900Y522600D03*
X62900Y497200D03*
X62900Y471800D03*
X62900Y446400D03*
X62900Y421000D03*
X62900Y395600D03*
X62900Y370200D03*
X62900Y344800D03*
X221900Y344800D03*
X221900Y370200D03*
X221900Y395600D03*
X221900Y421000D03*
X221900Y446400D03*
X221900Y471800D03*
X221900Y497200D03*
X221900Y522600D03*
X221900Y548000D03*
X221900Y573400D03*
X221900Y598800D03*
X221900Y624200D03*
X221900Y649600D03*
X221900Y675000D03*
X221900Y700400D03*
D10*
X159500Y78100D03*
X94500Y78100D03*
D13*
X114300Y700400D03*
X139700Y624200D03*
X88900Y319400D03*
X139700Y179700D03*
X127000Y78100D03*
D14*
X62900Y344800D02*
X47500Y344800D01*
X38100Y335400D01*
X38100Y268600D01*
D13*
X38100Y268600D03*
D15*
X140500Y719500D02*
X140500Y763900D01*
X140500Y719500D02*
X210400Y649600D01*
X221900Y649600D01*
X221900Y675000D02*
X205900Y675000D01*
X165900Y715000D02*
X165900Y763900D01*
X165900Y715000D02*
X205900Y675000D01*
X191300Y716000D02*
X191300Y763900D01*
X206900Y700400D02*
X221900Y700400D01*
X206900Y700400D02*
X191300Y716000D01*
X76200Y421000D02*
X62900Y421000D01*
X35400Y528000D02*
X41910Y534510D01*
X35400Y528000D02*
X25400Y528000D01*
X41910Y590390D02*
X25400Y606900D01*
X41910Y590390D02*
X41910Y534510D01*
X87571Y498000D02*
X87571Y485300D01*
X87571Y432371D02*
X76200Y421000D01*
X87571Y432371D02*
X87571Y498000D01*
D13*
X87571Y498000D03*
D15*
X104571Y515000D01*
X140000Y515000D01*
D13*
X140000Y515000D03*
D15*
X62900Y624200D02*
X33500Y624200D01*
X25400Y632300D01*
X62900Y624200D02*
X101600Y624200D01*
D13*
X101600Y624200D03*
D15*
X32900Y502600D02*
X25400Y502600D01*
X32900Y502600D02*
X52900Y522600D01*
X62900Y522600D01*
X52900Y497200D02*
X32900Y477200D01*
X25400Y477200D01*
X52900Y497200D02*
X62900Y497200D01*
X203200Y471800D02*
X221900Y471800D01*
D13*
X203200Y471800D03*
D15*
X218600Y278600D02*
X218600Y268600D01*
X218600Y278600D02*
X200500Y296700D01*
X200500Y436000D02*
X210900Y446400D01*
X221900Y446400D01*
X200500Y436000D02*
X200500Y296700D01*
D13*
X203200Y573400D03*
D15*
X221900Y573400D01*
X127000Y573400D02*
X62900Y573400D01*
X127000Y573400D02*
X152400Y548000D01*
X142748Y247847D02*
X177800Y212795D01*
X142748Y247847D02*
X142748Y481059D01*
X152400Y490711D01*
X152400Y548000D01*
X177800Y212795D02*
X177800Y141200D01*
X202000Y117000D02*
X217800Y117000D01*
X218600Y116200D01*
X202000Y117000D02*
X177800Y141200D01*
D16*
X65000Y727700D02*
X54400Y738300D01*
X54400Y742800D01*
X65000Y727700D02*
X112300Y727700D01*
X195800Y624200D02*
X221900Y624200D01*
X195800Y624200D02*
X189220Y630780D01*
X189220Y650780D02*
X112300Y727700D01*
X189220Y650780D02*
X189220Y630780D01*
D15*
X190500Y497200D02*
X165100Y471800D01*
X190500Y497200D02*
X221900Y497200D01*
X165100Y259005D02*
X201676Y222429D01*
X201676Y206624D02*
X215900Y192400D01*
X201676Y206624D02*
X201676Y222429D01*
X215900Y192400D02*
X218600Y192400D01*
X165100Y259005D02*
X165100Y471800D01*
X63900Y764800D02*
X53900Y764800D01*
X24200Y735100D01*
X25400Y733900D01*
D13*
X203200Y598800D03*
D15*
X221900Y598800D01*
X203200Y598800D02*
X179700Y598800D01*
X165100Y584200D01*
X165100Y487605D02*
X153924Y476429D01*
X165100Y487605D02*
X165100Y584200D01*
X153924Y252476D02*
X190500Y215900D01*
X153924Y252476D02*
X153924Y476429D01*
X205900Y141600D02*
X218600Y141600D01*
X205900Y141600D02*
X190500Y157000D01*
X190500Y215900D01*
X128016Y239079D02*
X128016Y137479D01*
X85795Y281300D02*
X76200Y281300D01*
X85795Y281300D02*
X128016Y239079D01*
D13*
X76200Y281300D03*
D15*
X128016Y137479D02*
X174695Y90800D01*
X218600Y90800D01*
X25400Y167000D02*
X25400Y370200D01*
X94500Y97900D02*
X94500Y78100D01*
X94500Y97900D02*
X25400Y167000D01*
X25400Y370200D02*
X41910Y386710D01*
X41910Y462910D02*
X50800Y471800D01*
X62900Y471800D01*
X41910Y462910D02*
X41910Y386710D01*
M02*
