G04 EAGLE Gerber RS-274X export*
G75*
%MOMM*%
%FSLAX34Y34*%
%LPD*%
%INBottom Copper*%
%IPPOS*%
%AMOC8*
5,1,8,0,0,1.08239X$1,22.5*%
G01*
%ADD10R,1.815300X1.164600*%
%ADD11R,1.798100X1.725300*%
%ADD12R,1.725300X1.798100*%
%ADD13C,1.879600*%
%ADD14R,1.400000X1.000000*%
%ADD15R,1.000000X1.400000*%
%ADD16R,1.803000X1.600000*%
%ADD17R,1.600000X1.803000*%
%ADD18C,0.756400*%
%ADD19C,0.812800*%
%ADD20C,1.016000*%

G36*
X206075Y275193D02*
X206075Y275193D01*
X206130Y275192D01*
X206359Y275221D01*
X206588Y275244D01*
X206641Y275257D01*
X206695Y275264D01*
X206918Y275325D01*
X207141Y275380D01*
X207192Y275400D01*
X207245Y275414D01*
X207457Y275506D01*
X207670Y275591D01*
X207718Y275618D01*
X207768Y275640D01*
X207965Y275760D01*
X208164Y275875D01*
X208199Y275903D01*
X208254Y275937D01*
X208695Y276299D01*
X208739Y276347D01*
X208773Y276376D01*
X211549Y279152D01*
X216124Y281047D01*
X221076Y281047D01*
X223045Y280231D01*
X223208Y280176D01*
X223369Y280113D01*
X223479Y280086D01*
X223585Y280050D01*
X223755Y280019D01*
X223923Y279978D01*
X224035Y279968D01*
X224146Y279947D01*
X224318Y279940D01*
X224490Y279923D01*
X224603Y279928D01*
X224715Y279923D01*
X224887Y279940D01*
X225060Y279948D01*
X225170Y279968D01*
X225282Y279979D01*
X225450Y280020D01*
X225620Y280052D01*
X225726Y280088D01*
X225836Y280114D01*
X225996Y280178D01*
X226160Y280233D01*
X226261Y280284D01*
X226365Y280325D01*
X226515Y280411D01*
X226669Y280488D01*
X226762Y280552D01*
X226860Y280608D01*
X226996Y280714D01*
X227138Y280812D01*
X227221Y280888D01*
X227310Y280957D01*
X227430Y281081D01*
X227557Y281198D01*
X227628Y281285D01*
X227707Y281366D01*
X227808Y281506D01*
X227918Y281639D01*
X227976Y281736D01*
X228043Y281826D01*
X228124Y281979D01*
X228213Y282127D01*
X228258Y282230D01*
X228311Y282329D01*
X228370Y282491D01*
X228438Y282650D01*
X228467Y282759D01*
X228506Y282865D01*
X228542Y283034D01*
X228587Y283200D01*
X228595Y283285D01*
X228624Y283422D01*
X228662Y283972D01*
X228663Y283985D01*
X228663Y369595D01*
X228659Y369655D01*
X228661Y369715D01*
X228639Y369939D01*
X228623Y370163D01*
X228611Y370222D01*
X228605Y370282D01*
X228551Y370501D01*
X228504Y370720D01*
X228484Y370777D01*
X228469Y370836D01*
X228386Y371044D01*
X228308Y371255D01*
X228280Y371309D01*
X228258Y371365D01*
X228146Y371560D01*
X228040Y371758D01*
X228004Y371807D01*
X227974Y371859D01*
X227899Y371950D01*
X227703Y372218D01*
X227546Y372379D01*
X227473Y372468D01*
X222070Y377871D01*
X220987Y380485D01*
X220987Y409722D01*
X220975Y409894D01*
X220973Y410067D01*
X220955Y410178D01*
X220947Y410290D01*
X220911Y410459D01*
X220885Y410630D01*
X220852Y410737D01*
X220828Y410847D01*
X220769Y411009D01*
X220719Y411175D01*
X220671Y411277D01*
X220632Y411382D01*
X220551Y411535D01*
X220478Y411691D01*
X220417Y411785D01*
X220364Y411885D01*
X220262Y412024D01*
X220168Y412169D01*
X220094Y412254D01*
X220027Y412345D01*
X219907Y412468D01*
X219793Y412599D01*
X219708Y412672D01*
X219630Y412753D01*
X219493Y412859D01*
X219363Y412972D01*
X219268Y413033D01*
X219179Y413102D01*
X219029Y413187D01*
X218884Y413281D01*
X218782Y413328D01*
X218684Y413384D01*
X218523Y413448D01*
X218367Y413520D01*
X218259Y413552D01*
X218155Y413594D01*
X217986Y413635D01*
X217821Y413685D01*
X217710Y413702D01*
X217601Y413728D01*
X217429Y413745D01*
X217258Y413771D01*
X217146Y413773D01*
X217034Y413783D01*
X216861Y413776D01*
X216688Y413778D01*
X216577Y413764D01*
X216464Y413759D01*
X216294Y413727D01*
X216123Y413705D01*
X216042Y413680D01*
X215904Y413655D01*
X215381Y413479D01*
X215369Y413476D01*
X215364Y413474D01*
X215364Y413473D01*
X214841Y413257D01*
X214350Y413159D01*
X213163Y413159D01*
X213163Y422700D01*
X213147Y422929D01*
X213137Y423159D01*
X213127Y423213D01*
X213123Y423268D01*
X213075Y423493D01*
X213033Y423719D01*
X213016Y423772D01*
X213004Y423825D01*
X212925Y424041D01*
X212852Y424260D01*
X212827Y424309D01*
X212809Y424360D01*
X212700Y424563D01*
X212597Y424769D01*
X212566Y424814D01*
X212540Y424863D01*
X212404Y425048D01*
X212273Y425238D01*
X212236Y425278D01*
X212203Y425323D01*
X212043Y425487D01*
X211887Y425657D01*
X211886Y425657D01*
X211844Y425692D01*
X211806Y425731D01*
X211805Y425731D01*
X211624Y425872D01*
X211445Y426018D01*
X211398Y426047D01*
X211355Y426080D01*
X211155Y426194D01*
X210958Y426313D01*
X210908Y426335D01*
X210860Y426362D01*
X210645Y426448D01*
X210434Y426538D01*
X210382Y426552D01*
X210330Y426573D01*
X210106Y426627D01*
X209884Y426687D01*
X209840Y426691D01*
X209776Y426707D01*
X209209Y426762D01*
X209144Y426759D01*
X209100Y426763D01*
X201559Y426763D01*
X201559Y429950D01*
X201657Y430441D01*
X201848Y430903D01*
X202127Y431320D01*
X202480Y431673D01*
X202897Y431952D01*
X203359Y432143D01*
X203850Y432241D01*
X206488Y432241D01*
X206717Y432257D01*
X206948Y432267D01*
X207002Y432277D01*
X207056Y432281D01*
X207282Y432329D01*
X207508Y432371D01*
X207560Y432388D01*
X207614Y432400D01*
X207830Y432479D01*
X208048Y432552D01*
X208097Y432577D01*
X208149Y432596D01*
X208352Y432704D01*
X208557Y432807D01*
X208603Y432838D01*
X208651Y432864D01*
X208837Y433000D01*
X209026Y433131D01*
X209067Y433168D01*
X209111Y433201D01*
X209276Y433361D01*
X209445Y433517D01*
X209480Y433560D01*
X209519Y433598D01*
X209660Y433780D01*
X209806Y433958D01*
X209834Y434006D01*
X209868Y434049D01*
X209982Y434249D01*
X210101Y434446D01*
X210123Y434496D01*
X210150Y434544D01*
X210235Y434758D01*
X210326Y434969D01*
X210340Y435022D01*
X210360Y435073D01*
X210415Y435297D01*
X210475Y435519D01*
X210479Y435563D01*
X210495Y435627D01*
X210550Y436194D01*
X210547Y436260D01*
X210551Y436304D01*
X210551Y452306D01*
X210913Y453180D01*
X210914Y453183D01*
X210915Y453186D01*
X211004Y453453D01*
X211094Y453721D01*
X211094Y453724D01*
X211095Y453726D01*
X211146Y454004D01*
X211197Y454281D01*
X211197Y454284D01*
X211198Y454287D01*
X211209Y454574D01*
X211221Y454851D01*
X211221Y454853D01*
X211221Y454856D01*
X211193Y455131D01*
X211165Y455418D01*
X211164Y455420D01*
X211164Y455423D01*
X211100Y455682D01*
X211030Y455971D01*
X211029Y455974D01*
X211028Y455976D01*
X210920Y456248D01*
X210819Y456500D01*
X210818Y456503D01*
X210817Y456505D01*
X210672Y456759D01*
X210536Y456995D01*
X210535Y456997D01*
X210533Y457000D01*
X210525Y457010D01*
X210187Y457445D01*
X210087Y457543D01*
X210033Y457609D01*
X204144Y463497D01*
X204098Y463537D01*
X204057Y463581D01*
X203883Y463724D01*
X203714Y463871D01*
X203663Y463904D01*
X203616Y463942D01*
X203424Y464059D01*
X203236Y464181D01*
X203181Y464206D01*
X203129Y464237D01*
X202923Y464326D01*
X202719Y464421D01*
X202661Y464438D01*
X202605Y464462D01*
X202388Y464521D01*
X202173Y464586D01*
X202114Y464595D01*
X202055Y464611D01*
X201944Y464622D01*
X199171Y465770D01*
X197170Y467771D01*
X196087Y470385D01*
X196087Y473215D01*
X197170Y475829D01*
X199171Y477830D01*
X201785Y478913D01*
X207315Y478913D01*
X209929Y477830D01*
X224630Y463129D01*
X225713Y460515D01*
X225713Y455374D01*
X225721Y455257D01*
X225720Y455139D01*
X225735Y455020D01*
X225739Y454929D01*
X225747Y454883D01*
X225753Y454806D01*
X225777Y454691D01*
X225792Y454574D01*
X225824Y454470D01*
X225843Y454368D01*
X225852Y454341D01*
X225872Y454249D01*
X225988Y453931D01*
X226022Y453819D01*
X226649Y452306D01*
X226649Y436812D01*
X226665Y436583D01*
X226675Y436352D01*
X226685Y436298D01*
X226689Y436244D01*
X226737Y436018D01*
X226779Y435792D01*
X226796Y435740D01*
X226808Y435686D01*
X226887Y435470D01*
X226960Y435252D01*
X226985Y435203D01*
X227004Y435151D01*
X227112Y434948D01*
X227215Y434743D01*
X227246Y434697D01*
X227272Y434649D01*
X227408Y434463D01*
X227539Y434274D01*
X227576Y434233D01*
X227609Y434189D01*
X227769Y434024D01*
X227925Y433855D01*
X227968Y433820D01*
X228006Y433781D01*
X228188Y433640D01*
X228366Y433494D01*
X228414Y433466D01*
X228457Y433432D01*
X228657Y433318D01*
X228854Y433199D01*
X228904Y433177D01*
X228952Y433150D01*
X229166Y433065D01*
X229377Y432974D01*
X229430Y432960D01*
X229481Y432940D01*
X229706Y432885D01*
X229927Y432825D01*
X229971Y432821D01*
X230035Y432805D01*
X230602Y432750D01*
X230668Y432753D01*
X230712Y432749D01*
X233706Y432749D01*
X234221Y432536D01*
X234384Y432481D01*
X234545Y432417D01*
X234655Y432391D01*
X234761Y432355D01*
X234931Y432324D01*
X235099Y432283D01*
X235211Y432272D01*
X235322Y432252D01*
X235494Y432245D01*
X235666Y432228D01*
X235779Y432233D01*
X235891Y432228D01*
X236063Y432245D01*
X236236Y432252D01*
X236346Y432273D01*
X236458Y432284D01*
X236626Y432325D01*
X236796Y432356D01*
X236902Y432392D01*
X237012Y432419D01*
X237172Y432483D01*
X237336Y432538D01*
X237437Y432588D01*
X237541Y432630D01*
X237691Y432715D01*
X237845Y432793D01*
X237938Y432857D01*
X238036Y432913D01*
X238172Y433018D01*
X238314Y433117D01*
X238397Y433193D01*
X238486Y433262D01*
X238606Y433386D01*
X238733Y433503D01*
X238804Y433590D01*
X238883Y433671D01*
X238984Y433810D01*
X239094Y433944D01*
X239152Y434040D01*
X239219Y434131D01*
X239300Y434283D01*
X239389Y434431D01*
X239434Y434535D01*
X239487Y434634D01*
X239546Y434796D01*
X239614Y434955D01*
X239643Y435064D01*
X239682Y435169D01*
X239718Y435338D01*
X239763Y435505D01*
X239771Y435590D01*
X239800Y435726D01*
X239838Y436276D01*
X239839Y436290D01*
X239839Y758589D01*
X239831Y758704D01*
X239833Y758819D01*
X239811Y758988D01*
X239799Y759158D01*
X239775Y759270D01*
X239761Y759385D01*
X239716Y759549D01*
X239680Y759715D01*
X239641Y759823D01*
X239610Y759934D01*
X239543Y760090D01*
X239484Y760250D01*
X239430Y760352D01*
X239384Y760457D01*
X239296Y760602D01*
X239216Y760752D01*
X239148Y760845D01*
X239088Y760944D01*
X238980Y761075D01*
X238879Y761212D01*
X238799Y761295D01*
X238726Y761384D01*
X238600Y761499D01*
X238482Y761621D01*
X238391Y761691D01*
X238306Y761769D01*
X238166Y761865D01*
X238031Y761969D01*
X237931Y762026D01*
X237836Y762092D01*
X237684Y762167D01*
X237536Y762251D01*
X237429Y762294D01*
X237326Y762345D01*
X237165Y762399D01*
X237007Y762462D01*
X236894Y762489D01*
X236785Y762525D01*
X236618Y762556D01*
X236453Y762596D01*
X236338Y762607D01*
X236225Y762628D01*
X236055Y762635D01*
X235886Y762651D01*
X235771Y762646D01*
X235655Y762651D01*
X235486Y762634D01*
X235316Y762626D01*
X235203Y762605D01*
X235089Y762594D01*
X234923Y762553D01*
X234756Y762522D01*
X234647Y762486D01*
X234535Y762458D01*
X234377Y762395D01*
X234216Y762341D01*
X234113Y762289D01*
X234006Y762247D01*
X233859Y762162D01*
X233707Y762086D01*
X233612Y762020D01*
X233512Y761963D01*
X233423Y761890D01*
X233238Y761762D01*
X232994Y761537D01*
X232903Y761462D01*
X228588Y757147D01*
X223016Y754839D01*
X216984Y754839D01*
X211412Y757147D01*
X209039Y759520D01*
X208909Y759633D01*
X208785Y759754D01*
X208694Y759820D01*
X208609Y759894D01*
X208464Y759988D01*
X208325Y760090D01*
X208225Y760143D01*
X208131Y760204D01*
X207974Y760277D01*
X207822Y760358D01*
X207716Y760396D01*
X207614Y760444D01*
X207449Y760494D01*
X207286Y760553D01*
X207176Y760576D01*
X207069Y760609D01*
X206898Y760635D01*
X206729Y760671D01*
X206617Y760679D01*
X206506Y760696D01*
X206333Y760699D01*
X206161Y760710D01*
X206048Y760702D01*
X205936Y760704D01*
X205765Y760682D01*
X205592Y760670D01*
X205482Y760646D01*
X205371Y760632D01*
X205204Y760586D01*
X205035Y760550D01*
X204930Y760511D01*
X204821Y760481D01*
X204663Y760413D01*
X204500Y760353D01*
X204401Y760300D01*
X204298Y760256D01*
X204151Y760166D01*
X203998Y760084D01*
X203908Y760017D01*
X203812Y759959D01*
X203678Y759849D01*
X203539Y759747D01*
X203459Y759668D01*
X203372Y759597D01*
X203255Y759469D01*
X203131Y759349D01*
X203062Y759260D01*
X202986Y759177D01*
X202889Y759034D01*
X202783Y758898D01*
X202743Y758822D01*
X202664Y758707D01*
X202418Y758213D01*
X202412Y758202D01*
X201852Y756849D01*
X198351Y753348D01*
X193776Y751453D01*
X188824Y751453D01*
X184249Y753348D01*
X181473Y756125D01*
X181299Y756275D01*
X181130Y756431D01*
X181084Y756462D01*
X181043Y756498D01*
X180850Y756623D01*
X180660Y756754D01*
X180611Y756778D01*
X180565Y756808D01*
X180356Y756905D01*
X180150Y757007D01*
X180098Y757025D01*
X180048Y757048D01*
X179827Y757115D01*
X179609Y757187D01*
X179555Y757197D01*
X179503Y757213D01*
X179275Y757248D01*
X179049Y757290D01*
X178994Y757292D01*
X178940Y757300D01*
X178710Y757303D01*
X178479Y757313D01*
X178425Y757307D01*
X178370Y757308D01*
X178141Y757279D01*
X177912Y757256D01*
X177859Y757243D01*
X177805Y757236D01*
X177582Y757175D01*
X177359Y757120D01*
X177308Y757100D01*
X177255Y757086D01*
X177043Y756994D01*
X176830Y756909D01*
X176782Y756882D01*
X176732Y756860D01*
X176535Y756740D01*
X176336Y756625D01*
X176301Y756597D01*
X176246Y756563D01*
X175805Y756201D01*
X175761Y756153D01*
X175727Y756124D01*
X172951Y753348D01*
X168376Y751453D01*
X163424Y751453D01*
X158849Y753348D01*
X156073Y756125D01*
X155899Y756275D01*
X155730Y756431D01*
X155684Y756462D01*
X155643Y756498D01*
X155450Y756623D01*
X155260Y756754D01*
X155211Y756778D01*
X155165Y756808D01*
X154956Y756905D01*
X154750Y757007D01*
X154698Y757025D01*
X154648Y757048D01*
X154427Y757115D01*
X154209Y757187D01*
X154155Y757197D01*
X154103Y757213D01*
X153875Y757248D01*
X153649Y757290D01*
X153594Y757292D01*
X153540Y757300D01*
X153310Y757303D01*
X153079Y757313D01*
X153025Y757307D01*
X152970Y757308D01*
X152741Y757279D01*
X152512Y757256D01*
X152459Y757243D01*
X152405Y757236D01*
X152182Y757175D01*
X151959Y757120D01*
X151908Y757100D01*
X151855Y757086D01*
X151643Y756994D01*
X151430Y756909D01*
X151382Y756882D01*
X151332Y756860D01*
X151135Y756740D01*
X150936Y756625D01*
X150901Y756597D01*
X150846Y756563D01*
X150405Y756201D01*
X150361Y756153D01*
X150327Y756124D01*
X147551Y753348D01*
X142976Y751453D01*
X138024Y751453D01*
X133449Y753348D01*
X130293Y756505D01*
X130093Y756678D01*
X129895Y756854D01*
X129878Y756865D01*
X129862Y756879D01*
X129641Y757023D01*
X129420Y757168D01*
X129402Y757177D01*
X129384Y757189D01*
X129144Y757300D01*
X128906Y757414D01*
X128886Y757420D01*
X128867Y757428D01*
X128614Y757505D01*
X128362Y757584D01*
X128342Y757588D01*
X128322Y757594D01*
X128062Y757634D01*
X127800Y757677D01*
X127779Y757678D01*
X127759Y757681D01*
X127495Y757685D01*
X127231Y757691D01*
X127210Y757688D01*
X127189Y757689D01*
X126927Y757655D01*
X126665Y757625D01*
X126645Y757619D01*
X126624Y757617D01*
X126368Y757547D01*
X126114Y757480D01*
X126095Y757472D01*
X126074Y757466D01*
X125832Y757361D01*
X125588Y757259D01*
X125570Y757249D01*
X125551Y757240D01*
X125326Y757103D01*
X125099Y756967D01*
X125083Y756954D01*
X125065Y756944D01*
X124860Y756775D01*
X124655Y756610D01*
X124644Y756597D01*
X124625Y756582D01*
X124240Y756162D01*
X124227Y756143D01*
X122878Y754794D01*
X121357Y753689D01*
X119683Y752836D01*
X119163Y752667D01*
X119163Y763900D01*
X119147Y764129D01*
X119137Y764359D01*
X119127Y764413D01*
X119123Y764468D01*
X119075Y764693D01*
X119033Y764919D01*
X119016Y764972D01*
X119004Y765025D01*
X118925Y765241D01*
X118852Y765460D01*
X118827Y765509D01*
X118809Y765560D01*
X118700Y765763D01*
X118597Y765969D01*
X118566Y766014D01*
X118540Y766063D01*
X118404Y766248D01*
X118273Y766438D01*
X118236Y766478D01*
X118203Y766523D01*
X118043Y766687D01*
X117887Y766857D01*
X117844Y766892D01*
X117806Y766931D01*
X117624Y767072D01*
X117446Y767218D01*
X117399Y767246D01*
X117355Y767280D01*
X117155Y767394D01*
X116959Y767513D01*
X116908Y767535D01*
X116860Y767562D01*
X116646Y767647D01*
X116435Y767737D01*
X116382Y767752D01*
X116331Y767772D01*
X116106Y767826D01*
X115885Y767886D01*
X115841Y767891D01*
X115777Y767906D01*
X115210Y767961D01*
X115144Y767959D01*
X115100Y767963D01*
X114870Y767947D01*
X114640Y767937D01*
X114586Y767927D01*
X114531Y767923D01*
X114306Y767875D01*
X114080Y767833D01*
X114028Y767815D01*
X113974Y767804D01*
X113758Y767725D01*
X113540Y767652D01*
X113491Y767627D01*
X113439Y767608D01*
X113236Y767499D01*
X113030Y767396D01*
X112985Y767365D01*
X112937Y767339D01*
X112751Y767204D01*
X112562Y767073D01*
X112521Y767035D01*
X112477Y767003D01*
X112312Y766843D01*
X112143Y766686D01*
X112108Y766644D01*
X112069Y766605D01*
X111928Y766424D01*
X111782Y766245D01*
X111753Y766198D01*
X111720Y766155D01*
X111606Y765955D01*
X111486Y765758D01*
X111465Y765708D01*
X111438Y765660D01*
X111352Y765445D01*
X111262Y765234D01*
X111248Y765182D01*
X111227Y765130D01*
X111173Y764906D01*
X111113Y764684D01*
X111109Y764640D01*
X111093Y764576D01*
X111038Y764009D01*
X111041Y763944D01*
X111037Y763900D01*
X111037Y752667D01*
X110517Y752836D01*
X108843Y753689D01*
X107322Y754794D01*
X105922Y756194D01*
X105897Y756223D01*
X105730Y756427D01*
X105715Y756441D01*
X105702Y756456D01*
X105505Y756633D01*
X105310Y756812D01*
X105293Y756823D01*
X105278Y756837D01*
X105058Y756985D01*
X104841Y757134D01*
X104822Y757143D01*
X104805Y757155D01*
X104567Y757270D01*
X104331Y757388D01*
X104311Y757395D01*
X104292Y757404D01*
X104041Y757484D01*
X103790Y757568D01*
X103770Y757572D01*
X103750Y757578D01*
X103490Y757623D01*
X103229Y757670D01*
X103209Y757671D01*
X103188Y757675D01*
X102925Y757683D01*
X102660Y757693D01*
X102639Y757691D01*
X102619Y757692D01*
X102355Y757663D01*
X102093Y757637D01*
X102073Y757632D01*
X102052Y757629D01*
X101797Y757564D01*
X101540Y757501D01*
X101520Y757493D01*
X101500Y757488D01*
X101257Y757388D01*
X101011Y757289D01*
X100993Y757279D01*
X100974Y757271D01*
X100745Y757137D01*
X100516Y757006D01*
X100503Y756995D01*
X100482Y756983D01*
X100036Y756628D01*
X99961Y756549D01*
X99907Y756505D01*
X96751Y753348D01*
X92176Y751453D01*
X87224Y751453D01*
X82649Y753348D01*
X82025Y753973D01*
X81979Y754013D01*
X81938Y754057D01*
X81764Y754200D01*
X81594Y754347D01*
X81544Y754380D01*
X81497Y754418D01*
X81305Y754535D01*
X81116Y754657D01*
X81061Y754682D01*
X81010Y754713D01*
X80803Y754802D01*
X80599Y754896D01*
X80542Y754914D01*
X80486Y754938D01*
X80269Y754997D01*
X80054Y755062D01*
X79994Y755071D01*
X79936Y755087D01*
X79819Y755098D01*
X79491Y755149D01*
X79266Y755152D01*
X79151Y755163D01*
X66505Y755163D01*
X66445Y755159D01*
X66385Y755161D01*
X66161Y755139D01*
X65937Y755123D01*
X65878Y755111D01*
X65818Y755105D01*
X65599Y755051D01*
X65380Y755004D01*
X65323Y754984D01*
X65264Y754969D01*
X65056Y754886D01*
X64845Y754808D01*
X64791Y754780D01*
X64735Y754758D01*
X64540Y754646D01*
X64342Y754540D01*
X64293Y754504D01*
X64241Y754474D01*
X64150Y754399D01*
X63882Y754203D01*
X63721Y754046D01*
X63632Y753973D01*
X59103Y749444D01*
X59063Y749398D01*
X59019Y749357D01*
X58877Y749183D01*
X58729Y749014D01*
X58696Y748963D01*
X58658Y748916D01*
X58541Y748724D01*
X58419Y748536D01*
X58394Y748481D01*
X58363Y748429D01*
X58274Y748223D01*
X58179Y748019D01*
X58162Y747961D01*
X58138Y747905D01*
X58080Y747689D01*
X58014Y747473D01*
X58005Y747414D01*
X57989Y747355D01*
X57978Y747238D01*
X57927Y746910D01*
X57924Y746685D01*
X57913Y746571D01*
X57913Y630885D01*
X56830Y628271D01*
X39037Y610478D01*
X38997Y610432D01*
X38953Y610391D01*
X38811Y610217D01*
X38663Y610048D01*
X38630Y609997D01*
X38592Y609950D01*
X38475Y609758D01*
X38353Y609570D01*
X38328Y609515D01*
X38297Y609463D01*
X38208Y609257D01*
X38113Y609053D01*
X38096Y608995D01*
X38072Y608939D01*
X38014Y608723D01*
X37948Y608507D01*
X37939Y608448D01*
X37923Y608389D01*
X37912Y608272D01*
X37861Y607944D01*
X37858Y607719D01*
X37847Y607605D01*
X37847Y604424D01*
X35952Y599849D01*
X32451Y596348D01*
X27876Y594453D01*
X22924Y594453D01*
X18349Y596348D01*
X17097Y597601D01*
X17010Y597676D01*
X16930Y597759D01*
X16795Y597863D01*
X16667Y597974D01*
X16570Y598037D01*
X16479Y598107D01*
X16332Y598191D01*
X16189Y598284D01*
X16084Y598333D01*
X15984Y598390D01*
X15826Y598452D01*
X15672Y598524D01*
X15562Y598557D01*
X15455Y598600D01*
X15289Y598640D01*
X15127Y598689D01*
X15013Y598707D01*
X14901Y598734D01*
X14731Y598750D01*
X14564Y598776D01*
X14449Y598778D01*
X14334Y598789D01*
X14164Y598782D01*
X13994Y598784D01*
X13880Y598770D01*
X13764Y598765D01*
X13597Y598734D01*
X13429Y598712D01*
X13317Y598682D01*
X13204Y598661D01*
X13043Y598607D01*
X12879Y598562D01*
X12773Y598516D01*
X12664Y598479D01*
X12512Y598403D01*
X12356Y598336D01*
X12258Y598276D01*
X12155Y598224D01*
X12014Y598127D01*
X11870Y598039D01*
X11781Y597966D01*
X11686Y597900D01*
X11561Y597785D01*
X11429Y597677D01*
X11352Y597592D01*
X11267Y597514D01*
X11159Y597382D01*
X11044Y597257D01*
X10979Y597162D01*
X10906Y597073D01*
X10818Y596928D01*
X10722Y596788D01*
X10670Y596684D01*
X10611Y596586D01*
X10544Y596430D01*
X10468Y596277D01*
X10432Y596168D01*
X10386Y596062D01*
X10342Y595898D01*
X10288Y595737D01*
X10267Y595623D01*
X10237Y595512D01*
X10226Y595397D01*
X10186Y595176D01*
X10172Y594845D01*
X10161Y594727D01*
X10161Y564854D01*
X10169Y564739D01*
X10167Y564624D01*
X10189Y564456D01*
X10201Y564286D01*
X10225Y564173D01*
X10239Y564059D01*
X10284Y563895D01*
X10320Y563729D01*
X10359Y563620D01*
X10390Y563509D01*
X10457Y563353D01*
X10516Y563194D01*
X10570Y563092D01*
X10616Y562986D01*
X10704Y562841D01*
X10784Y562691D01*
X10852Y562598D01*
X10912Y562500D01*
X11021Y562368D01*
X11121Y562231D01*
X11201Y562149D01*
X11274Y562060D01*
X11400Y561945D01*
X11518Y561823D01*
X11609Y561752D01*
X11694Y561674D01*
X11834Y561578D01*
X11969Y561474D01*
X12069Y561417D01*
X12164Y561352D01*
X12316Y561276D01*
X12464Y561192D01*
X12571Y561149D01*
X12674Y561098D01*
X12835Y561045D01*
X12993Y560982D01*
X13106Y560955D01*
X13215Y560918D01*
X13382Y560888D01*
X13547Y560848D01*
X13662Y560837D01*
X13775Y560816D01*
X13945Y560809D01*
X14114Y560792D01*
X14229Y560797D01*
X14345Y560793D01*
X14514Y560810D01*
X14684Y560817D01*
X14797Y560838D01*
X14912Y560850D01*
X15077Y560890D01*
X15244Y560921D01*
X15353Y560958D01*
X15465Y560985D01*
X15623Y561048D01*
X15784Y561102D01*
X15887Y561154D01*
X15994Y561197D01*
X16141Y561281D01*
X16293Y561357D01*
X16388Y561423D01*
X16488Y561480D01*
X16577Y561553D01*
X16762Y561681D01*
X17006Y561906D01*
X17097Y561981D01*
X17622Y562506D01*
X19143Y563611D01*
X20817Y564464D01*
X21337Y564633D01*
X21337Y553400D01*
X21353Y553171D01*
X21363Y552941D01*
X21373Y552887D01*
X21377Y552832D01*
X21425Y552607D01*
X21467Y552381D01*
X21484Y552328D01*
X21496Y552275D01*
X21575Y552059D01*
X21648Y551840D01*
X21673Y551791D01*
X21691Y551740D01*
X21800Y551536D01*
X21903Y551331D01*
X21934Y551286D01*
X21960Y551237D01*
X22096Y551052D01*
X22227Y550862D01*
X22264Y550822D01*
X22297Y550777D01*
X22457Y550613D01*
X22613Y550443D01*
X22614Y550443D01*
X22656Y550408D01*
X22694Y550369D01*
X22695Y550369D01*
X22876Y550228D01*
X23055Y550082D01*
X23102Y550053D01*
X23145Y550020D01*
X23345Y549906D01*
X23542Y549786D01*
X23592Y549765D01*
X23640Y549738D01*
X23855Y549652D01*
X24066Y549562D01*
X24118Y549548D01*
X24170Y549527D01*
X24394Y549473D01*
X24616Y549413D01*
X24660Y549409D01*
X24724Y549393D01*
X25291Y549338D01*
X25356Y549341D01*
X25400Y549337D01*
X36633Y549337D01*
X36464Y548817D01*
X35611Y547143D01*
X34506Y545622D01*
X33106Y544222D01*
X33076Y544197D01*
X32873Y544030D01*
X32860Y544015D01*
X32844Y544002D01*
X32666Y543804D01*
X32488Y543610D01*
X32477Y543593D01*
X32463Y543578D01*
X32315Y543359D01*
X32166Y543141D01*
X32156Y543122D01*
X32145Y543105D01*
X32030Y542867D01*
X31912Y542631D01*
X31905Y542611D01*
X31896Y542592D01*
X31816Y542341D01*
X31732Y542090D01*
X31728Y542069D01*
X31722Y542050D01*
X31677Y541790D01*
X31630Y541529D01*
X31629Y541509D01*
X31625Y541488D01*
X31617Y541225D01*
X31607Y540960D01*
X31609Y540939D01*
X31608Y540919D01*
X31637Y540655D01*
X31663Y540393D01*
X31668Y540373D01*
X31671Y540352D01*
X31736Y540097D01*
X31799Y539840D01*
X31807Y539820D01*
X31812Y539800D01*
X31912Y539558D01*
X32011Y539311D01*
X32021Y539293D01*
X32029Y539274D01*
X32162Y539046D01*
X32294Y538816D01*
X32305Y538803D01*
X32317Y538782D01*
X32672Y538336D01*
X32751Y538261D01*
X32795Y538207D01*
X34699Y536303D01*
X34745Y536263D01*
X34786Y536219D01*
X34960Y536077D01*
X35130Y535929D01*
X35180Y535896D01*
X35227Y535858D01*
X35419Y535741D01*
X35608Y535619D01*
X35663Y535594D01*
X35714Y535563D01*
X35921Y535474D01*
X36125Y535379D01*
X36183Y535362D01*
X36238Y535338D01*
X36455Y535280D01*
X36670Y535214D01*
X36730Y535205D01*
X36788Y535189D01*
X36905Y535178D01*
X37233Y535127D01*
X37458Y535124D01*
X37573Y535113D01*
X63986Y535113D01*
X66600Y534030D01*
X93601Y507029D01*
X94684Y504415D01*
X94684Y496585D01*
X93601Y493971D01*
X91600Y491970D01*
X88986Y490887D01*
X86156Y490887D01*
X83542Y491970D01*
X81541Y493971D01*
X80458Y496585D01*
X80458Y498371D01*
X80454Y498431D01*
X80456Y498491D01*
X80434Y498715D01*
X80418Y498939D01*
X80406Y498998D01*
X80400Y499058D01*
X80346Y499277D01*
X80299Y499496D01*
X80279Y499553D01*
X80264Y499612D01*
X80181Y499820D01*
X80103Y500031D01*
X80075Y500085D01*
X80053Y500141D01*
X79941Y500336D01*
X79835Y500534D01*
X79799Y500583D01*
X79769Y500635D01*
X79694Y500726D01*
X79498Y500994D01*
X79341Y501155D01*
X79268Y501244D01*
X60815Y519697D01*
X60769Y519737D01*
X60728Y519781D01*
X60554Y519923D01*
X60385Y520071D01*
X60334Y520104D01*
X60287Y520142D01*
X60095Y520259D01*
X59907Y520381D01*
X59852Y520406D01*
X59800Y520437D01*
X59594Y520526D01*
X59390Y520621D01*
X59332Y520638D01*
X59276Y520662D01*
X59060Y520720D01*
X58844Y520786D01*
X58785Y520795D01*
X58726Y520811D01*
X58609Y520822D01*
X58281Y520873D01*
X58056Y520876D01*
X57942Y520887D01*
X37573Y520887D01*
X37512Y520883D01*
X37452Y520885D01*
X37229Y520863D01*
X37004Y520847D01*
X36945Y520835D01*
X36885Y520829D01*
X36667Y520775D01*
X36447Y520728D01*
X36390Y520708D01*
X36332Y520693D01*
X36123Y520610D01*
X35912Y520532D01*
X35859Y520504D01*
X35803Y520482D01*
X35608Y520370D01*
X35410Y520264D01*
X35361Y520228D01*
X35308Y520198D01*
X35217Y520123D01*
X34950Y519927D01*
X34789Y519770D01*
X34699Y519697D01*
X33175Y518173D01*
X33024Y517999D01*
X32869Y517830D01*
X32838Y517784D01*
X32802Y517743D01*
X32677Y517550D01*
X32546Y517360D01*
X32522Y517311D01*
X32492Y517265D01*
X32395Y517056D01*
X32293Y516850D01*
X32275Y516798D01*
X32252Y516748D01*
X32185Y516528D01*
X32113Y516309D01*
X32103Y516255D01*
X32087Y516203D01*
X32052Y515976D01*
X32010Y515749D01*
X32008Y515694D01*
X32000Y515640D01*
X31997Y515410D01*
X31987Y515179D01*
X31993Y515125D01*
X31992Y515070D01*
X32021Y514841D01*
X32044Y514613D01*
X32057Y514559D01*
X32064Y514505D01*
X32125Y514282D01*
X32180Y514059D01*
X32200Y514008D01*
X32214Y513955D01*
X32306Y513744D01*
X32391Y513530D01*
X32419Y513482D01*
X32440Y513432D01*
X32560Y513235D01*
X32675Y513036D01*
X32703Y513002D01*
X32737Y512946D01*
X33099Y512505D01*
X33147Y512461D01*
X33175Y512427D01*
X35952Y509651D01*
X37847Y505076D01*
X37847Y500124D01*
X35952Y495549D01*
X33176Y492773D01*
X33025Y492600D01*
X32869Y492430D01*
X32838Y492384D01*
X32802Y492343D01*
X32677Y492150D01*
X32546Y491960D01*
X32522Y491911D01*
X32492Y491865D01*
X32395Y491656D01*
X32293Y491450D01*
X32275Y491398D01*
X32252Y491348D01*
X32185Y491128D01*
X32113Y490909D01*
X32103Y490855D01*
X32087Y490803D01*
X32052Y490576D01*
X32010Y490349D01*
X32008Y490294D01*
X32000Y490240D01*
X31997Y490010D01*
X31987Y489779D01*
X31993Y489725D01*
X31992Y489670D01*
X32021Y489442D01*
X32044Y489213D01*
X32057Y489159D01*
X32064Y489105D01*
X32125Y488882D01*
X32180Y488659D01*
X32200Y488608D01*
X32214Y488555D01*
X32305Y488344D01*
X32391Y488130D01*
X32419Y488082D01*
X32440Y488032D01*
X32560Y487836D01*
X32675Y487636D01*
X32703Y487602D01*
X32737Y487546D01*
X33099Y487105D01*
X33147Y487061D01*
X33175Y487027D01*
X35952Y484251D01*
X37847Y479676D01*
X37847Y474724D01*
X35952Y470149D01*
X32795Y466993D01*
X32622Y466793D01*
X32446Y466595D01*
X32435Y466578D01*
X32421Y466562D01*
X32277Y466341D01*
X32132Y466120D01*
X32123Y466102D01*
X32111Y466084D01*
X32000Y465844D01*
X31886Y465606D01*
X31880Y465586D01*
X31872Y465567D01*
X31795Y465314D01*
X31716Y465062D01*
X31712Y465042D01*
X31706Y465022D01*
X31666Y464762D01*
X31623Y464500D01*
X31622Y464479D01*
X31619Y464459D01*
X31615Y464195D01*
X31609Y463931D01*
X31612Y463910D01*
X31611Y463889D01*
X31645Y463627D01*
X31675Y463365D01*
X31681Y463345D01*
X31683Y463324D01*
X31753Y463068D01*
X31820Y462814D01*
X31828Y462795D01*
X31834Y462774D01*
X31939Y462532D01*
X32041Y462288D01*
X32051Y462270D01*
X32060Y462251D01*
X32197Y462026D01*
X32333Y461799D01*
X32346Y461783D01*
X32356Y461765D01*
X32525Y461560D01*
X32690Y461355D01*
X32703Y461344D01*
X32718Y461325D01*
X33138Y460940D01*
X33157Y460927D01*
X34506Y459578D01*
X35611Y458057D01*
X36464Y456383D01*
X36633Y455863D01*
X25400Y455863D01*
X25171Y455847D01*
X24941Y455837D01*
X24887Y455827D01*
X24832Y455823D01*
X24607Y455775D01*
X24381Y455733D01*
X24328Y455716D01*
X24275Y455704D01*
X24059Y455625D01*
X23840Y455552D01*
X23791Y455527D01*
X23740Y455509D01*
X23537Y455400D01*
X23331Y455297D01*
X23286Y455266D01*
X23237Y455240D01*
X23052Y455104D01*
X22862Y454973D01*
X22822Y454936D01*
X22777Y454903D01*
X22613Y454743D01*
X22443Y454587D01*
X22408Y454544D01*
X22369Y454506D01*
X22228Y454324D01*
X22082Y454146D01*
X22054Y454099D01*
X22020Y454055D01*
X21906Y453855D01*
X21787Y453659D01*
X21765Y453608D01*
X21738Y453560D01*
X21653Y453346D01*
X21563Y453135D01*
X21548Y453082D01*
X21528Y453031D01*
X21474Y452806D01*
X21414Y452585D01*
X21409Y452541D01*
X21394Y452477D01*
X21339Y451910D01*
X21341Y451844D01*
X21337Y451800D01*
X21353Y451570D01*
X21363Y451340D01*
X21373Y451286D01*
X21377Y451231D01*
X21425Y451006D01*
X21467Y450780D01*
X21485Y450728D01*
X21496Y450674D01*
X21575Y450458D01*
X21648Y450240D01*
X21673Y450191D01*
X21692Y450139D01*
X21801Y449936D01*
X21904Y449730D01*
X21935Y449685D01*
X21961Y449637D01*
X22096Y449451D01*
X22227Y449262D01*
X22265Y449221D01*
X22297Y449177D01*
X22457Y449012D01*
X22614Y448843D01*
X22656Y448808D01*
X22695Y448769D01*
X22876Y448628D01*
X23055Y448482D01*
X23102Y448453D01*
X23145Y448420D01*
X23345Y448306D01*
X23542Y448186D01*
X23592Y448165D01*
X23640Y448138D01*
X23855Y448052D01*
X24066Y447962D01*
X24118Y447948D01*
X24170Y447927D01*
X24394Y447873D01*
X24616Y447813D01*
X24660Y447809D01*
X24724Y447793D01*
X25291Y447738D01*
X25356Y447741D01*
X25400Y447737D01*
X36633Y447737D01*
X36464Y447217D01*
X35611Y445543D01*
X34506Y444022D01*
X33106Y442622D01*
X33077Y442597D01*
X32873Y442430D01*
X32859Y442415D01*
X32844Y442402D01*
X32667Y442205D01*
X32488Y442010D01*
X32477Y441993D01*
X32463Y441978D01*
X32315Y441758D01*
X32166Y441541D01*
X32157Y441522D01*
X32145Y441505D01*
X32030Y441267D01*
X31912Y441031D01*
X31905Y441011D01*
X31896Y440992D01*
X31816Y440741D01*
X31732Y440490D01*
X31728Y440470D01*
X31722Y440450D01*
X31677Y440189D01*
X31630Y439929D01*
X31629Y439909D01*
X31625Y439888D01*
X31617Y439625D01*
X31607Y439360D01*
X31609Y439339D01*
X31608Y439319D01*
X31637Y439055D01*
X31663Y438793D01*
X31668Y438773D01*
X31671Y438752D01*
X31736Y438497D01*
X31799Y438240D01*
X31807Y438220D01*
X31812Y438200D01*
X31913Y437955D01*
X32011Y437711D01*
X32021Y437693D01*
X32029Y437674D01*
X32163Y437445D01*
X32294Y437216D01*
X32305Y437203D01*
X32317Y437182D01*
X32672Y436736D01*
X32751Y436661D01*
X32795Y436607D01*
X35952Y433451D01*
X37847Y428876D01*
X37847Y423924D01*
X35952Y419349D01*
X33703Y417101D01*
X33663Y417055D01*
X33619Y417014D01*
X33476Y416840D01*
X33329Y416670D01*
X33296Y416620D01*
X33258Y416573D01*
X33142Y416381D01*
X33019Y416192D01*
X32994Y416137D01*
X32963Y416086D01*
X32874Y415880D01*
X32779Y415675D01*
X32762Y415617D01*
X32738Y415562D01*
X32680Y415345D01*
X32614Y415130D01*
X32605Y415070D01*
X32589Y415012D01*
X32578Y414895D01*
X32527Y414567D01*
X32524Y414342D01*
X32513Y414227D01*
X32513Y311329D01*
X32517Y311269D01*
X32515Y311209D01*
X32537Y310985D01*
X32553Y310761D01*
X32565Y310702D01*
X32571Y310642D01*
X32625Y310423D01*
X32672Y310204D01*
X32692Y310147D01*
X32707Y310088D01*
X32790Y309880D01*
X32868Y309669D01*
X32896Y309615D01*
X32918Y309559D01*
X33030Y309364D01*
X33136Y309166D01*
X33172Y309117D01*
X33202Y309065D01*
X33277Y308974D01*
X33473Y308706D01*
X33630Y308545D01*
X33703Y308456D01*
X52556Y289603D01*
X52602Y289563D01*
X52643Y289519D01*
X52817Y289377D01*
X52986Y289229D01*
X53037Y289196D01*
X53084Y289158D01*
X53276Y289041D01*
X53464Y288919D01*
X53519Y288894D01*
X53571Y288863D01*
X53777Y288774D01*
X53981Y288679D01*
X54039Y288662D01*
X54095Y288638D01*
X54311Y288580D01*
X54527Y288514D01*
X54586Y288505D01*
X54645Y288489D01*
X54762Y288478D01*
X55090Y288427D01*
X55315Y288424D01*
X55429Y288413D01*
X77615Y288413D01*
X80229Y287330D01*
X82230Y285329D01*
X83320Y282698D01*
X83319Y282651D01*
X83341Y282483D01*
X83353Y282313D01*
X83377Y282200D01*
X83391Y282086D01*
X83436Y281922D01*
X83472Y281756D01*
X83511Y281648D01*
X83542Y281536D01*
X83609Y281380D01*
X83668Y281221D01*
X83722Y281119D01*
X83768Y281013D01*
X83856Y280868D01*
X83936Y280718D01*
X84004Y280625D01*
X84064Y280527D01*
X84172Y280395D01*
X84273Y280258D01*
X84353Y280176D01*
X84426Y280087D01*
X84551Y279972D01*
X84670Y279850D01*
X84761Y279779D01*
X84846Y279702D01*
X84986Y279605D01*
X85121Y279501D01*
X85221Y279444D01*
X85316Y279379D01*
X85468Y279303D01*
X85616Y279219D01*
X85723Y279176D01*
X85826Y279125D01*
X85987Y279072D01*
X86145Y279009D01*
X86258Y278982D01*
X86367Y278945D01*
X86534Y278915D01*
X86699Y278875D01*
X86814Y278864D01*
X86927Y278843D01*
X87097Y278836D01*
X87266Y278819D01*
X87381Y278824D01*
X87497Y278820D01*
X87666Y278837D01*
X87836Y278844D01*
X87949Y278865D01*
X88063Y278877D01*
X88229Y278917D01*
X88396Y278948D01*
X88505Y278985D01*
X88617Y279012D01*
X88775Y279075D01*
X88936Y279129D01*
X89039Y279181D01*
X89146Y279224D01*
X89293Y279308D01*
X89445Y279384D01*
X89540Y279450D01*
X89640Y279507D01*
X89729Y279580D01*
X89914Y279708D01*
X90158Y279933D01*
X90249Y280008D01*
X105997Y295756D01*
X106037Y295802D01*
X106081Y295843D01*
X106223Y296017D01*
X106371Y296186D01*
X106404Y296237D01*
X106442Y296284D01*
X106559Y296476D01*
X106681Y296664D01*
X106706Y296719D01*
X106737Y296771D01*
X106826Y296977D01*
X106921Y297181D01*
X106938Y297239D01*
X106962Y297295D01*
X107021Y297511D01*
X107086Y297727D01*
X107095Y297786D01*
X107111Y297845D01*
X107122Y297962D01*
X107173Y298290D01*
X107176Y298515D01*
X107187Y298629D01*
X107187Y549415D01*
X108270Y552029D01*
X161071Y604830D01*
X163736Y605934D01*
X163767Y605937D01*
X163991Y605953D01*
X164051Y605965D01*
X164111Y605971D01*
X164329Y606025D01*
X164549Y606072D01*
X164605Y606092D01*
X164664Y606107D01*
X164873Y606190D01*
X165084Y606268D01*
X165137Y606296D01*
X165193Y606318D01*
X165388Y606430D01*
X165586Y606536D01*
X165635Y606572D01*
X165687Y606602D01*
X165778Y606677D01*
X166046Y606873D01*
X166207Y607030D01*
X166296Y607103D01*
X167058Y607865D01*
X167436Y608021D01*
X167539Y608072D01*
X167646Y608115D01*
X167793Y608199D01*
X167945Y608275D01*
X168040Y608341D01*
X168140Y608398D01*
X168275Y608502D01*
X168415Y608599D01*
X168499Y608677D01*
X168591Y608747D01*
X168709Y608869D01*
X168834Y608984D01*
X168907Y609074D01*
X168987Y609156D01*
X169087Y609293D01*
X169195Y609425D01*
X169255Y609524D01*
X169323Y609617D01*
X169403Y609767D01*
X169491Y609912D01*
X169537Y610017D01*
X169591Y610119D01*
X169649Y610279D01*
X169717Y610435D01*
X169747Y610546D01*
X169786Y610655D01*
X169822Y610821D01*
X169866Y610985D01*
X169881Y611099D01*
X169905Y611212D01*
X169916Y611382D01*
X169938Y611550D01*
X169936Y611665D01*
X169944Y611780D01*
X169932Y611950D01*
X169929Y612120D01*
X169911Y612234D01*
X169903Y612349D01*
X169867Y612515D01*
X169841Y612683D01*
X169808Y612793D01*
X169783Y612906D01*
X169725Y613065D01*
X169675Y613228D01*
X169627Y613332D01*
X169587Y613441D01*
X169506Y613591D01*
X169435Y613744D01*
X169372Y613841D01*
X169317Y613943D01*
X169217Y614080D01*
X169124Y614222D01*
X169048Y614309D01*
X168980Y614402D01*
X168862Y614524D01*
X168750Y614652D01*
X168663Y614727D01*
X168582Y614810D01*
X168448Y614913D01*
X168319Y615025D01*
X168222Y615088D01*
X168131Y615158D01*
X168030Y615212D01*
X167841Y615334D01*
X167652Y615422D01*
X167165Y615747D01*
X166812Y616100D01*
X166533Y616517D01*
X166342Y616979D01*
X166244Y617470D01*
X166244Y621657D01*
X177800Y621657D01*
X189356Y621657D01*
X189356Y617470D01*
X189258Y616979D01*
X189067Y616517D01*
X188788Y616100D01*
X188435Y615747D01*
X187988Y615448D01*
X187954Y615435D01*
X187807Y615350D01*
X187655Y615274D01*
X187560Y615209D01*
X187460Y615152D01*
X187325Y615048D01*
X187185Y614951D01*
X187101Y614873D01*
X187010Y614803D01*
X186891Y614680D01*
X186766Y614566D01*
X186693Y614477D01*
X186613Y614394D01*
X186512Y614256D01*
X186405Y614125D01*
X186345Y614026D01*
X186277Y613933D01*
X186197Y613783D01*
X186109Y613638D01*
X186063Y613532D01*
X186009Y613431D01*
X185951Y613271D01*
X185883Y613115D01*
X185853Y613004D01*
X185814Y612895D01*
X185778Y612729D01*
X185734Y612565D01*
X185719Y612451D01*
X185695Y612338D01*
X185684Y612168D01*
X185662Y612000D01*
X185664Y611884D01*
X185656Y611769D01*
X185668Y611600D01*
X185671Y611430D01*
X185689Y611316D01*
X185697Y611201D01*
X185733Y611035D01*
X185759Y610867D01*
X185792Y610757D01*
X185817Y610644D01*
X185875Y610484D01*
X185925Y610322D01*
X185973Y610218D01*
X186013Y610109D01*
X186094Y609959D01*
X186165Y609805D01*
X186228Y609709D01*
X186283Y609607D01*
X186383Y609470D01*
X186476Y609328D01*
X186551Y609241D01*
X186620Y609148D01*
X186738Y609026D01*
X186850Y608898D01*
X186937Y608822D01*
X187018Y608740D01*
X187152Y608636D01*
X187281Y608525D01*
X187378Y608462D01*
X187469Y608392D01*
X187570Y608338D01*
X187759Y608216D01*
X188061Y608076D01*
X188164Y608021D01*
X188542Y607865D01*
X189304Y607103D01*
X189349Y607063D01*
X189390Y607019D01*
X189564Y606877D01*
X189734Y606729D01*
X189785Y606696D01*
X189831Y606658D01*
X190024Y606541D01*
X190212Y606419D01*
X190267Y606394D01*
X190318Y606363D01*
X190525Y606274D01*
X190729Y606179D01*
X190787Y606162D01*
X190842Y606138D01*
X191059Y606080D01*
X191274Y606014D01*
X191334Y606005D01*
X191392Y605989D01*
X191509Y605978D01*
X191837Y605927D01*
X192062Y605924D01*
X192177Y605913D01*
X204615Y605913D01*
X207229Y604830D01*
X209230Y602829D01*
X210313Y600215D01*
X210313Y597385D01*
X209230Y594771D01*
X207229Y592770D01*
X204615Y591687D01*
X193827Y591687D01*
X193824Y591687D01*
X193822Y591687D01*
X193543Y591667D01*
X193259Y591647D01*
X193256Y591647D01*
X193253Y591647D01*
X192974Y591586D01*
X192701Y591528D01*
X192699Y591527D01*
X192696Y591527D01*
X192432Y591430D01*
X192166Y591332D01*
X192164Y591331D01*
X192161Y591330D01*
X191917Y591199D01*
X191664Y591064D01*
X191662Y591062D01*
X191659Y591061D01*
X191427Y590891D01*
X191204Y590727D01*
X191202Y590725D01*
X191200Y590724D01*
X191000Y590529D01*
X190796Y590330D01*
X190794Y590328D01*
X190792Y590326D01*
X190621Y590104D01*
X190447Y589879D01*
X190446Y589877D01*
X190444Y589875D01*
X190438Y589863D01*
X190165Y589384D01*
X190113Y589254D01*
X190073Y589179D01*
X189400Y587553D01*
X189296Y587449D01*
X189220Y587362D01*
X189138Y587282D01*
X189033Y587147D01*
X188922Y587019D01*
X188859Y586922D01*
X188789Y586831D01*
X188705Y586684D01*
X188612Y586541D01*
X188564Y586436D01*
X188507Y586336D01*
X188444Y586178D01*
X188372Y586024D01*
X188339Y585914D01*
X188296Y585807D01*
X188256Y585641D01*
X188207Y585479D01*
X188189Y585365D01*
X188162Y585253D01*
X188146Y585083D01*
X188120Y584916D01*
X188118Y584801D01*
X188107Y584686D01*
X188114Y584516D01*
X188112Y584346D01*
X188127Y584232D01*
X188132Y584116D01*
X188163Y583949D01*
X188184Y583781D01*
X188215Y583669D01*
X188236Y583556D01*
X188290Y583395D01*
X188335Y583231D01*
X188380Y583125D01*
X188417Y583016D01*
X188493Y582864D01*
X188560Y582708D01*
X188620Y582610D01*
X188672Y582507D01*
X188769Y582366D01*
X188857Y582222D01*
X188930Y582133D01*
X188996Y582038D01*
X189111Y581913D01*
X189219Y581782D01*
X189304Y581704D01*
X189382Y581619D01*
X189514Y581511D01*
X189639Y581396D01*
X189734Y581331D01*
X189823Y581258D01*
X189968Y581170D01*
X190109Y581074D01*
X190212Y581022D01*
X190310Y580963D01*
X190466Y580896D01*
X190619Y580820D01*
X190728Y580784D01*
X190834Y580738D01*
X190998Y580694D01*
X191159Y580640D01*
X191273Y580619D01*
X191384Y580589D01*
X191499Y580578D01*
X191720Y580538D01*
X192052Y580524D01*
X192169Y580513D01*
X204615Y580513D01*
X207229Y579430D01*
X209230Y577429D01*
X210313Y574815D01*
X210313Y571985D01*
X209230Y569371D01*
X207229Y567370D01*
X204615Y566287D01*
X168081Y566287D01*
X168021Y566283D01*
X167961Y566285D01*
X167737Y566263D01*
X167513Y566247D01*
X167454Y566235D01*
X167394Y566229D01*
X167175Y566175D01*
X166956Y566128D01*
X166899Y566108D01*
X166840Y566093D01*
X166632Y566010D01*
X166421Y565932D01*
X166367Y565904D01*
X166311Y565882D01*
X166116Y565770D01*
X165918Y565664D01*
X165869Y565628D01*
X165817Y565598D01*
X165726Y565523D01*
X165458Y565327D01*
X165297Y565170D01*
X165208Y565097D01*
X135303Y535192D01*
X135263Y535146D01*
X135219Y535105D01*
X135077Y534931D01*
X134929Y534762D01*
X134896Y534711D01*
X134858Y534664D01*
X134741Y534472D01*
X134619Y534284D01*
X134594Y534229D01*
X134563Y534177D01*
X134474Y533971D01*
X134379Y533767D01*
X134362Y533709D01*
X134338Y533653D01*
X134280Y533437D01*
X134214Y533221D01*
X134205Y533162D01*
X134189Y533103D01*
X134178Y532986D01*
X134127Y532658D01*
X134124Y532433D01*
X134113Y532319D01*
X134113Y526176D01*
X134129Y525947D01*
X134139Y525716D01*
X134149Y525662D01*
X134153Y525608D01*
X134201Y525382D01*
X134243Y525156D01*
X134260Y525104D01*
X134272Y525050D01*
X134351Y524834D01*
X134424Y524616D01*
X134449Y524567D01*
X134468Y524515D01*
X134576Y524312D01*
X134679Y524107D01*
X134710Y524061D01*
X134736Y524013D01*
X134872Y523827D01*
X135003Y523638D01*
X135040Y523597D01*
X135073Y523553D01*
X135233Y523388D01*
X135389Y523219D01*
X135432Y523184D01*
X135470Y523145D01*
X135652Y523004D01*
X135830Y522858D01*
X135878Y522830D01*
X135921Y522796D01*
X136121Y522682D01*
X136318Y522563D01*
X136368Y522541D01*
X136416Y522514D01*
X136630Y522429D01*
X136841Y522338D01*
X136894Y522324D01*
X136945Y522304D01*
X137170Y522249D01*
X137391Y522189D01*
X137435Y522185D01*
X137499Y522169D01*
X138066Y522114D01*
X138132Y522117D01*
X138176Y522113D01*
X141415Y522113D01*
X144029Y521030D01*
X173458Y491601D01*
X176030Y489029D01*
X177113Y486415D01*
X177113Y296429D01*
X177117Y296369D01*
X177115Y296309D01*
X177137Y296085D01*
X177153Y295861D01*
X177165Y295802D01*
X177171Y295742D01*
X177225Y295523D01*
X177272Y295304D01*
X177292Y295247D01*
X177307Y295188D01*
X177390Y294980D01*
X177468Y294769D01*
X177496Y294715D01*
X177518Y294659D01*
X177630Y294464D01*
X177736Y294266D01*
X177772Y294217D01*
X177802Y294165D01*
X177877Y294074D01*
X178073Y293806D01*
X178230Y293645D01*
X178303Y293556D01*
X189622Y282237D01*
X189668Y282197D01*
X189709Y282153D01*
X189883Y282011D01*
X190052Y281863D01*
X190103Y281830D01*
X190150Y281792D01*
X190342Y281675D01*
X190530Y281553D01*
X190585Y281528D01*
X190637Y281497D01*
X190843Y281408D01*
X191047Y281313D01*
X191105Y281296D01*
X191161Y281272D01*
X191377Y281214D01*
X191593Y281148D01*
X191652Y281139D01*
X191711Y281123D01*
X191828Y281112D01*
X192156Y281061D01*
X192381Y281058D01*
X192495Y281047D01*
X195676Y281047D01*
X200251Y279152D01*
X203027Y276375D01*
X203201Y276225D01*
X203370Y276069D01*
X203416Y276038D01*
X203457Y276002D01*
X203650Y275877D01*
X203840Y275746D01*
X203889Y275722D01*
X203935Y275692D01*
X204144Y275595D01*
X204350Y275493D01*
X204402Y275475D01*
X204452Y275452D01*
X204673Y275385D01*
X204891Y275313D01*
X204945Y275303D01*
X204997Y275287D01*
X205225Y275252D01*
X205451Y275210D01*
X205506Y275208D01*
X205560Y275200D01*
X205790Y275197D01*
X206021Y275187D01*
X206075Y275193D01*
G37*
G36*
X157873Y40941D02*
X157873Y40941D01*
X157934Y40939D01*
X158157Y40961D01*
X158382Y40977D01*
X158441Y40989D01*
X158501Y40995D01*
X158719Y41049D01*
X158939Y41096D01*
X158995Y41116D01*
X159054Y41131D01*
X159263Y41214D01*
X159474Y41292D01*
X159527Y41320D01*
X159583Y41343D01*
X159778Y41454D01*
X159976Y41560D01*
X160025Y41596D01*
X160077Y41626D01*
X160168Y41701D01*
X160436Y41897D01*
X160597Y42054D01*
X160686Y42127D01*
X161412Y42853D01*
X166984Y45161D01*
X172037Y45161D01*
X172097Y45165D01*
X172158Y45163D01*
X172381Y45185D01*
X172606Y45201D01*
X172665Y45213D01*
X172725Y45219D01*
X172943Y45273D01*
X173163Y45320D01*
X173219Y45340D01*
X173278Y45355D01*
X173487Y45438D01*
X173698Y45516D01*
X173751Y45544D01*
X173807Y45566D01*
X174002Y45678D01*
X174200Y45784D01*
X174249Y45820D01*
X174301Y45850D01*
X174392Y45925D01*
X174660Y46121D01*
X174821Y46278D01*
X174910Y46351D01*
X176412Y47853D01*
X181984Y50161D01*
X188016Y50161D01*
X190945Y48947D01*
X191002Y48928D01*
X191057Y48903D01*
X191272Y48838D01*
X191485Y48767D01*
X191545Y48756D01*
X191603Y48738D01*
X191825Y48704D01*
X192046Y48663D01*
X192106Y48661D01*
X192166Y48652D01*
X192391Y48649D01*
X192615Y48640D01*
X192675Y48646D01*
X192736Y48645D01*
X192958Y48674D01*
X193182Y48696D01*
X193241Y48710D01*
X193301Y48718D01*
X193413Y48752D01*
X193736Y48830D01*
X193945Y48914D01*
X194055Y48947D01*
X196984Y50161D01*
X203016Y50161D01*
X205945Y48947D01*
X206002Y48928D01*
X206057Y48903D01*
X206272Y48838D01*
X206485Y48767D01*
X206545Y48756D01*
X206603Y48738D01*
X206825Y48704D01*
X207046Y48663D01*
X207106Y48661D01*
X207166Y48652D01*
X207391Y48649D01*
X207615Y48640D01*
X207675Y48646D01*
X207736Y48645D01*
X207958Y48674D01*
X208182Y48696D01*
X208241Y48710D01*
X208301Y48718D01*
X208413Y48752D01*
X208736Y48830D01*
X208945Y48914D01*
X209055Y48947D01*
X211984Y50161D01*
X218016Y50161D01*
X220945Y48947D01*
X221002Y48928D01*
X221057Y48903D01*
X221272Y48838D01*
X221485Y48767D01*
X221545Y48756D01*
X221603Y48738D01*
X221825Y48704D01*
X222046Y48663D01*
X222106Y48661D01*
X222166Y48652D01*
X222391Y48649D01*
X222615Y48640D01*
X222675Y48646D01*
X222736Y48645D01*
X222958Y48674D01*
X223182Y48696D01*
X223241Y48710D01*
X223301Y48718D01*
X223413Y48752D01*
X223736Y48830D01*
X223945Y48914D01*
X224055Y48947D01*
X226984Y50161D01*
X233016Y50161D01*
X234221Y49661D01*
X234385Y49607D01*
X234545Y49543D01*
X234655Y49516D01*
X234761Y49481D01*
X234931Y49450D01*
X235099Y49409D01*
X235211Y49398D01*
X235322Y49378D01*
X235494Y49370D01*
X235666Y49354D01*
X235779Y49358D01*
X235891Y49354D01*
X236063Y49371D01*
X236236Y49378D01*
X236346Y49399D01*
X236458Y49410D01*
X236626Y49451D01*
X236796Y49482D01*
X236902Y49518D01*
X237012Y49545D01*
X237172Y49608D01*
X237336Y49663D01*
X237437Y49714D01*
X237541Y49755D01*
X237691Y49841D01*
X237845Y49919D01*
X237938Y49983D01*
X238036Y50038D01*
X238172Y50144D01*
X238314Y50242D01*
X238397Y50319D01*
X238486Y50388D01*
X238606Y50512D01*
X238733Y50629D01*
X238804Y50716D01*
X238883Y50796D01*
X238984Y50936D01*
X239094Y51070D01*
X239152Y51166D01*
X239219Y51257D01*
X239300Y51409D01*
X239389Y51557D01*
X239434Y51660D01*
X239487Y51760D01*
X239546Y51922D01*
X239614Y52081D01*
X239643Y52189D01*
X239682Y52295D01*
X239718Y52464D01*
X239763Y52631D01*
X239771Y52716D01*
X239800Y52852D01*
X239838Y53402D01*
X239839Y53415D01*
X239839Y214695D01*
X239831Y214810D01*
X239833Y214925D01*
X239811Y215093D01*
X239799Y215263D01*
X239775Y215376D01*
X239761Y215490D01*
X239716Y215654D01*
X239680Y215820D01*
X239641Y215928D01*
X239610Y216040D01*
X239543Y216196D01*
X239484Y216355D01*
X239430Y216457D01*
X239384Y216563D01*
X239296Y216708D01*
X239216Y216858D01*
X239148Y216951D01*
X239088Y217049D01*
X238980Y217181D01*
X238879Y217318D01*
X238799Y217400D01*
X238726Y217489D01*
X238601Y217604D01*
X238482Y217726D01*
X238391Y217797D01*
X238306Y217874D01*
X238166Y217971D01*
X238031Y218075D01*
X237931Y218132D01*
X237836Y218197D01*
X237684Y218273D01*
X237536Y218357D01*
X237429Y218400D01*
X237326Y218451D01*
X237165Y218504D01*
X237007Y218567D01*
X236894Y218594D01*
X236785Y218631D01*
X236618Y218661D01*
X236453Y218701D01*
X236338Y218712D01*
X236225Y218733D01*
X236055Y218740D01*
X235886Y218757D01*
X235771Y218752D01*
X235655Y218756D01*
X235486Y218739D01*
X235316Y218732D01*
X235203Y218711D01*
X235089Y218699D01*
X234923Y218659D01*
X234756Y218628D01*
X234647Y218591D01*
X234535Y218564D01*
X234377Y218501D01*
X234216Y218447D01*
X234113Y218395D01*
X234006Y218352D01*
X233859Y218268D01*
X233707Y218192D01*
X233612Y218126D01*
X233512Y218069D01*
X233423Y217996D01*
X233238Y217868D01*
X232994Y217643D01*
X232903Y217568D01*
X231892Y216557D01*
X231815Y216468D01*
X231731Y216386D01*
X231628Y216254D01*
X231519Y216127D01*
X231454Y216028D01*
X231382Y215935D01*
X231329Y215834D01*
X231209Y215649D01*
X231066Y215342D01*
X231011Y215239D01*
X229152Y210749D01*
X226375Y207973D01*
X226225Y207799D01*
X226069Y207630D01*
X226038Y207584D01*
X226002Y207543D01*
X225877Y207350D01*
X225746Y207160D01*
X225722Y207111D01*
X225692Y207065D01*
X225595Y206856D01*
X225493Y206650D01*
X225475Y206598D01*
X225452Y206548D01*
X225385Y206327D01*
X225313Y206109D01*
X225303Y206055D01*
X225287Y206003D01*
X225252Y205775D01*
X225210Y205549D01*
X225208Y205494D01*
X225200Y205440D01*
X225197Y205210D01*
X225187Y204979D01*
X225193Y204925D01*
X225192Y204870D01*
X225221Y204641D01*
X225244Y204412D01*
X225257Y204359D01*
X225264Y204305D01*
X225325Y204082D01*
X225380Y203859D01*
X225400Y203808D01*
X225414Y203755D01*
X225506Y203543D01*
X225591Y203330D01*
X225618Y203282D01*
X225640Y203232D01*
X225760Y203035D01*
X225875Y202836D01*
X225903Y202801D01*
X225937Y202746D01*
X226299Y202305D01*
X226347Y202261D01*
X226376Y202227D01*
X229152Y199451D01*
X231047Y194876D01*
X231047Y189924D01*
X229152Y185349D01*
X226375Y182573D01*
X226225Y182399D01*
X226069Y182230D01*
X226038Y182184D01*
X226002Y182143D01*
X225877Y181950D01*
X225746Y181760D01*
X225722Y181711D01*
X225692Y181665D01*
X225595Y181456D01*
X225493Y181250D01*
X225475Y181198D01*
X225452Y181148D01*
X225385Y180927D01*
X225313Y180709D01*
X225303Y180655D01*
X225287Y180603D01*
X225252Y180375D01*
X225210Y180149D01*
X225208Y180094D01*
X225200Y180040D01*
X225197Y179810D01*
X225187Y179579D01*
X225193Y179525D01*
X225192Y179470D01*
X225221Y179241D01*
X225244Y179012D01*
X225257Y178959D01*
X225264Y178905D01*
X225325Y178682D01*
X225380Y178459D01*
X225400Y178408D01*
X225414Y178355D01*
X225506Y178143D01*
X225591Y177930D01*
X225618Y177882D01*
X225640Y177832D01*
X225760Y177635D01*
X225875Y177436D01*
X225903Y177401D01*
X225937Y177346D01*
X226299Y176905D01*
X226347Y176861D01*
X226376Y176827D01*
X229152Y174051D01*
X231047Y169476D01*
X231047Y164524D01*
X229152Y159949D01*
X226375Y157173D01*
X226225Y156999D01*
X226069Y156830D01*
X226038Y156784D01*
X226002Y156743D01*
X225877Y156550D01*
X225746Y156360D01*
X225722Y156311D01*
X225692Y156265D01*
X225595Y156056D01*
X225493Y155850D01*
X225475Y155798D01*
X225452Y155748D01*
X225385Y155527D01*
X225313Y155309D01*
X225303Y155255D01*
X225287Y155203D01*
X225252Y154975D01*
X225210Y154749D01*
X225208Y154694D01*
X225200Y154640D01*
X225197Y154410D01*
X225187Y154179D01*
X225193Y154125D01*
X225192Y154070D01*
X225221Y153841D01*
X225244Y153612D01*
X225257Y153559D01*
X225264Y153505D01*
X225325Y153282D01*
X225380Y153059D01*
X225400Y153008D01*
X225414Y152955D01*
X225506Y152743D01*
X225591Y152530D01*
X225618Y152482D01*
X225640Y152432D01*
X225760Y152235D01*
X225875Y152036D01*
X225903Y152001D01*
X225937Y151946D01*
X226299Y151505D01*
X226347Y151461D01*
X226376Y151427D01*
X229152Y148651D01*
X231047Y144076D01*
X231047Y139124D01*
X229152Y134549D01*
X226375Y131773D01*
X226225Y131599D01*
X226069Y131430D01*
X226038Y131384D01*
X226002Y131343D01*
X225877Y131150D01*
X225746Y130960D01*
X225722Y130911D01*
X225692Y130865D01*
X225595Y130656D01*
X225493Y130450D01*
X225475Y130398D01*
X225452Y130348D01*
X225385Y130126D01*
X225313Y129909D01*
X225303Y129855D01*
X225287Y129803D01*
X225252Y129575D01*
X225210Y129349D01*
X225208Y129294D01*
X225200Y129240D01*
X225197Y129010D01*
X225187Y128779D01*
X225193Y128725D01*
X225192Y128670D01*
X225221Y128441D01*
X225244Y128212D01*
X225257Y128159D01*
X225264Y128105D01*
X225325Y127882D01*
X225380Y127659D01*
X225400Y127608D01*
X225414Y127555D01*
X225506Y127343D01*
X225591Y127130D01*
X225618Y127082D01*
X225640Y127032D01*
X225760Y126835D01*
X225875Y126636D01*
X225903Y126601D01*
X225937Y126546D01*
X226299Y126105D01*
X226347Y126061D01*
X226376Y126027D01*
X229152Y123251D01*
X231047Y118676D01*
X231047Y113724D01*
X229152Y109149D01*
X226375Y106373D01*
X226225Y106199D01*
X226069Y106030D01*
X226038Y105984D01*
X226002Y105943D01*
X225877Y105750D01*
X225746Y105560D01*
X225722Y105511D01*
X225692Y105465D01*
X225595Y105256D01*
X225493Y105050D01*
X225475Y104998D01*
X225452Y104948D01*
X225385Y104727D01*
X225313Y104509D01*
X225303Y104455D01*
X225287Y104403D01*
X225252Y104175D01*
X225210Y103949D01*
X225208Y103894D01*
X225200Y103840D01*
X225197Y103610D01*
X225187Y103379D01*
X225193Y103325D01*
X225192Y103270D01*
X225221Y103041D01*
X225244Y102812D01*
X225257Y102759D01*
X225264Y102705D01*
X225325Y102482D01*
X225380Y102259D01*
X225400Y102208D01*
X225414Y102155D01*
X225506Y101943D01*
X225591Y101730D01*
X225618Y101682D01*
X225640Y101632D01*
X225760Y101435D01*
X225875Y101236D01*
X225903Y101201D01*
X225937Y101146D01*
X226299Y100705D01*
X226347Y100661D01*
X226376Y100627D01*
X229152Y97851D01*
X231047Y93276D01*
X231047Y88324D01*
X229152Y83749D01*
X225651Y80248D01*
X221076Y78353D01*
X216124Y78353D01*
X211549Y80248D01*
X208243Y83555D01*
X208154Y83632D01*
X208072Y83717D01*
X207939Y83819D01*
X207813Y83928D01*
X207714Y83993D01*
X207620Y84065D01*
X207520Y84118D01*
X207335Y84238D01*
X207027Y84381D01*
X206925Y84436D01*
X206117Y84770D01*
X176203Y114684D01*
X176157Y114724D01*
X176116Y114768D01*
X175942Y114910D01*
X175773Y115058D01*
X175722Y115091D01*
X175675Y115129D01*
X175483Y115246D01*
X175295Y115368D01*
X175240Y115393D01*
X175188Y115424D01*
X174982Y115513D01*
X174778Y115608D01*
X174720Y115625D01*
X174664Y115649D01*
X174448Y115707D01*
X174232Y115773D01*
X174173Y115782D01*
X174114Y115798D01*
X173997Y115809D01*
X173669Y115860D01*
X173444Y115863D01*
X173330Y115874D01*
X166517Y115874D01*
X165397Y116338D01*
X164539Y117196D01*
X164075Y118317D01*
X164075Y131175D01*
X164539Y132296D01*
X165397Y133154D01*
X166517Y133618D01*
X185883Y133618D01*
X187003Y133154D01*
X187861Y132296D01*
X188325Y131175D01*
X188325Y124363D01*
X188329Y124303D01*
X188327Y124242D01*
X188349Y124019D01*
X188365Y123794D01*
X188378Y123735D01*
X188384Y123675D01*
X188437Y123457D01*
X188484Y123237D01*
X188505Y123181D01*
X188519Y123122D01*
X188603Y122913D01*
X188680Y122702D01*
X188709Y122649D01*
X188731Y122593D01*
X188843Y122398D01*
X188949Y122200D01*
X188984Y122151D01*
X189015Y122099D01*
X189089Y122008D01*
X189285Y121740D01*
X189442Y121579D01*
X189515Y121490D01*
X199217Y111788D01*
X199304Y111712D01*
X199384Y111630D01*
X199519Y111526D01*
X199647Y111414D01*
X199744Y111352D01*
X199835Y111281D01*
X199982Y111197D01*
X200125Y111105D01*
X200230Y111056D01*
X200330Y110999D01*
X200488Y110936D01*
X200642Y110865D01*
X200752Y110831D01*
X200859Y110789D01*
X201025Y110749D01*
X201187Y110699D01*
X201301Y110682D01*
X201413Y110655D01*
X201583Y110638D01*
X201750Y110612D01*
X201865Y110611D01*
X201980Y110599D01*
X202150Y110607D01*
X202320Y110604D01*
X202434Y110619D01*
X202550Y110624D01*
X202717Y110655D01*
X202885Y110677D01*
X202997Y110707D01*
X203110Y110728D01*
X203271Y110782D01*
X203435Y110827D01*
X203541Y110873D01*
X203650Y110909D01*
X203802Y110985D01*
X203958Y111053D01*
X204056Y111113D01*
X204159Y111164D01*
X204299Y111261D01*
X204444Y111350D01*
X204533Y111423D01*
X204628Y111488D01*
X204753Y111604D01*
X204885Y111712D01*
X204962Y111796D01*
X205047Y111875D01*
X205155Y112006D01*
X205270Y112131D01*
X205335Y112226D01*
X205408Y112316D01*
X205496Y112461D01*
X205592Y112601D01*
X205644Y112704D01*
X205703Y112803D01*
X205770Y112959D01*
X205846Y113111D01*
X205882Y113221D01*
X205928Y113327D01*
X205972Y113490D01*
X206026Y113652D01*
X206047Y113765D01*
X206077Y113876D01*
X206088Y113991D01*
X206128Y114212D01*
X206142Y114544D01*
X206153Y114661D01*
X206153Y118676D01*
X208048Y123251D01*
X210824Y126027D01*
X210975Y126200D01*
X211131Y126370D01*
X211162Y126416D01*
X211198Y126457D01*
X211323Y126650D01*
X211454Y126840D01*
X211478Y126889D01*
X211508Y126935D01*
X211605Y127144D01*
X211707Y127350D01*
X211725Y127402D01*
X211748Y127452D01*
X211815Y127672D01*
X211887Y127891D01*
X211897Y127945D01*
X211913Y127997D01*
X211948Y128224D01*
X211990Y128451D01*
X211992Y128506D01*
X212000Y128560D01*
X212003Y128790D01*
X212013Y129021D01*
X212007Y129075D01*
X212008Y129130D01*
X211979Y129358D01*
X211956Y129587D01*
X211943Y129641D01*
X211936Y129695D01*
X211875Y129918D01*
X211820Y130141D01*
X211800Y130192D01*
X211786Y130245D01*
X211695Y130455D01*
X211609Y130670D01*
X211581Y130718D01*
X211560Y130768D01*
X211440Y130964D01*
X211325Y131164D01*
X211297Y131198D01*
X211263Y131254D01*
X210901Y131695D01*
X210853Y131739D01*
X210825Y131773D01*
X208048Y134549D01*
X206153Y139124D01*
X206153Y144076D01*
X208048Y148651D01*
X210824Y151427D01*
X210975Y151601D01*
X211131Y151770D01*
X211162Y151815D01*
X211198Y151857D01*
X211323Y152050D01*
X211454Y152240D01*
X211478Y152289D01*
X211508Y152335D01*
X211605Y152544D01*
X211707Y152750D01*
X211725Y152802D01*
X211748Y152852D01*
X211815Y153072D01*
X211887Y153291D01*
X211897Y153345D01*
X211913Y153397D01*
X211948Y153625D01*
X211990Y153851D01*
X211992Y153906D01*
X212000Y153960D01*
X212003Y154190D01*
X212013Y154420D01*
X212007Y154475D01*
X212008Y154530D01*
X211979Y154758D01*
X211956Y154987D01*
X211943Y155041D01*
X211936Y155095D01*
X211875Y155317D01*
X211820Y155541D01*
X211800Y155592D01*
X211786Y155645D01*
X211694Y155856D01*
X211609Y156070D01*
X211581Y156118D01*
X211560Y156168D01*
X211440Y156364D01*
X211325Y156564D01*
X211297Y156598D01*
X211263Y156654D01*
X210901Y157095D01*
X210853Y157139D01*
X210825Y157173D01*
X209301Y158697D01*
X209255Y158737D01*
X209214Y158781D01*
X209040Y158924D01*
X208870Y159071D01*
X208820Y159104D01*
X208773Y159142D01*
X208581Y159259D01*
X208392Y159381D01*
X208337Y159406D01*
X208286Y159437D01*
X208080Y159526D01*
X207875Y159621D01*
X207817Y159638D01*
X207762Y159662D01*
X207546Y159720D01*
X207330Y159786D01*
X207270Y159795D01*
X207212Y159811D01*
X207095Y159822D01*
X206767Y159873D01*
X206542Y159876D01*
X206427Y159887D01*
X201585Y159887D01*
X198971Y160970D01*
X194101Y165841D01*
X194057Y165878D01*
X194018Y165921D01*
X193842Y166065D01*
X193670Y166214D01*
X193622Y166246D01*
X193577Y166282D01*
X193384Y166400D01*
X193192Y166524D01*
X193140Y166548D01*
X193091Y166578D01*
X192882Y166668D01*
X192675Y166764D01*
X192620Y166781D01*
X192567Y166803D01*
X192348Y166863D01*
X192130Y166929D01*
X192119Y166931D01*
X192117Y166937D01*
X192070Y167159D01*
X192050Y167213D01*
X192036Y167269D01*
X191952Y167480D01*
X191873Y167693D01*
X191846Y167745D01*
X191824Y167798D01*
X191712Y167995D01*
X191604Y168196D01*
X191570Y168242D01*
X191541Y168292D01*
X191467Y168382D01*
X191267Y168655D01*
X191113Y168813D01*
X191040Y168901D01*
X188195Y171746D01*
X188149Y171786D01*
X188108Y171830D01*
X187934Y171973D01*
X187765Y172120D01*
X187714Y172153D01*
X187667Y172191D01*
X187475Y172308D01*
X187287Y172430D01*
X187232Y172455D01*
X187180Y172486D01*
X186974Y172575D01*
X186770Y172670D01*
X186712Y172687D01*
X186656Y172711D01*
X186439Y172770D01*
X186224Y172835D01*
X186165Y172844D01*
X186106Y172860D01*
X185989Y172871D01*
X185661Y172922D01*
X185436Y172925D01*
X185322Y172936D01*
X180614Y172936D01*
X179493Y173400D01*
X178635Y174258D01*
X178479Y174636D01*
X178428Y174739D01*
X178385Y174846D01*
X178300Y174993D01*
X178225Y175145D01*
X178159Y175240D01*
X178102Y175341D01*
X177998Y175475D01*
X177901Y175615D01*
X177823Y175700D01*
X177753Y175791D01*
X177631Y175909D01*
X177516Y176034D01*
X177426Y176107D01*
X177344Y176188D01*
X177207Y176287D01*
X177075Y176395D01*
X176976Y176455D01*
X176883Y176523D01*
X176734Y176603D01*
X176588Y176691D01*
X176482Y176737D01*
X176381Y176791D01*
X176221Y176849D01*
X176065Y176917D01*
X175954Y176947D01*
X175845Y176986D01*
X175679Y177022D01*
X175515Y177066D01*
X175401Y177081D01*
X175288Y177105D01*
X175118Y177116D01*
X174950Y177138D01*
X174834Y177136D01*
X174719Y177144D01*
X174550Y177132D01*
X174380Y177129D01*
X174266Y177111D01*
X174151Y177103D01*
X173985Y177067D01*
X173817Y177041D01*
X173707Y177008D01*
X173594Y176983D01*
X173434Y176925D01*
X173272Y176875D01*
X173168Y176827D01*
X173059Y176787D01*
X172909Y176706D01*
X172756Y176635D01*
X172659Y176572D01*
X172557Y176517D01*
X172420Y176417D01*
X172278Y176324D01*
X172191Y176248D01*
X172098Y176180D01*
X171976Y176062D01*
X171848Y175950D01*
X171773Y175863D01*
X171690Y175782D01*
X171586Y175648D01*
X171475Y175519D01*
X171412Y175422D01*
X171342Y175331D01*
X171288Y175229D01*
X171166Y175041D01*
X171078Y174852D01*
X170753Y174365D01*
X170400Y174012D01*
X169983Y173733D01*
X169521Y173542D01*
X169030Y173444D01*
X164843Y173444D01*
X164843Y185000D01*
X164843Y196556D01*
X169030Y196556D01*
X169521Y196458D01*
X169983Y196267D01*
X170400Y195988D01*
X170753Y195635D01*
X171052Y195188D01*
X171065Y195154D01*
X171149Y195007D01*
X171225Y194855D01*
X171291Y194760D01*
X171348Y194660D01*
X171452Y194525D01*
X171549Y194386D01*
X171627Y194301D01*
X171697Y194209D01*
X171820Y194091D01*
X171934Y193966D01*
X172023Y193893D01*
X172106Y193813D01*
X172244Y193712D01*
X172375Y193605D01*
X172473Y193545D01*
X172567Y193477D01*
X172717Y193397D01*
X172862Y193309D01*
X172968Y193263D01*
X173069Y193209D01*
X173229Y193151D01*
X173385Y193083D01*
X173496Y193053D01*
X173605Y193014D01*
X173771Y192978D01*
X173935Y192934D01*
X174049Y192919D01*
X174162Y192895D01*
X174332Y192884D01*
X174500Y192862D01*
X174615Y192864D01*
X174731Y192856D01*
X174900Y192868D01*
X175070Y192871D01*
X175184Y192889D01*
X175299Y192897D01*
X175465Y192933D01*
X175633Y192959D01*
X175743Y192992D01*
X175856Y193017D01*
X176016Y193075D01*
X176178Y193125D01*
X176282Y193173D01*
X176391Y193213D01*
X176540Y193294D01*
X176694Y193365D01*
X176791Y193428D01*
X176893Y193483D01*
X177030Y193583D01*
X177172Y193676D01*
X177259Y193751D01*
X177352Y193820D01*
X177474Y193938D01*
X177602Y194050D01*
X177677Y194137D01*
X177760Y194218D01*
X177864Y194352D01*
X177975Y194480D01*
X178038Y194577D01*
X178108Y194669D01*
X178162Y194770D01*
X178284Y194959D01*
X178424Y195261D01*
X178479Y195364D01*
X178635Y195742D01*
X179493Y196600D01*
X179599Y196643D01*
X179601Y196645D01*
X179604Y196646D01*
X179861Y196774D01*
X180109Y196898D01*
X180111Y196899D01*
X180113Y196901D01*
X180351Y197065D01*
X180578Y197221D01*
X180580Y197223D01*
X180582Y197225D01*
X180792Y197418D01*
X180997Y197607D01*
X180999Y197609D01*
X181001Y197611D01*
X181185Y197835D01*
X181359Y198047D01*
X181360Y198050D01*
X181362Y198052D01*
X181510Y198296D01*
X181655Y198534D01*
X181656Y198537D01*
X181657Y198539D01*
X181760Y198779D01*
X181880Y199058D01*
X181881Y199060D01*
X181882Y199063D01*
X181953Y199327D01*
X182030Y199607D01*
X182030Y199610D01*
X182031Y199613D01*
X182032Y199626D01*
X182101Y200173D01*
X182099Y200312D01*
X182107Y200397D01*
X182107Y240635D01*
X183190Y243249D01*
X190222Y250280D01*
X190335Y250411D01*
X190455Y250535D01*
X190521Y250626D01*
X190595Y250711D01*
X190689Y250856D01*
X190791Y250995D01*
X190844Y251094D01*
X190905Y251189D01*
X190978Y251346D01*
X191059Y251498D01*
X191098Y251604D01*
X191145Y251706D01*
X191195Y251871D01*
X191254Y252033D01*
X191277Y252143D01*
X191310Y252251D01*
X191337Y252422D01*
X191372Y252591D01*
X191380Y252703D01*
X191397Y252814D01*
X191400Y252987D01*
X191412Y253159D01*
X191404Y253271D01*
X191405Y253384D01*
X191383Y253555D01*
X191371Y253727D01*
X191347Y253837D01*
X191333Y253949D01*
X191287Y254116D01*
X191251Y254284D01*
X191212Y254390D01*
X191183Y254499D01*
X191114Y254657D01*
X191055Y254819D01*
X191001Y254918D01*
X190957Y255022D01*
X190867Y255169D01*
X190785Y255321D01*
X190719Y255412D01*
X190660Y255508D01*
X190550Y255641D01*
X190448Y255781D01*
X190370Y255861D01*
X190298Y255948D01*
X190171Y256065D01*
X190050Y256188D01*
X189961Y256257D01*
X189878Y256333D01*
X189736Y256431D01*
X189599Y256537D01*
X189524Y256577D01*
X189408Y256656D01*
X188915Y256901D01*
X188903Y256908D01*
X186149Y258048D01*
X182648Y261549D01*
X180753Y266124D01*
X180753Y269305D01*
X180749Y269365D01*
X180751Y269425D01*
X180729Y269649D01*
X180713Y269873D01*
X180701Y269932D01*
X180695Y269992D01*
X180641Y270211D01*
X180594Y270430D01*
X180574Y270487D01*
X180559Y270546D01*
X180476Y270754D01*
X180398Y270965D01*
X180370Y271019D01*
X180348Y271075D01*
X180236Y271270D01*
X180130Y271468D01*
X180094Y271517D01*
X180064Y271569D01*
X179989Y271660D01*
X179793Y271928D01*
X179636Y272089D01*
X179563Y272178D01*
X166542Y285199D01*
X163970Y287771D01*
X162887Y290385D01*
X162887Y480371D01*
X162883Y480431D01*
X162885Y480491D01*
X162863Y480715D01*
X162847Y480939D01*
X162835Y480998D01*
X162829Y481058D01*
X162775Y481277D01*
X162728Y481496D01*
X162708Y481553D01*
X162693Y481612D01*
X162610Y481820D01*
X162532Y482031D01*
X162504Y482085D01*
X162482Y482141D01*
X162370Y482336D01*
X162264Y482534D01*
X162228Y482583D01*
X162198Y482635D01*
X162123Y482726D01*
X161927Y482994D01*
X161770Y483155D01*
X161697Y483244D01*
X141049Y503892D01*
X140962Y503968D01*
X140882Y504050D01*
X140747Y504154D01*
X140619Y504266D01*
X140522Y504328D01*
X140431Y504399D01*
X140283Y504483D01*
X140141Y504575D01*
X140036Y504624D01*
X139936Y504681D01*
X139778Y504744D01*
X139624Y504815D01*
X139514Y504849D01*
X139407Y504891D01*
X139241Y504931D01*
X139079Y504981D01*
X138965Y504998D01*
X138853Y505025D01*
X138683Y505042D01*
X138516Y505068D01*
X138401Y505069D01*
X138286Y505081D01*
X138116Y505073D01*
X137946Y505076D01*
X137832Y505061D01*
X137716Y505056D01*
X137549Y505025D01*
X137381Y505003D01*
X137269Y504973D01*
X137156Y504952D01*
X136995Y504898D01*
X136831Y504853D01*
X136725Y504807D01*
X136616Y504771D01*
X136464Y504695D01*
X136308Y504627D01*
X136210Y504567D01*
X136107Y504516D01*
X135967Y504419D01*
X135822Y504330D01*
X135733Y504257D01*
X135638Y504192D01*
X135513Y504076D01*
X135381Y503968D01*
X135304Y503884D01*
X135219Y503805D01*
X135111Y503674D01*
X134996Y503549D01*
X134931Y503454D01*
X134858Y503364D01*
X134770Y503219D01*
X134674Y503079D01*
X134622Y502976D01*
X134563Y502877D01*
X134496Y502721D01*
X134420Y502569D01*
X134384Y502459D01*
X134338Y502353D01*
X134294Y502189D01*
X134240Y502028D01*
X134219Y501915D01*
X134189Y501804D01*
X134178Y501689D01*
X134138Y501468D01*
X134124Y501136D01*
X134113Y501019D01*
X134113Y325677D01*
X134117Y325617D01*
X134115Y325557D01*
X134137Y325333D01*
X134153Y325109D01*
X134165Y325050D01*
X134171Y324990D01*
X134225Y324771D01*
X134272Y324552D01*
X134292Y324495D01*
X134307Y324436D01*
X134390Y324228D01*
X134468Y324017D01*
X134496Y323963D01*
X134518Y323907D01*
X134630Y323712D01*
X134736Y323514D01*
X134772Y323465D01*
X134802Y323413D01*
X134877Y323322D01*
X135073Y323054D01*
X135230Y322893D01*
X135303Y322804D01*
X136530Y321577D01*
X136575Y321538D01*
X136616Y321493D01*
X136790Y321351D01*
X136960Y321204D01*
X137010Y321171D01*
X137057Y321133D01*
X137250Y321016D01*
X137438Y320894D01*
X137493Y320868D01*
X137544Y320837D01*
X137751Y320749D01*
X137955Y320654D01*
X138013Y320636D01*
X138068Y320613D01*
X138285Y320554D01*
X138500Y320489D01*
X138560Y320480D01*
X138618Y320464D01*
X138735Y320452D01*
X139063Y320401D01*
X139288Y320398D01*
X139403Y320387D01*
X148933Y320387D01*
X150053Y319923D01*
X150911Y319065D01*
X151375Y317945D01*
X151375Y298751D01*
X150911Y297631D01*
X150053Y296773D01*
X148933Y296309D01*
X130467Y296309D01*
X129347Y296773D01*
X128349Y297770D01*
X128262Y297846D01*
X128182Y297928D01*
X128047Y298033D01*
X127919Y298144D01*
X127822Y298207D01*
X127731Y298277D01*
X127583Y298361D01*
X127441Y298454D01*
X127336Y298502D01*
X127236Y298559D01*
X127078Y298622D01*
X126924Y298694D01*
X126814Y298727D01*
X126707Y298770D01*
X126541Y298810D01*
X126379Y298859D01*
X126265Y298877D01*
X126153Y298904D01*
X125983Y298920D01*
X125816Y298946D01*
X125701Y298948D01*
X125586Y298959D01*
X125416Y298952D01*
X125246Y298954D01*
X125132Y298939D01*
X125016Y298934D01*
X124849Y298903D01*
X124681Y298882D01*
X124569Y298851D01*
X124456Y298830D01*
X124295Y298776D01*
X124131Y298731D01*
X124025Y298686D01*
X123916Y298649D01*
X123764Y298573D01*
X123608Y298506D01*
X123510Y298446D01*
X123407Y298394D01*
X123267Y298297D01*
X123122Y298209D01*
X123033Y298136D01*
X122938Y298070D01*
X122813Y297955D01*
X122681Y297847D01*
X122604Y297762D01*
X122519Y297684D01*
X122411Y297552D01*
X122296Y297427D01*
X122231Y297332D01*
X122158Y297243D01*
X122070Y297097D01*
X121974Y296957D01*
X121922Y296854D01*
X121863Y296756D01*
X121796Y296599D01*
X121720Y296447D01*
X121684Y296338D01*
X121638Y296232D01*
X121594Y296068D01*
X121540Y295906D01*
X121519Y295793D01*
X121489Y295682D01*
X121478Y295567D01*
X121438Y295346D01*
X121424Y295014D01*
X121413Y294897D01*
X121413Y292585D01*
X120330Y289971D01*
X92171Y261812D01*
X92095Y261725D01*
X92012Y261644D01*
X91908Y261510D01*
X91797Y261381D01*
X91734Y261285D01*
X91664Y261194D01*
X91580Y261046D01*
X91487Y260903D01*
X91439Y260799D01*
X91381Y260699D01*
X91319Y260540D01*
X91247Y260386D01*
X91214Y260276D01*
X91171Y260169D01*
X91131Y260004D01*
X91082Y259841D01*
X91064Y259727D01*
X91037Y259615D01*
X91021Y259446D01*
X90995Y259278D01*
X90993Y259163D01*
X90982Y259048D01*
X90989Y258878D01*
X90987Y258708D01*
X91002Y258594D01*
X91007Y258479D01*
X91038Y258312D01*
X91059Y258143D01*
X91090Y258032D01*
X91111Y257919D01*
X91165Y257758D01*
X91209Y257594D01*
X91255Y257488D01*
X91292Y257379D01*
X91368Y257226D01*
X91435Y257070D01*
X91495Y256972D01*
X91547Y256869D01*
X91644Y256729D01*
X91732Y256584D01*
X91805Y256495D01*
X91871Y256400D01*
X91986Y256275D01*
X92094Y256144D01*
X92179Y256066D01*
X92257Y255981D01*
X92389Y255874D01*
X92514Y255759D01*
X92609Y255694D01*
X92698Y255621D01*
X92844Y255532D01*
X92984Y255436D01*
X93087Y255385D01*
X93185Y255325D01*
X93341Y255258D01*
X93494Y255182D01*
X93603Y255146D01*
X93709Y255101D01*
X93873Y255056D01*
X94034Y255003D01*
X94148Y254982D01*
X94259Y254952D01*
X94373Y254941D01*
X94595Y254900D01*
X94927Y254887D01*
X95044Y254875D01*
X103181Y254875D01*
X103241Y254879D01*
X103302Y254877D01*
X103525Y254899D01*
X103750Y254915D01*
X103809Y254928D01*
X103869Y254934D01*
X104087Y254987D01*
X104307Y255034D01*
X104363Y255055D01*
X104422Y255069D01*
X104631Y255153D01*
X104842Y255230D01*
X104895Y255259D01*
X104951Y255281D01*
X105146Y255393D01*
X105344Y255499D01*
X105393Y255535D01*
X105445Y255565D01*
X105536Y255639D01*
X105804Y255835D01*
X105965Y255992D01*
X106054Y256065D01*
X110271Y260282D01*
X112885Y261365D01*
X124281Y261365D01*
X124283Y261365D01*
X124286Y261365D01*
X124563Y261385D01*
X124849Y261405D01*
X124852Y261405D01*
X124855Y261405D01*
X125132Y261465D01*
X125406Y261524D01*
X125409Y261525D01*
X125412Y261525D01*
X125676Y261622D01*
X125941Y261720D01*
X125944Y261721D01*
X125946Y261722D01*
X126186Y261850D01*
X126444Y261988D01*
X126446Y261990D01*
X126448Y261991D01*
X126677Y262159D01*
X126904Y262325D01*
X126906Y262327D01*
X126908Y262328D01*
X127108Y262524D01*
X127312Y262722D01*
X127314Y262724D01*
X127316Y262726D01*
X127487Y262948D01*
X127661Y263173D01*
X127662Y263175D01*
X127664Y263177D01*
X127670Y263189D01*
X127943Y263668D01*
X127995Y263798D01*
X128035Y263873D01*
X128489Y264969D01*
X129347Y265827D01*
X130467Y266291D01*
X148933Y266291D01*
X150053Y265827D01*
X150911Y264969D01*
X151375Y263849D01*
X151375Y244655D01*
X150911Y243535D01*
X150053Y242677D01*
X148933Y242213D01*
X130467Y242213D01*
X129347Y242677D01*
X128489Y243535D01*
X128035Y244631D01*
X128034Y244633D01*
X128033Y244636D01*
X127902Y244897D01*
X127780Y245141D01*
X127779Y245143D01*
X127778Y245145D01*
X127618Y245376D01*
X127457Y245610D01*
X127455Y245612D01*
X127454Y245614D01*
X127258Y245827D01*
X127071Y246029D01*
X127069Y246031D01*
X127067Y246033D01*
X126839Y246220D01*
X126631Y246391D01*
X126629Y246392D01*
X126626Y246394D01*
X126380Y246543D01*
X126144Y246687D01*
X126142Y246688D01*
X126139Y246689D01*
X125879Y246801D01*
X125621Y246912D01*
X125618Y246913D01*
X125615Y246914D01*
X125343Y246988D01*
X125071Y247062D01*
X125068Y247062D01*
X125066Y247063D01*
X125052Y247064D01*
X124506Y247133D01*
X124366Y247131D01*
X124281Y247139D01*
X119350Y247139D01*
X119121Y247123D01*
X118891Y247113D01*
X118837Y247103D01*
X118782Y247099D01*
X118557Y247051D01*
X118331Y247009D01*
X118279Y246992D01*
X118225Y246980D01*
X118009Y246901D01*
X117791Y246828D01*
X117741Y246803D01*
X117690Y246784D01*
X117487Y246676D01*
X117281Y246573D01*
X117236Y246542D01*
X117187Y246516D01*
X117002Y246380D01*
X116812Y246249D01*
X116772Y246212D01*
X116728Y246179D01*
X116563Y246019D01*
X116393Y245863D01*
X116359Y245820D01*
X116319Y245782D01*
X116179Y245600D01*
X116033Y245422D01*
X116004Y245374D01*
X115971Y245331D01*
X115857Y245131D01*
X115737Y244934D01*
X115716Y244884D01*
X115688Y244836D01*
X115603Y244622D01*
X115513Y244411D01*
X115498Y244358D01*
X115478Y244307D01*
X115424Y244082D01*
X115364Y243861D01*
X115359Y243817D01*
X115344Y243753D01*
X115289Y243186D01*
X115292Y243120D01*
X115287Y243076D01*
X115287Y233967D01*
X114823Y232847D01*
X113965Y231989D01*
X112869Y231535D01*
X112867Y231534D01*
X112864Y231533D01*
X112602Y231402D01*
X112359Y231280D01*
X112357Y231279D01*
X112355Y231278D01*
X112120Y231116D01*
X111890Y230957D01*
X111888Y230955D01*
X111886Y230954D01*
X111673Y230758D01*
X111471Y230571D01*
X111469Y230569D01*
X111467Y230567D01*
X111280Y230339D01*
X111109Y230131D01*
X111108Y230129D01*
X111106Y230126D01*
X110957Y229880D01*
X110813Y229644D01*
X110812Y229642D01*
X110811Y229639D01*
X110699Y229379D01*
X110588Y229121D01*
X110587Y229118D01*
X110586Y229115D01*
X110512Y228842D01*
X110438Y228571D01*
X110438Y228568D01*
X110437Y228566D01*
X110436Y228552D01*
X110367Y228006D01*
X110369Y227866D01*
X110361Y227781D01*
X110361Y225531D01*
X110365Y225470D01*
X110363Y225410D01*
X110385Y225187D01*
X110401Y224962D01*
X110413Y224903D01*
X110419Y224843D01*
X110473Y224625D01*
X110520Y224405D01*
X110540Y224348D01*
X110555Y224290D01*
X110638Y224081D01*
X110716Y223870D01*
X110744Y223816D01*
X110767Y223761D01*
X110878Y223566D01*
X110984Y223368D01*
X111020Y223319D01*
X111050Y223266D01*
X111125Y223176D01*
X111321Y222908D01*
X111478Y222746D01*
X111551Y222657D01*
X114946Y219263D01*
X116841Y214688D01*
X116841Y209736D01*
X114946Y205161D01*
X111445Y201660D01*
X106870Y199765D01*
X101918Y199765D01*
X97343Y201660D01*
X93842Y205161D01*
X91947Y209736D01*
X91947Y214688D01*
X93842Y219263D01*
X94945Y220365D01*
X94985Y220411D01*
X95029Y220452D01*
X95172Y220626D01*
X95319Y220796D01*
X95352Y220846D01*
X95390Y220893D01*
X95507Y221086D01*
X95629Y221274D01*
X95654Y221329D01*
X95685Y221380D01*
X95774Y221587D01*
X95869Y221791D01*
X95886Y221849D01*
X95910Y221904D01*
X95968Y222120D01*
X96034Y222336D01*
X96043Y222396D01*
X96059Y222454D01*
X96070Y222571D01*
X96121Y222899D01*
X96124Y223124D01*
X96135Y223239D01*
X96135Y227781D01*
X96135Y227783D01*
X96135Y227786D01*
X96116Y228060D01*
X96095Y228349D01*
X96095Y228352D01*
X96095Y228355D01*
X96035Y228630D01*
X95976Y228906D01*
X95975Y228909D01*
X95975Y228912D01*
X95880Y229170D01*
X95780Y229441D01*
X95779Y229444D01*
X95778Y229446D01*
X95650Y229686D01*
X95512Y229944D01*
X95510Y229946D01*
X95509Y229948D01*
X95341Y230177D01*
X95175Y230404D01*
X95173Y230406D01*
X95172Y230408D01*
X94976Y230608D01*
X94778Y230812D01*
X94776Y230814D01*
X94774Y230816D01*
X94552Y230987D01*
X94327Y231161D01*
X94325Y231162D01*
X94323Y231164D01*
X94311Y231170D01*
X93832Y231443D01*
X93702Y231495D01*
X93627Y231535D01*
X92531Y231989D01*
X91673Y232847D01*
X91209Y233967D01*
X91209Y251040D01*
X91201Y251155D01*
X91202Y251270D01*
X91181Y251439D01*
X91169Y251609D01*
X91145Y251722D01*
X91130Y251836D01*
X91085Y252000D01*
X91050Y252166D01*
X91010Y252274D01*
X90980Y252385D01*
X90912Y252541D01*
X90854Y252701D01*
X90799Y252803D01*
X90754Y252908D01*
X90665Y253053D01*
X90585Y253203D01*
X90517Y253296D01*
X90457Y253395D01*
X90349Y253526D01*
X90249Y253663D01*
X90168Y253746D01*
X90095Y253835D01*
X89970Y253950D01*
X89851Y254072D01*
X89760Y254142D01*
X89675Y254220D01*
X89535Y254316D01*
X89401Y254420D01*
X89301Y254477D01*
X89206Y254543D01*
X89053Y254618D01*
X88906Y254703D01*
X88798Y254745D01*
X88695Y254796D01*
X88535Y254850D01*
X88376Y254913D01*
X88264Y254940D01*
X88155Y254976D01*
X87988Y255007D01*
X87822Y255047D01*
X87708Y255058D01*
X87594Y255079D01*
X87424Y255086D01*
X87255Y255102D01*
X87140Y255097D01*
X87025Y255102D01*
X86856Y255085D01*
X86686Y255077D01*
X86573Y255056D01*
X86458Y255045D01*
X86293Y255005D01*
X86126Y254973D01*
X86016Y254937D01*
X85905Y254909D01*
X85747Y254846D01*
X85586Y254792D01*
X85482Y254741D01*
X85376Y254698D01*
X85228Y254613D01*
X85076Y254537D01*
X84981Y254471D01*
X84881Y254414D01*
X84792Y254341D01*
X84607Y254213D01*
X84363Y253988D01*
X84272Y253913D01*
X82803Y252444D01*
X82763Y252398D01*
X82719Y252357D01*
X82577Y252183D01*
X82429Y252014D01*
X82396Y251963D01*
X82358Y251916D01*
X82242Y251724D01*
X82119Y251535D01*
X82094Y251481D01*
X82063Y251429D01*
X81974Y251223D01*
X81879Y251019D01*
X81862Y250961D01*
X81838Y250905D01*
X81779Y250688D01*
X81714Y250473D01*
X81705Y250414D01*
X81689Y250355D01*
X81678Y250238D01*
X81627Y249910D01*
X81624Y249685D01*
X81613Y249571D01*
X81613Y174682D01*
X81617Y174622D01*
X81615Y174561D01*
X81637Y174338D01*
X81653Y174113D01*
X81665Y174054D01*
X81671Y173994D01*
X81725Y173776D01*
X81772Y173556D01*
X81793Y173500D01*
X81807Y173441D01*
X81890Y173233D01*
X81968Y173021D01*
X81996Y172968D01*
X82019Y172912D01*
X82130Y172717D01*
X82236Y172519D01*
X82272Y172470D01*
X82302Y172418D01*
X82377Y172327D01*
X82573Y172059D01*
X82730Y171898D01*
X82803Y171809D01*
X84085Y170527D01*
X84549Y169406D01*
X84549Y158194D01*
X84085Y157073D01*
X83812Y156800D01*
X83735Y156712D01*
X83652Y156631D01*
X83549Y156497D01*
X83438Y156370D01*
X83375Y156272D01*
X83303Y156180D01*
X83220Y156033D01*
X83128Y155892D01*
X83079Y155786D01*
X83021Y155685D01*
X82959Y155528D01*
X82888Y155375D01*
X82855Y155263D01*
X82812Y155155D01*
X82772Y154991D01*
X82723Y154830D01*
X82705Y154715D01*
X82678Y154601D01*
X82662Y154433D01*
X82636Y154267D01*
X82634Y154150D01*
X82623Y154034D01*
X82630Y153865D01*
X82628Y153697D01*
X82643Y153581D01*
X82648Y153465D01*
X82679Y153299D01*
X82700Y153132D01*
X82731Y153019D01*
X82752Y152905D01*
X82806Y152745D01*
X82851Y152582D01*
X82897Y152475D01*
X82934Y152364D01*
X82988Y152263D01*
X83077Y152059D01*
X83251Y151773D01*
X83307Y151670D01*
X83752Y151003D01*
X83943Y150541D01*
X84045Y150031D01*
X84105Y149811D01*
X84159Y149588D01*
X84180Y149536D01*
X84195Y149482D01*
X84285Y149271D01*
X84370Y149059D01*
X84398Y149010D01*
X84420Y148958D01*
X84539Y148763D01*
X84653Y148564D01*
X84687Y148520D01*
X84716Y148472D01*
X84862Y148295D01*
X85002Y148114D01*
X85042Y148075D01*
X85078Y148031D01*
X85247Y147876D01*
X85411Y147717D01*
X85456Y147684D01*
X85498Y147646D01*
X85687Y147516D01*
X85871Y147381D01*
X85921Y147355D01*
X85967Y147323D01*
X86173Y147221D01*
X86374Y147113D01*
X86427Y147094D01*
X86455Y147080D01*
X86340Y147023D01*
X86134Y146927D01*
X86086Y146896D01*
X86034Y146870D01*
X85847Y146741D01*
X85657Y146617D01*
X85613Y146579D01*
X85566Y146546D01*
X85398Y146391D01*
X85227Y146242D01*
X85189Y146199D01*
X85147Y146160D01*
X85003Y145983D01*
X84854Y145812D01*
X84823Y145763D01*
X84786Y145719D01*
X84668Y145524D01*
X84545Y145333D01*
X84521Y145281D01*
X84491Y145231D01*
X84401Y145022D01*
X84306Y144816D01*
X84289Y144761D01*
X84266Y144708D01*
X84207Y144488D01*
X84141Y144270D01*
X84132Y144213D01*
X84117Y144158D01*
X84106Y144042D01*
X84054Y143707D01*
X84052Y143487D01*
X84041Y143373D01*
X84041Y139550D01*
X83943Y139059D01*
X83752Y138597D01*
X83473Y138180D01*
X83120Y137827D01*
X82703Y137548D01*
X82241Y137357D01*
X81750Y137259D01*
X78563Y137259D01*
X78563Y144800D01*
X78547Y145029D01*
X78537Y145259D01*
X78527Y145313D01*
X78523Y145368D01*
X78475Y145593D01*
X78433Y145819D01*
X78416Y145872D01*
X78404Y145925D01*
X78325Y146141D01*
X78252Y146360D01*
X78227Y146409D01*
X78209Y146460D01*
X78100Y146663D01*
X77997Y146869D01*
X77966Y146914D01*
X77940Y146963D01*
X77804Y147148D01*
X77673Y147338D01*
X77636Y147378D01*
X77603Y147423D01*
X77443Y147587D01*
X77287Y147757D01*
X77244Y147792D01*
X77206Y147831D01*
X77024Y147972D01*
X76846Y148118D01*
X76799Y148146D01*
X76755Y148180D01*
X76555Y148294D01*
X76359Y148413D01*
X76308Y148435D01*
X76260Y148462D01*
X76046Y148547D01*
X75835Y148637D01*
X75782Y148652D01*
X75731Y148672D01*
X75506Y148726D01*
X75285Y148786D01*
X75241Y148791D01*
X75177Y148806D01*
X74610Y148861D01*
X74544Y148859D01*
X74500Y148863D01*
X74270Y148847D01*
X74040Y148837D01*
X73986Y148827D01*
X73931Y148823D01*
X73706Y148775D01*
X73480Y148733D01*
X73428Y148715D01*
X73374Y148704D01*
X73158Y148625D01*
X72940Y148552D01*
X72891Y148527D01*
X72839Y148508D01*
X72636Y148399D01*
X72430Y148296D01*
X72385Y148265D01*
X72337Y148239D01*
X72151Y148104D01*
X71962Y147973D01*
X71921Y147935D01*
X71877Y147903D01*
X71712Y147743D01*
X71543Y147586D01*
X71508Y147544D01*
X71469Y147505D01*
X71328Y147324D01*
X71182Y147145D01*
X71153Y147098D01*
X71120Y147055D01*
X71006Y146855D01*
X70886Y146658D01*
X70865Y146608D01*
X70838Y146560D01*
X70752Y146345D01*
X70662Y146134D01*
X70648Y146082D01*
X70627Y146030D01*
X70573Y145806D01*
X70513Y145584D01*
X70509Y145540D01*
X70493Y145476D01*
X70438Y144909D01*
X70441Y144844D01*
X70437Y144800D01*
X70437Y133698D01*
X70441Y133632D01*
X70439Y133566D01*
X70461Y133349D01*
X70477Y133130D01*
X70490Y133065D01*
X70497Y132999D01*
X70529Y132884D01*
X70596Y132572D01*
X70676Y132352D01*
X70707Y132239D01*
X70708Y132239D01*
X70754Y132140D01*
X70791Y132037D01*
X70792Y132036D01*
X70871Y131887D01*
X70950Y131653D01*
X70954Y131641D01*
X71445Y130455D01*
X71472Y130401D01*
X71493Y130345D01*
X71599Y130147D01*
X71699Y129946D01*
X71734Y129896D01*
X71762Y129843D01*
X71895Y129662D01*
X72023Y129476D01*
X72063Y129432D01*
X72099Y129383D01*
X72256Y129222D01*
X72408Y129057D01*
X72455Y129019D01*
X72497Y128976D01*
X72675Y128838D01*
X72849Y128696D01*
X72900Y128664D01*
X72948Y128627D01*
X73052Y128572D01*
X73336Y128400D01*
X73542Y128311D01*
X73644Y128257D01*
X74747Y127800D01*
X75605Y126942D01*
X76069Y125821D01*
X76069Y106579D01*
X75605Y105458D01*
X74747Y104600D01*
X73626Y104136D01*
X56414Y104136D01*
X55293Y104600D01*
X54391Y105503D01*
X54375Y105530D01*
X54299Y105682D01*
X54234Y105777D01*
X54177Y105877D01*
X54073Y106011D01*
X53976Y106151D01*
X53898Y106236D01*
X53828Y106327D01*
X53706Y106445D01*
X53591Y106570D01*
X53501Y106643D01*
X53419Y106724D01*
X53281Y106824D01*
X53150Y106932D01*
X53051Y106992D01*
X52958Y107060D01*
X52808Y107139D01*
X52663Y107228D01*
X52557Y107273D01*
X52456Y107328D01*
X52296Y107386D01*
X52140Y107453D01*
X52029Y107483D01*
X51920Y107523D01*
X51754Y107558D01*
X51590Y107603D01*
X51476Y107617D01*
X51363Y107641D01*
X51193Y107653D01*
X51025Y107674D01*
X50909Y107672D01*
X50794Y107680D01*
X50625Y107668D01*
X50455Y107665D01*
X50341Y107648D01*
X50226Y107639D01*
X50060Y107604D01*
X49892Y107577D01*
X49782Y107544D01*
X49669Y107520D01*
X49510Y107461D01*
X49347Y107411D01*
X49242Y107363D01*
X49134Y107323D01*
X48984Y107243D01*
X48830Y107171D01*
X48734Y107108D01*
X48632Y107054D01*
X48495Y106953D01*
X48353Y106860D01*
X48266Y106785D01*
X48173Y106716D01*
X48051Y106598D01*
X47923Y106486D01*
X47848Y106399D01*
X47765Y106318D01*
X47661Y106184D01*
X47550Y106056D01*
X47487Y105959D01*
X47417Y105867D01*
X47363Y105766D01*
X47241Y105577D01*
X47204Y105497D01*
X46307Y104600D01*
X45186Y104136D01*
X37592Y104136D01*
X37363Y104120D01*
X37132Y104110D01*
X37078Y104100D01*
X37024Y104096D01*
X36798Y104048D01*
X36572Y104006D01*
X36520Y103989D01*
X36466Y103977D01*
X36250Y103898D01*
X36032Y103825D01*
X35983Y103800D01*
X35931Y103781D01*
X35728Y103673D01*
X35523Y103570D01*
X35477Y103539D01*
X35429Y103513D01*
X35243Y103377D01*
X35054Y103246D01*
X35013Y103209D01*
X34969Y103176D01*
X34804Y103016D01*
X34635Y102860D01*
X34600Y102817D01*
X34561Y102779D01*
X34420Y102597D01*
X34274Y102419D01*
X34246Y102371D01*
X34212Y102328D01*
X34098Y102128D01*
X33979Y101931D01*
X33957Y101881D01*
X33930Y101833D01*
X33845Y101619D01*
X33754Y101408D01*
X33740Y101355D01*
X33720Y101304D01*
X33665Y101079D01*
X33605Y100858D01*
X33601Y100814D01*
X33585Y100750D01*
X33530Y100183D01*
X33533Y100117D01*
X33529Y100073D01*
X33529Y76557D01*
X33533Y76497D01*
X33531Y76436D01*
X33553Y76213D01*
X33569Y75988D01*
X33581Y75929D01*
X33587Y75869D01*
X33641Y75650D01*
X33688Y75431D01*
X33708Y75375D01*
X33723Y75316D01*
X33806Y75107D01*
X33884Y74896D01*
X33912Y74843D01*
X33934Y74787D01*
X34046Y74592D01*
X34152Y74394D01*
X34188Y74345D01*
X34218Y74293D01*
X34293Y74201D01*
X34489Y73934D01*
X34646Y73772D01*
X34719Y73684D01*
X35607Y72795D01*
X35807Y72621D01*
X36005Y72446D01*
X36022Y72435D01*
X36038Y72421D01*
X36260Y72277D01*
X36480Y72132D01*
X36499Y72123D01*
X36516Y72111D01*
X36755Y72000D01*
X36994Y71886D01*
X37014Y71880D01*
X37033Y71872D01*
X37286Y71795D01*
X37538Y71716D01*
X37558Y71712D01*
X37578Y71706D01*
X37839Y71666D01*
X38100Y71623D01*
X38121Y71622D01*
X38141Y71619D01*
X38405Y71615D01*
X38669Y71609D01*
X38690Y71612D01*
X38711Y71611D01*
X38973Y71645D01*
X39235Y71675D01*
X39255Y71681D01*
X39276Y71683D01*
X39530Y71753D01*
X39786Y71820D01*
X39806Y71828D01*
X39825Y71834D01*
X40068Y71939D01*
X40312Y72041D01*
X40330Y72051D01*
X40349Y72060D01*
X40574Y72197D01*
X40801Y72333D01*
X40817Y72346D01*
X40835Y72356D01*
X41040Y72525D01*
X41245Y72690D01*
X41256Y72703D01*
X41275Y72718D01*
X41660Y73138D01*
X41673Y73157D01*
X43022Y74506D01*
X44543Y75611D01*
X46217Y76464D01*
X46737Y76633D01*
X46737Y65400D01*
X46753Y65171D01*
X46763Y64941D01*
X46773Y64887D01*
X46777Y64832D01*
X46825Y64607D01*
X46867Y64381D01*
X46884Y64328D01*
X46896Y64275D01*
X46975Y64059D01*
X47048Y63840D01*
X47073Y63791D01*
X47091Y63740D01*
X47200Y63537D01*
X47303Y63331D01*
X47334Y63286D01*
X47360Y63237D01*
X47496Y63052D01*
X47627Y62862D01*
X47664Y62822D01*
X47697Y62777D01*
X47857Y62613D01*
X48013Y62443D01*
X48014Y62443D01*
X48056Y62408D01*
X48094Y62369D01*
X48095Y62369D01*
X48276Y62228D01*
X48455Y62082D01*
X48502Y62053D01*
X48545Y62020D01*
X48745Y61906D01*
X48942Y61786D01*
X48992Y61765D01*
X49040Y61738D01*
X49255Y61652D01*
X49466Y61562D01*
X49518Y61548D01*
X49570Y61527D01*
X49794Y61473D01*
X50016Y61413D01*
X50060Y61409D01*
X50124Y61393D01*
X50691Y61338D01*
X50756Y61341D01*
X50800Y61337D01*
X62033Y61337D01*
X61864Y60817D01*
X61011Y59143D01*
X59906Y57622D01*
X59381Y57097D01*
X59306Y57010D01*
X59223Y56930D01*
X59119Y56795D01*
X59007Y56667D01*
X58945Y56570D01*
X58874Y56479D01*
X58790Y56332D01*
X58698Y56189D01*
X58649Y56084D01*
X58592Y55984D01*
X58529Y55826D01*
X58458Y55672D01*
X58424Y55562D01*
X58382Y55455D01*
X58342Y55289D01*
X58293Y55127D01*
X58275Y55013D01*
X58248Y54901D01*
X58231Y54731D01*
X58205Y54564D01*
X58204Y54449D01*
X58192Y54334D01*
X58200Y54164D01*
X58197Y53994D01*
X58212Y53880D01*
X58217Y53764D01*
X58248Y53597D01*
X58270Y53429D01*
X58300Y53317D01*
X58321Y53204D01*
X58375Y53043D01*
X58420Y52879D01*
X58466Y52773D01*
X58502Y52664D01*
X58579Y52512D01*
X58646Y52356D01*
X58706Y52258D01*
X58757Y52155D01*
X58854Y52014D01*
X58943Y51870D01*
X59016Y51781D01*
X59081Y51686D01*
X59197Y51561D01*
X59304Y51430D01*
X59389Y51352D01*
X59468Y51267D01*
X59599Y51159D01*
X59724Y51044D01*
X59819Y50979D01*
X59909Y50906D01*
X60054Y50818D01*
X60194Y50722D01*
X60297Y50670D01*
X60396Y50611D01*
X60552Y50544D01*
X60704Y50468D01*
X60814Y50432D01*
X60920Y50386D01*
X61084Y50342D01*
X61245Y50288D01*
X61358Y50267D01*
X61469Y50237D01*
X61584Y50226D01*
X61805Y50186D01*
X62137Y50172D01*
X62254Y50161D01*
X68016Y50161D01*
X73588Y47853D01*
X75090Y46351D01*
X75135Y46311D01*
X75176Y46267D01*
X75350Y46125D01*
X75520Y45977D01*
X75570Y45944D01*
X75617Y45906D01*
X75810Y45789D01*
X75998Y45667D01*
X76053Y45642D01*
X76104Y45611D01*
X76311Y45522D01*
X76515Y45427D01*
X76573Y45410D01*
X76628Y45386D01*
X76845Y45328D01*
X77060Y45262D01*
X77120Y45253D01*
X77178Y45237D01*
X77295Y45226D01*
X77623Y45175D01*
X77848Y45172D01*
X77963Y45161D01*
X83016Y45161D01*
X88588Y42853D01*
X89314Y42127D01*
X89359Y42087D01*
X89400Y42043D01*
X89574Y41901D01*
X89744Y41753D01*
X89794Y41720D01*
X89841Y41682D01*
X90034Y41565D01*
X90222Y41443D01*
X90277Y41418D01*
X90328Y41387D01*
X90535Y41298D01*
X90739Y41204D01*
X90797Y41186D01*
X90852Y41162D01*
X91069Y41104D01*
X91284Y41038D01*
X91344Y41029D01*
X91402Y41013D01*
X91519Y41002D01*
X91847Y40951D01*
X92072Y40948D01*
X92187Y40937D01*
X157813Y40937D01*
X157873Y40941D01*
G37*
G36*
X25630Y653653D02*
X25630Y653653D01*
X25860Y653663D01*
X25914Y653673D01*
X25969Y653677D01*
X26194Y653725D01*
X26420Y653767D01*
X26472Y653785D01*
X26526Y653796D01*
X26742Y653875D01*
X26960Y653948D01*
X27009Y653973D01*
X27061Y653992D01*
X27264Y654101D01*
X27470Y654204D01*
X27515Y654235D01*
X27563Y654261D01*
X27749Y654396D01*
X27938Y654527D01*
X27979Y654565D01*
X28023Y654597D01*
X28188Y654757D01*
X28357Y654914D01*
X28392Y654956D01*
X28431Y654995D01*
X28572Y655176D01*
X28718Y655355D01*
X28747Y655402D01*
X28780Y655445D01*
X28894Y655645D01*
X29013Y655842D01*
X29035Y655892D01*
X29062Y655940D01*
X29148Y656155D01*
X29238Y656366D01*
X29252Y656418D01*
X29273Y656470D01*
X29327Y656694D01*
X29387Y656916D01*
X29391Y656960D01*
X29407Y657024D01*
X29462Y657591D01*
X29459Y657656D01*
X29463Y657700D01*
X29463Y668933D01*
X29983Y668764D01*
X31657Y667911D01*
X33178Y666806D01*
X34506Y665478D01*
X35611Y663957D01*
X36004Y663187D01*
X36098Y663030D01*
X36184Y662868D01*
X36245Y662786D01*
X36297Y662698D01*
X36413Y662556D01*
X36521Y662408D01*
X36592Y662335D01*
X36656Y662256D01*
X36790Y662131D01*
X36918Y662000D01*
X36999Y661937D01*
X37074Y661868D01*
X37224Y661763D01*
X37369Y661651D01*
X37458Y661601D01*
X37541Y661542D01*
X37705Y661460D01*
X37864Y661369D01*
X37959Y661331D01*
X38050Y661285D01*
X38223Y661226D01*
X38393Y661159D01*
X38493Y661135D01*
X38589Y661102D01*
X38769Y661068D01*
X38947Y661025D01*
X39049Y661015D01*
X39149Y660996D01*
X39332Y660987D01*
X39514Y660969D01*
X39616Y660974D01*
X39718Y660969D01*
X39900Y660986D01*
X40084Y660994D01*
X40184Y661013D01*
X40285Y661022D01*
X40464Y661065D01*
X40644Y661098D01*
X40741Y661130D01*
X40840Y661154D01*
X41010Y661221D01*
X41184Y661279D01*
X41275Y661325D01*
X41370Y661362D01*
X41530Y661452D01*
X41693Y661534D01*
X41777Y661592D01*
X41866Y661643D01*
X42012Y661754D01*
X42162Y661858D01*
X42237Y661927D01*
X42318Y661990D01*
X42447Y662120D01*
X42581Y662245D01*
X42646Y662324D01*
X42717Y662396D01*
X42826Y662544D01*
X42942Y662686D01*
X42995Y662773D01*
X43055Y662855D01*
X43142Y663016D01*
X43237Y663173D01*
X43278Y663267D01*
X43326Y663356D01*
X43390Y663528D01*
X43462Y663696D01*
X43488Y663795D01*
X43524Y663891D01*
X43563Y664070D01*
X43611Y664246D01*
X43618Y664325D01*
X43645Y664447D01*
X43687Y665016D01*
X43687Y665025D01*
X43687Y665031D01*
X43687Y697324D01*
X43671Y697553D01*
X43661Y697784D01*
X43651Y697838D01*
X43647Y697892D01*
X43599Y698118D01*
X43557Y698344D01*
X43540Y698396D01*
X43528Y698450D01*
X43449Y698666D01*
X43376Y698884D01*
X43351Y698933D01*
X43332Y698985D01*
X43224Y699188D01*
X43121Y699393D01*
X43090Y699439D01*
X43064Y699487D01*
X42928Y699673D01*
X42797Y699862D01*
X42760Y699903D01*
X42727Y699947D01*
X42567Y700112D01*
X42411Y700281D01*
X42368Y700316D01*
X42330Y700355D01*
X42148Y700496D01*
X41970Y700642D01*
X41922Y700670D01*
X41879Y700704D01*
X41679Y700818D01*
X41482Y700937D01*
X41432Y700959D01*
X41384Y700986D01*
X41170Y701071D01*
X40959Y701162D01*
X40906Y701176D01*
X40855Y701196D01*
X40630Y701251D01*
X40409Y701311D01*
X40365Y701315D01*
X40301Y701331D01*
X39734Y701386D01*
X39668Y701383D01*
X39624Y701387D01*
X37573Y701387D01*
X37513Y701383D01*
X37452Y701385D01*
X37229Y701363D01*
X37004Y701347D01*
X36945Y701335D01*
X36885Y701329D01*
X36667Y701275D01*
X36447Y701228D01*
X36391Y701208D01*
X36332Y701193D01*
X36123Y701110D01*
X35912Y701032D01*
X35859Y701004D01*
X35803Y700982D01*
X35608Y700870D01*
X35410Y700764D01*
X35361Y700728D01*
X35308Y700698D01*
X35217Y700623D01*
X34950Y700427D01*
X34789Y700270D01*
X34700Y700197D01*
X32451Y697948D01*
X27876Y696053D01*
X22924Y696053D01*
X18349Y697948D01*
X17097Y699201D01*
X17010Y699276D01*
X16930Y699359D01*
X16795Y699463D01*
X16667Y699574D01*
X16570Y699637D01*
X16479Y699707D01*
X16332Y699791D01*
X16189Y699884D01*
X16084Y699933D01*
X15984Y699990D01*
X15826Y700052D01*
X15672Y700124D01*
X15562Y700157D01*
X15455Y700200D01*
X15289Y700240D01*
X15127Y700289D01*
X15013Y700307D01*
X14901Y700334D01*
X14731Y700350D01*
X14564Y700376D01*
X14449Y700378D01*
X14334Y700389D01*
X14164Y700382D01*
X13994Y700384D01*
X13880Y700370D01*
X13764Y700365D01*
X13597Y700334D01*
X13429Y700312D01*
X13317Y700282D01*
X13204Y700261D01*
X13043Y700207D01*
X12879Y700162D01*
X12773Y700116D01*
X12664Y700079D01*
X12512Y700003D01*
X12356Y699936D01*
X12258Y699876D01*
X12155Y699824D01*
X12014Y699727D01*
X11870Y699639D01*
X11781Y699566D01*
X11686Y699500D01*
X11561Y699385D01*
X11429Y699277D01*
X11352Y699192D01*
X11267Y699114D01*
X11159Y698982D01*
X11044Y698857D01*
X10979Y698762D01*
X10906Y698673D01*
X10818Y698528D01*
X10722Y698388D01*
X10670Y698284D01*
X10611Y698186D01*
X10544Y698030D01*
X10468Y697877D01*
X10432Y697768D01*
X10386Y697662D01*
X10342Y697498D01*
X10288Y697337D01*
X10267Y697223D01*
X10237Y697112D01*
X10226Y696997D01*
X10186Y696776D01*
X10172Y696445D01*
X10161Y696327D01*
X10161Y669154D01*
X10169Y669039D01*
X10167Y668924D01*
X10189Y668756D01*
X10201Y668586D01*
X10225Y668473D01*
X10239Y668359D01*
X10284Y668195D01*
X10320Y668029D01*
X10359Y667920D01*
X10390Y667809D01*
X10457Y667653D01*
X10516Y667494D01*
X10570Y667392D01*
X10616Y667286D01*
X10704Y667141D01*
X10784Y666991D01*
X10852Y666898D01*
X10912Y666800D01*
X11021Y666668D01*
X11121Y666531D01*
X11201Y666449D01*
X11274Y666360D01*
X11400Y666245D01*
X11518Y666123D01*
X11609Y666052D01*
X11694Y665974D01*
X11834Y665878D01*
X11969Y665774D01*
X12069Y665717D01*
X12164Y665652D01*
X12316Y665576D01*
X12464Y665492D01*
X12571Y665449D01*
X12674Y665398D01*
X12835Y665345D01*
X12993Y665282D01*
X13106Y665255D01*
X13215Y665218D01*
X13382Y665188D01*
X13547Y665148D01*
X13662Y665137D01*
X13775Y665116D01*
X13945Y665109D01*
X14114Y665092D01*
X14229Y665097D01*
X14345Y665093D01*
X14514Y665110D01*
X14684Y665117D01*
X14797Y665138D01*
X14912Y665150D01*
X15077Y665190D01*
X15244Y665221D01*
X15353Y665258D01*
X15465Y665285D01*
X15623Y665348D01*
X15784Y665402D01*
X15887Y665454D01*
X15994Y665497D01*
X16141Y665581D01*
X16293Y665657D01*
X16388Y665723D01*
X16488Y665780D01*
X16577Y665853D01*
X16762Y665981D01*
X17006Y666206D01*
X17097Y666281D01*
X17622Y666806D01*
X19143Y667911D01*
X20817Y668764D01*
X21337Y668933D01*
X21337Y657700D01*
X21353Y657471D01*
X21363Y657241D01*
X21373Y657187D01*
X21377Y657132D01*
X21425Y656907D01*
X21467Y656681D01*
X21484Y656628D01*
X21496Y656575D01*
X21575Y656359D01*
X21648Y656140D01*
X21673Y656091D01*
X21691Y656040D01*
X21800Y655837D01*
X21903Y655631D01*
X21934Y655586D01*
X21960Y655537D01*
X22096Y655352D01*
X22227Y655162D01*
X22264Y655122D01*
X22297Y655077D01*
X22457Y654913D01*
X22613Y654743D01*
X22656Y654708D01*
X22694Y654669D01*
X22876Y654528D01*
X23054Y654382D01*
X23101Y654354D01*
X23145Y654320D01*
X23345Y654206D01*
X23541Y654087D01*
X23592Y654065D01*
X23640Y654038D01*
X23854Y653953D01*
X24065Y653863D01*
X24118Y653848D01*
X24169Y653828D01*
X24394Y653774D01*
X24615Y653714D01*
X24659Y653709D01*
X24723Y653694D01*
X25290Y653639D01*
X25356Y653641D01*
X25400Y653637D01*
X25630Y653653D01*
G37*
%LPC*%
G36*
X100185Y617087D02*
X100185Y617087D01*
X97571Y618170D01*
X95570Y620171D01*
X94487Y622785D01*
X94487Y625615D01*
X95570Y628229D01*
X102115Y634774D01*
X102266Y634948D01*
X102421Y635117D01*
X102452Y635162D01*
X102489Y635204D01*
X102614Y635397D01*
X102744Y635587D01*
X102768Y635636D01*
X102798Y635682D01*
X102895Y635891D01*
X102998Y636097D01*
X103015Y636149D01*
X103038Y636199D01*
X103105Y636419D01*
X103178Y636638D01*
X103187Y636692D01*
X103203Y636744D01*
X103239Y636971D01*
X103280Y637198D01*
X103282Y637253D01*
X103291Y637307D01*
X103294Y637537D01*
X103303Y637767D01*
X103298Y637822D01*
X103298Y637877D01*
X103269Y638105D01*
X103246Y638334D01*
X103233Y638388D01*
X103226Y638442D01*
X103166Y638665D01*
X103111Y638888D01*
X103090Y638939D01*
X103076Y638992D01*
X102985Y639203D01*
X102899Y639417D01*
X102872Y639465D01*
X102850Y639515D01*
X102813Y639576D01*
X102175Y641117D01*
X102175Y653975D01*
X102639Y655096D01*
X103497Y655954D01*
X104617Y656418D01*
X123983Y656418D01*
X125103Y655954D01*
X125961Y655096D01*
X126425Y653975D01*
X126425Y641117D01*
X125961Y639996D01*
X125103Y639138D01*
X123921Y638649D01*
X123919Y638647D01*
X123916Y638647D01*
X123659Y638518D01*
X123411Y638394D01*
X123409Y638393D01*
X123407Y638391D01*
X123172Y638230D01*
X122942Y638071D01*
X122940Y638069D01*
X122938Y638068D01*
X122731Y637877D01*
X122523Y637685D01*
X122521Y637683D01*
X122519Y637681D01*
X122337Y637459D01*
X122161Y637245D01*
X122160Y637242D01*
X122158Y637240D01*
X122006Y636989D01*
X121865Y636758D01*
X121864Y636755D01*
X121863Y636753D01*
X121755Y636502D01*
X121640Y636234D01*
X121639Y636232D01*
X121638Y636229D01*
X121564Y635957D01*
X121490Y635685D01*
X121490Y635682D01*
X121489Y635679D01*
X121488Y635667D01*
X120330Y632871D01*
X105629Y618170D01*
X103015Y617087D01*
X100185Y617087D01*
G37*
%LPD*%
%LPC*%
G36*
X147130Y134741D02*
X147130Y134741D01*
X142555Y136636D01*
X139054Y140137D01*
X137159Y144712D01*
X137159Y149664D01*
X139054Y154239D01*
X142555Y157740D01*
X147130Y159635D01*
X152082Y159635D01*
X156657Y157740D01*
X157646Y156750D01*
X157733Y156674D01*
X157814Y156592D01*
X157948Y156488D01*
X158076Y156376D01*
X158173Y156314D01*
X158264Y156243D01*
X158412Y156159D01*
X158555Y156067D01*
X158659Y156018D01*
X158759Y155961D01*
X158917Y155898D01*
X159072Y155827D01*
X159182Y155793D01*
X159289Y155751D01*
X159454Y155711D01*
X159617Y155661D01*
X159731Y155644D01*
X159843Y155617D01*
X160012Y155600D01*
X160180Y155574D01*
X160295Y155573D01*
X160410Y155561D01*
X160580Y155569D01*
X160750Y155566D01*
X160864Y155581D01*
X160979Y155586D01*
X161146Y155617D01*
X161315Y155638D01*
X161426Y155669D01*
X161539Y155690D01*
X161700Y155744D01*
X161864Y155789D01*
X161970Y155835D01*
X162079Y155871D01*
X162231Y155947D01*
X162388Y156015D01*
X162486Y156075D01*
X162589Y156126D01*
X162729Y156223D01*
X162874Y156312D01*
X162963Y156385D01*
X163058Y156450D01*
X163183Y156566D01*
X163314Y156673D01*
X163392Y156758D01*
X163477Y156836D01*
X163584Y156968D01*
X163699Y157093D01*
X163764Y157188D01*
X163837Y157278D01*
X163926Y157423D01*
X164022Y157563D01*
X164073Y157666D01*
X164133Y157765D01*
X164200Y157921D01*
X164276Y158073D01*
X164312Y158183D01*
X164357Y158288D01*
X164402Y158452D01*
X164455Y158614D01*
X164476Y158727D01*
X164506Y158838D01*
X164517Y158953D01*
X164558Y159174D01*
X164571Y159506D01*
X164583Y159623D01*
X164583Y160327D01*
X164680Y160818D01*
X164872Y161280D01*
X165150Y161697D01*
X165504Y162050D01*
X165920Y162329D01*
X166382Y162520D01*
X166873Y162618D01*
X172137Y162618D01*
X172137Y154254D01*
X172137Y145890D01*
X166873Y145890D01*
X166141Y146036D01*
X166025Y146051D01*
X165911Y146075D01*
X165743Y146086D01*
X165576Y146108D01*
X165459Y146106D01*
X165343Y146114D01*
X165175Y146102D01*
X165006Y146100D01*
X164891Y146082D01*
X164775Y146073D01*
X164610Y146038D01*
X164443Y146012D01*
X164331Y145978D01*
X164217Y145953D01*
X164059Y145895D01*
X163898Y145846D01*
X163792Y145797D01*
X163683Y145757D01*
X163534Y145677D01*
X163381Y145606D01*
X163283Y145543D01*
X163181Y145487D01*
X163045Y145388D01*
X162903Y145296D01*
X162815Y145219D01*
X162721Y145150D01*
X162601Y145033D01*
X162473Y144922D01*
X162397Y144834D01*
X162313Y144752D01*
X162210Y144619D01*
X162100Y144492D01*
X162037Y144394D01*
X161965Y144301D01*
X161911Y144200D01*
X161790Y144013D01*
X161650Y143709D01*
X161594Y143606D01*
X160158Y140137D01*
X156657Y136636D01*
X152082Y134741D01*
X147130Y134741D01*
G37*
%LPD*%
%LPC*%
G36*
X101918Y134741D02*
X101918Y134741D01*
X97343Y136636D01*
X93842Y140137D01*
X91858Y144928D01*
X91832Y144980D01*
X91812Y145034D01*
X91705Y145234D01*
X91603Y145438D01*
X91571Y145485D01*
X91544Y145536D01*
X91409Y145720D01*
X91280Y145907D01*
X91241Y145949D01*
X91207Y145996D01*
X91048Y146159D01*
X90895Y146326D01*
X90850Y146363D01*
X90810Y146404D01*
X90630Y146544D01*
X90454Y146688D01*
X90405Y146718D01*
X90359Y146753D01*
X90162Y146866D01*
X89967Y146984D01*
X89914Y147007D01*
X89864Y147035D01*
X89675Y147110D01*
X89695Y147118D01*
X89745Y147144D01*
X89797Y147165D01*
X89996Y147279D01*
X90197Y147387D01*
X90243Y147420D01*
X90292Y147448D01*
X90472Y147589D01*
X90657Y147724D01*
X90697Y147763D01*
X90741Y147798D01*
X90900Y147962D01*
X91065Y148122D01*
X91099Y148167D01*
X91138Y148207D01*
X91272Y148391D01*
X91413Y148573D01*
X91434Y148613D01*
X91474Y148667D01*
X91741Y149170D01*
X91763Y149230D01*
X91784Y149269D01*
X93842Y154239D01*
X97343Y157740D01*
X101918Y159635D01*
X106870Y159635D01*
X111445Y157740D01*
X114946Y154239D01*
X116841Y149664D01*
X116841Y144712D01*
X114946Y140137D01*
X111445Y136636D01*
X106870Y134741D01*
X101918Y134741D01*
G37*
%LPD*%
%LPC*%
G36*
X92024Y65653D02*
X92024Y65653D01*
X87449Y67548D01*
X83948Y71049D01*
X82053Y75624D01*
X82053Y80576D01*
X83948Y85151D01*
X87449Y88652D01*
X92024Y90547D01*
X96976Y90547D01*
X101551Y88652D01*
X105052Y85151D01*
X106947Y80576D01*
X106947Y75624D01*
X105052Y71049D01*
X101551Y67548D01*
X96976Y65653D01*
X92024Y65653D01*
G37*
%LPD*%
%LPC*%
G36*
X150239Y189063D02*
X150239Y189063D01*
X150239Y194265D01*
X150337Y194756D01*
X150406Y194923D01*
X150450Y195055D01*
X150504Y195183D01*
X150540Y195325D01*
X150587Y195464D01*
X150612Y195600D01*
X150647Y195735D01*
X150664Y195880D01*
X150690Y196024D01*
X150696Y196163D01*
X150712Y196301D01*
X150708Y196447D01*
X150714Y196593D01*
X150700Y196731D01*
X150697Y196870D01*
X150672Y197015D01*
X150658Y197160D01*
X150625Y197295D01*
X150602Y197432D01*
X150558Y197572D01*
X150523Y197714D01*
X150472Y197843D01*
X150430Y197975D01*
X150366Y198108D01*
X150312Y198243D01*
X150243Y198364D01*
X150183Y198489D01*
X150102Y198611D01*
X150029Y198738D01*
X149944Y198848D01*
X149867Y198963D01*
X149770Y199072D01*
X149680Y199188D01*
X149580Y199285D01*
X149488Y199388D01*
X149376Y199483D01*
X149271Y199585D01*
X149159Y199667D01*
X149053Y199757D01*
X148929Y199834D01*
X148811Y199921D01*
X148688Y199986D01*
X148571Y200060D01*
X148437Y200120D01*
X148308Y200189D01*
X148178Y200237D01*
X148051Y200293D01*
X147949Y200320D01*
X147773Y200384D01*
X147384Y200467D01*
X147288Y200492D01*
X146810Y200567D01*
X145023Y201148D01*
X143349Y202001D01*
X141828Y203106D01*
X140500Y204434D01*
X139395Y205955D01*
X138542Y207629D01*
X138373Y208149D01*
X149606Y208149D01*
X160839Y208149D01*
X160670Y207629D01*
X159817Y205955D01*
X158712Y204434D01*
X157770Y203492D01*
X157695Y203405D01*
X157612Y203325D01*
X157508Y203190D01*
X157396Y203062D01*
X157334Y202965D01*
X157263Y202874D01*
X157179Y202726D01*
X157087Y202584D01*
X157038Y202479D01*
X156981Y202379D01*
X156918Y202221D01*
X156847Y202067D01*
X156813Y201957D01*
X156771Y201850D01*
X156731Y201684D01*
X156681Y201522D01*
X156664Y201408D01*
X156637Y201296D01*
X156620Y201126D01*
X156594Y200959D01*
X156593Y200844D01*
X156581Y200729D01*
X156589Y200559D01*
X156586Y200389D01*
X156601Y200275D01*
X156606Y200159D01*
X156637Y199992D01*
X156659Y199824D01*
X156689Y199712D01*
X156710Y199599D01*
X156717Y199580D01*
X156717Y189063D01*
X150239Y189063D01*
G37*
%LPD*%
%LPC*%
G36*
X181863Y629783D02*
X181863Y629783D01*
X181863Y636261D01*
X187065Y636261D01*
X187556Y636163D01*
X188018Y635972D01*
X188435Y635693D01*
X188788Y635340D01*
X189067Y634923D01*
X189258Y634461D01*
X189356Y633970D01*
X189356Y629783D01*
X181863Y629783D01*
G37*
%LPD*%
%LPC*%
G36*
X166244Y629783D02*
X166244Y629783D01*
X166244Y633970D01*
X166342Y634461D01*
X166533Y634923D01*
X166812Y635340D01*
X167165Y635693D01*
X167582Y635972D01*
X168044Y636163D01*
X168535Y636261D01*
X173737Y636261D01*
X173737Y629783D01*
X166244Y629783D01*
G37*
%LPD*%
%LPC*%
G36*
X152530Y173444D02*
X152530Y173444D01*
X152039Y173542D01*
X151577Y173733D01*
X151160Y174012D01*
X150807Y174365D01*
X150528Y174782D01*
X150337Y175244D01*
X150239Y175735D01*
X150239Y180937D01*
X156717Y180937D01*
X156717Y173444D01*
X152530Y173444D01*
G37*
%LPD*%
%LPC*%
G36*
X163563Y82163D02*
X163563Y82163D01*
X163563Y89333D01*
X164083Y89164D01*
X165757Y88311D01*
X167278Y87206D01*
X168606Y85878D01*
X169711Y84357D01*
X170564Y82683D01*
X170733Y82163D01*
X163563Y82163D01*
G37*
%LPD*%
%LPC*%
G36*
X29463Y557463D02*
X29463Y557463D01*
X29463Y564633D01*
X29983Y564464D01*
X31657Y563611D01*
X33178Y562506D01*
X34506Y561178D01*
X35611Y559657D01*
X36464Y557983D01*
X36633Y557463D01*
X29463Y557463D01*
G37*
%LPD*%
%LPC*%
G36*
X54863Y69463D02*
X54863Y69463D01*
X54863Y76633D01*
X55383Y76464D01*
X57057Y75611D01*
X58578Y74506D01*
X59906Y73178D01*
X61011Y71657D01*
X61864Y69983D01*
X62033Y69463D01*
X54863Y69463D01*
G37*
%LPD*%
%LPC*%
G36*
X153669Y216275D02*
X153669Y216275D01*
X153669Y223445D01*
X154189Y223276D01*
X155863Y222423D01*
X157384Y221318D01*
X158712Y219990D01*
X159817Y218469D01*
X160670Y216795D01*
X160839Y216275D01*
X153669Y216275D01*
G37*
%LPD*%
%LPC*%
G36*
X148267Y82163D02*
X148267Y82163D01*
X148436Y82683D01*
X149289Y84357D01*
X150394Y85878D01*
X151722Y87206D01*
X153243Y88311D01*
X154917Y89164D01*
X155437Y89333D01*
X155437Y82163D01*
X148267Y82163D01*
G37*
%LPD*%
%LPC*%
G36*
X163563Y74037D02*
X163563Y74037D01*
X170733Y74037D01*
X170564Y73517D01*
X169711Y71843D01*
X168606Y70322D01*
X167278Y68994D01*
X165757Y67889D01*
X164083Y67036D01*
X163563Y66867D01*
X163563Y74037D01*
G37*
%LPD*%
%LPC*%
G36*
X138373Y216275D02*
X138373Y216275D01*
X138542Y216795D01*
X139395Y218469D01*
X140500Y219990D01*
X141828Y221318D01*
X143349Y222423D01*
X145023Y223276D01*
X145543Y223445D01*
X145543Y216275D01*
X138373Y216275D01*
G37*
%LPD*%
%LPC*%
G36*
X154917Y67036D02*
X154917Y67036D01*
X153243Y67889D01*
X151722Y68994D01*
X150394Y70322D01*
X149289Y71843D01*
X148436Y73517D01*
X148267Y74037D01*
X155437Y74037D01*
X155437Y66867D01*
X154917Y67036D01*
G37*
%LPD*%
%LPC*%
G36*
X180263Y158317D02*
X180263Y158317D01*
X180263Y162618D01*
X185527Y162618D01*
X186018Y162520D01*
X186612Y162274D01*
X186667Y162256D01*
X186719Y162231D01*
X186936Y162165D01*
X187152Y162093D01*
X187209Y162083D01*
X187264Y162066D01*
X187275Y162064D01*
X187278Y162055D01*
X187358Y161726D01*
X187440Y161521D01*
X187473Y161412D01*
X187531Y161275D01*
X187531Y161274D01*
X187720Y160818D01*
X187817Y160327D01*
X187817Y158317D01*
X180263Y158317D01*
G37*
%LPD*%
%LPC*%
G36*
X118363Y681117D02*
X118363Y681117D01*
X118363Y685418D01*
X123627Y685418D01*
X124118Y685320D01*
X124580Y685129D01*
X124996Y684850D01*
X125350Y684497D01*
X125628Y684080D01*
X125820Y683618D01*
X125917Y683127D01*
X125917Y681117D01*
X118363Y681117D01*
G37*
%LPD*%
%LPC*%
G36*
X102683Y681117D02*
X102683Y681117D01*
X102683Y683127D01*
X102780Y683618D01*
X102972Y684080D01*
X103250Y684497D01*
X103604Y684850D01*
X104020Y685129D01*
X104482Y685320D01*
X104973Y685418D01*
X110237Y685418D01*
X110237Y681117D01*
X102683Y681117D01*
G37*
%LPD*%
%LPC*%
G36*
X180263Y145890D02*
X180263Y145890D01*
X180263Y150191D01*
X187817Y150191D01*
X187817Y148181D01*
X187720Y147690D01*
X187528Y147228D01*
X187250Y146811D01*
X186896Y146458D01*
X186480Y146179D01*
X186018Y145988D01*
X185527Y145890D01*
X180263Y145890D01*
G37*
%LPD*%
%LPC*%
G36*
X118363Y668690D02*
X118363Y668690D01*
X118363Y672991D01*
X125917Y672991D01*
X125917Y670981D01*
X125820Y670490D01*
X125628Y670028D01*
X125350Y669611D01*
X124996Y669258D01*
X124580Y668979D01*
X124118Y668788D01*
X123627Y668690D01*
X118363Y668690D01*
G37*
%LPD*%
%LPC*%
G36*
X104973Y668690D02*
X104973Y668690D01*
X104482Y668788D01*
X104020Y668979D01*
X103604Y669258D01*
X103250Y669611D01*
X102972Y670028D01*
X102780Y670490D01*
X102683Y670981D01*
X102683Y672991D01*
X110237Y672991D01*
X110237Y668690D01*
X104973Y668690D01*
G37*
%LPD*%
%LPC*%
G36*
X203850Y413159D02*
X203850Y413159D01*
X203359Y413257D01*
X202897Y413448D01*
X202480Y413727D01*
X202127Y414080D01*
X201848Y414497D01*
X201657Y414959D01*
X201559Y415450D01*
X201559Y418637D01*
X205037Y418637D01*
X205037Y413159D01*
X203850Y413159D01*
G37*
%LPD*%
D10*
X114300Y677054D03*
X114300Y647546D03*
X176200Y124746D03*
X176200Y154254D03*
D11*
X103248Y243200D03*
X49152Y243200D03*
D12*
X139700Y254252D03*
X139700Y308348D03*
D13*
X218600Y268600D03*
X193200Y268600D03*
X218600Y90800D03*
X218600Y116200D03*
X218600Y141600D03*
X218600Y167000D03*
X218600Y192400D03*
X218600Y217800D03*
X25400Y65400D03*
X50800Y65400D03*
X89700Y763900D03*
X115100Y763900D03*
X140500Y763900D03*
X165900Y763900D03*
X191300Y763900D03*
X25400Y606900D03*
X25400Y632300D03*
X25400Y657700D03*
X25400Y708500D03*
X25400Y733900D03*
X25400Y553400D03*
X25400Y528000D03*
X25400Y502600D03*
X25400Y477200D03*
X25400Y451800D03*
X25400Y426400D03*
D14*
X52500Y154300D03*
X74500Y144800D03*
X74500Y163800D03*
D15*
X25400Y165300D03*
X15900Y143300D03*
X34900Y143300D03*
X218600Y444700D03*
X209100Y422700D03*
X228100Y422700D03*
D16*
X177800Y625720D03*
X177800Y597280D03*
D17*
X65020Y116200D03*
X36580Y116200D03*
D13*
X149606Y212212D03*
X149606Y147188D03*
X104394Y212212D03*
X104394Y147188D03*
X159500Y78100D03*
X94500Y78100D03*
D17*
X189220Y185000D03*
X160780Y185000D03*
D18*
X114300Y700400D03*
X139700Y624200D03*
X88900Y319400D03*
X139700Y179700D03*
X127000Y78100D03*
D19*
X74500Y133793D02*
X74500Y144800D01*
X74500Y133793D02*
X80132Y128161D01*
X80132Y94732D01*
X50800Y65400D01*
D18*
X38100Y268600D03*
D20*
X38100Y266900D01*
X25400Y254200D01*
X25400Y165300D01*
D19*
X25400Y708500D02*
X50800Y708500D01*
X50800Y751200D01*
X50800Y708500D02*
X50800Y632300D01*
X25400Y606900D01*
X50800Y751200D02*
X61876Y762276D01*
X88076Y762276D02*
X89700Y763900D01*
X88076Y762276D02*
X61876Y762276D01*
D18*
X87571Y498000D03*
D19*
X62571Y528000D02*
X25400Y528000D01*
X62571Y528000D02*
X87571Y503000D01*
X87571Y498000D01*
D18*
X140000Y515000D03*
D19*
X170000Y485000D01*
X170000Y291800D02*
X193200Y268600D01*
X170000Y291800D02*
X170000Y485000D01*
D18*
X101600Y624200D03*
D19*
X114300Y636900D01*
X114300Y647546D01*
D18*
X203200Y471800D03*
D19*
X218600Y446400D02*
X218600Y444700D01*
X205900Y471800D02*
X203200Y471800D01*
X205900Y471800D02*
X218600Y459100D01*
X218600Y444700D01*
X218600Y167000D02*
X203000Y167000D01*
X189220Y180780D01*
X189220Y185000D02*
X189220Y239220D01*
X218600Y268600D01*
X189220Y185000D02*
X189220Y180780D01*
D18*
X203200Y573400D03*
D19*
X163452Y573400D01*
X127000Y536948D01*
X127000Y321048D01*
X139700Y308348D01*
X223076Y217800D02*
X235776Y230500D01*
X223076Y217800D02*
X218600Y217800D01*
X235776Y374224D02*
X228100Y381900D01*
X228100Y422700D01*
X235776Y374224D02*
X235776Y230500D01*
D18*
X203200Y598800D03*
D19*
X165100Y598800D02*
X114300Y548000D01*
X114300Y294000D01*
X74500Y254200D01*
X74500Y163800D01*
X165100Y598800D02*
X176280Y598800D01*
X177800Y597280D01*
X179320Y598800D01*
X203200Y598800D01*
D20*
X15900Y143300D02*
X15900Y125700D01*
X25400Y116200D01*
X38100Y116200D01*
X25400Y116200D02*
X25400Y65400D01*
D19*
X36580Y116200D02*
X38100Y116200D01*
X36600Y141600D02*
X34900Y143300D01*
X39800Y141600D02*
X52500Y154300D01*
X39800Y141600D02*
X36600Y141600D01*
X52500Y139900D02*
X52500Y154300D01*
X65020Y127380D02*
X65020Y116200D01*
X65020Y127380D02*
X52500Y139900D01*
X52500Y239852D02*
X49152Y243200D01*
X52500Y239852D02*
X52500Y154300D01*
X103248Y213358D02*
X103248Y243200D01*
X103248Y213358D02*
X104394Y212212D01*
X114300Y254252D02*
X139700Y254252D01*
X114300Y254252D02*
X103248Y243200D01*
X50800Y281300D02*
X25400Y306700D01*
X25400Y426400D01*
D18*
X76200Y281300D03*
D19*
X50800Y281300D01*
X210146Y90800D02*
X218600Y90800D01*
X210146Y90800D02*
X176200Y124746D01*
M02*
