G04 EAGLE Gerber RS-274X export*
G75*
%MOMM*%
%FSLAX34Y34*%
%LPD*%
%IN*%
%IPPOS*%
%AMOC8*
5,1,8,0,0,1.08239X$1,22.5*%
G01*
%ADD10C,0.254000*%


D10*
X0Y0D02*
X250000Y0D01*
X250000Y790000D01*
X0Y790000D01*
X0Y0D01*
X35000Y769719D02*
X34937Y769161D01*
X34812Y768614D01*
X34627Y768084D01*
X34383Y767578D01*
X34084Y767102D01*
X33734Y766663D01*
X33337Y766266D01*
X32898Y765916D01*
X32422Y765617D01*
X31916Y765373D01*
X31386Y765188D01*
X30839Y765063D01*
X30281Y765000D01*
X29719Y765000D01*
X29161Y765063D01*
X28614Y765188D01*
X28084Y765373D01*
X27578Y765617D01*
X27102Y765916D01*
X26663Y766266D01*
X26266Y766663D01*
X25916Y767102D01*
X25617Y767578D01*
X25373Y768084D01*
X25188Y768614D01*
X25063Y769161D01*
X25000Y769719D01*
X25000Y770281D01*
X25063Y770839D01*
X25188Y771386D01*
X25373Y771916D01*
X25617Y772422D01*
X25916Y772898D01*
X26266Y773337D01*
X26663Y773734D01*
X27102Y774084D01*
X27578Y774383D01*
X28084Y774627D01*
X28614Y774812D01*
X29161Y774937D01*
X29719Y775000D01*
X30281Y775000D01*
X30839Y774937D01*
X31386Y774812D01*
X31916Y774627D01*
X32422Y774383D01*
X32898Y774084D01*
X33337Y773734D01*
X33734Y773337D01*
X34084Y772898D01*
X34383Y772422D01*
X34627Y771916D01*
X34812Y771386D01*
X34937Y770839D01*
X35000Y770281D01*
X35000Y769719D01*
X225000Y769719D02*
X224937Y769161D01*
X224812Y768614D01*
X224627Y768084D01*
X224383Y767578D01*
X224084Y767102D01*
X223734Y766663D01*
X223337Y766266D01*
X222898Y765916D01*
X222422Y765617D01*
X221916Y765373D01*
X221386Y765188D01*
X220839Y765063D01*
X220281Y765000D01*
X219719Y765000D01*
X219161Y765063D01*
X218614Y765188D01*
X218084Y765373D01*
X217578Y765617D01*
X217102Y765916D01*
X216663Y766266D01*
X216266Y766663D01*
X215916Y767102D01*
X215617Y767578D01*
X215373Y768084D01*
X215188Y768614D01*
X215063Y769161D01*
X215000Y769719D01*
X215000Y770281D01*
X215063Y770839D01*
X215188Y771386D01*
X215373Y771916D01*
X215617Y772422D01*
X215916Y772898D01*
X216266Y773337D01*
X216663Y773734D01*
X217102Y774084D01*
X217578Y774383D01*
X218084Y774627D01*
X218614Y774812D01*
X219161Y774937D01*
X219719Y775000D01*
X220281Y775000D01*
X220839Y774937D01*
X221386Y774812D01*
X221916Y774627D01*
X222422Y774383D01*
X222898Y774084D01*
X223337Y773734D01*
X223734Y773337D01*
X224084Y772898D01*
X224383Y772422D01*
X224627Y771916D01*
X224812Y771386D01*
X224937Y770839D01*
X225000Y770281D01*
X225000Y769719D01*
X130000Y19719D02*
X129937Y19161D01*
X129812Y18614D01*
X129627Y18084D01*
X129383Y17578D01*
X129084Y17102D01*
X128734Y16663D01*
X128337Y16266D01*
X127898Y15916D01*
X127422Y15617D01*
X126916Y15373D01*
X126386Y15188D01*
X125839Y15063D01*
X125281Y15000D01*
X124719Y15000D01*
X124161Y15063D01*
X123614Y15188D01*
X123084Y15373D01*
X122578Y15617D01*
X122102Y15916D01*
X121663Y16266D01*
X121266Y16663D01*
X120916Y17102D01*
X120617Y17578D01*
X120373Y18084D01*
X120188Y18614D01*
X120063Y19161D01*
X120000Y19719D01*
X120000Y20281D01*
X120063Y20839D01*
X120188Y21386D01*
X120373Y21916D01*
X120617Y22422D01*
X120916Y22898D01*
X121266Y23337D01*
X121663Y23734D01*
X122102Y24084D01*
X122578Y24383D01*
X123084Y24627D01*
X123614Y24812D01*
X124161Y24937D01*
X124719Y25000D01*
X125281Y25000D01*
X125839Y24937D01*
X126386Y24812D01*
X126916Y24627D01*
X127422Y24383D01*
X127898Y24084D01*
X128337Y23734D01*
X128734Y23337D01*
X129084Y22898D01*
X129383Y22422D01*
X129627Y21916D01*
X129812Y21386D01*
X129937Y20839D01*
X130000Y20281D01*
X130000Y19719D01*
X10000Y34719D02*
X9937Y34161D01*
X9812Y33614D01*
X9627Y33084D01*
X9383Y32578D01*
X9084Y32102D01*
X8734Y31663D01*
X8337Y31266D01*
X7898Y30916D01*
X7422Y30617D01*
X6916Y30373D01*
X6386Y30188D01*
X5839Y30063D01*
X5281Y30000D01*
X4719Y30000D01*
X4161Y30063D01*
X3614Y30188D01*
X3084Y30373D01*
X2578Y30617D01*
X2102Y30916D01*
X1663Y31266D01*
X1266Y31663D01*
X916Y32102D01*
X617Y32578D01*
X373Y33084D01*
X188Y33614D01*
X63Y34161D01*
X0Y34719D01*
X0Y35281D01*
X63Y35839D01*
X188Y36386D01*
X373Y36916D01*
X617Y37422D01*
X916Y37898D01*
X1266Y38337D01*
X1663Y38734D01*
X2102Y39084D01*
X2578Y39383D01*
X3084Y39627D01*
X3614Y39812D01*
X4161Y39937D01*
X4719Y40000D01*
X5281Y40000D01*
X5839Y39937D01*
X6386Y39812D01*
X6916Y39627D01*
X7422Y39383D01*
X7898Y39084D01*
X8337Y38734D01*
X8734Y38337D01*
X9084Y37898D01*
X9383Y37422D01*
X9627Y36916D01*
X9812Y36386D01*
X9937Y35839D01*
X10000Y35281D01*
X10000Y34719D01*
X25000Y34719D02*
X24937Y34161D01*
X24812Y33614D01*
X24627Y33084D01*
X24383Y32578D01*
X24084Y32102D01*
X23734Y31663D01*
X23337Y31266D01*
X22898Y30916D01*
X22422Y30617D01*
X21916Y30373D01*
X21386Y30188D01*
X20839Y30063D01*
X20281Y30000D01*
X19719Y30000D01*
X19161Y30063D01*
X18614Y30188D01*
X18084Y30373D01*
X17578Y30617D01*
X17102Y30916D01*
X16663Y31266D01*
X16266Y31663D01*
X15916Y32102D01*
X15617Y32578D01*
X15373Y33084D01*
X15188Y33614D01*
X15063Y34161D01*
X15000Y34719D01*
X15000Y35281D01*
X15063Y35839D01*
X15188Y36386D01*
X15373Y36916D01*
X15617Y37422D01*
X15916Y37898D01*
X16266Y38337D01*
X16663Y38734D01*
X17102Y39084D01*
X17578Y39383D01*
X18084Y39627D01*
X18614Y39812D01*
X19161Y39937D01*
X19719Y40000D01*
X20281Y40000D01*
X20839Y39937D01*
X21386Y39812D01*
X21916Y39627D01*
X22422Y39383D01*
X22898Y39084D01*
X23337Y38734D01*
X23734Y38337D01*
X24084Y37898D01*
X24383Y37422D01*
X24627Y36916D01*
X24812Y36386D01*
X24937Y35839D01*
X25000Y35281D01*
X25000Y34719D01*
X40000Y34719D02*
X39937Y34161D01*
X39812Y33614D01*
X39627Y33084D01*
X39383Y32578D01*
X39084Y32102D01*
X38734Y31663D01*
X38337Y31266D01*
X37898Y30916D01*
X37422Y30617D01*
X36916Y30373D01*
X36386Y30188D01*
X35839Y30063D01*
X35281Y30000D01*
X34719Y30000D01*
X34161Y30063D01*
X33614Y30188D01*
X33084Y30373D01*
X32578Y30617D01*
X32102Y30916D01*
X31663Y31266D01*
X31266Y31663D01*
X30916Y32102D01*
X30617Y32578D01*
X30373Y33084D01*
X30188Y33614D01*
X30063Y34161D01*
X30000Y34719D01*
X30000Y35281D01*
X30063Y35839D01*
X30188Y36386D01*
X30373Y36916D01*
X30617Y37422D01*
X30916Y37898D01*
X31266Y38337D01*
X31663Y38734D01*
X32102Y39084D01*
X32578Y39383D01*
X33084Y39627D01*
X33614Y39812D01*
X34161Y39937D01*
X34719Y40000D01*
X35281Y40000D01*
X35839Y39937D01*
X36386Y39812D01*
X36916Y39627D01*
X37422Y39383D01*
X37898Y39084D01*
X38337Y38734D01*
X38734Y38337D01*
X39084Y37898D01*
X39383Y37422D01*
X39627Y36916D01*
X39812Y36386D01*
X39937Y35839D01*
X40000Y35281D01*
X40000Y34719D01*
X55000Y34719D02*
X54937Y34161D01*
X54812Y33614D01*
X54627Y33084D01*
X54383Y32578D01*
X54084Y32102D01*
X53734Y31663D01*
X53337Y31266D01*
X52898Y30916D01*
X52422Y30617D01*
X51916Y30373D01*
X51386Y30188D01*
X50839Y30063D01*
X50281Y30000D01*
X49719Y30000D01*
X49161Y30063D01*
X48614Y30188D01*
X48084Y30373D01*
X47578Y30617D01*
X47102Y30916D01*
X46663Y31266D01*
X46266Y31663D01*
X45916Y32102D01*
X45617Y32578D01*
X45373Y33084D01*
X45188Y33614D01*
X45063Y34161D01*
X45000Y34719D01*
X45000Y35281D01*
X45063Y35839D01*
X45188Y36386D01*
X45373Y36916D01*
X45617Y37422D01*
X45916Y37898D01*
X46266Y38337D01*
X46663Y38734D01*
X47102Y39084D01*
X47578Y39383D01*
X48084Y39627D01*
X48614Y39812D01*
X49161Y39937D01*
X49719Y40000D01*
X50281Y40000D01*
X50839Y39937D01*
X51386Y39812D01*
X51916Y39627D01*
X52422Y39383D01*
X52898Y39084D01*
X53337Y38734D01*
X53734Y38337D01*
X54084Y37898D01*
X54383Y37422D01*
X54627Y36916D01*
X54812Y36386D01*
X54937Y35839D01*
X55000Y35281D01*
X55000Y34719D01*
X70000Y34719D02*
X69937Y34161D01*
X69812Y33614D01*
X69627Y33084D01*
X69383Y32578D01*
X69084Y32102D01*
X68734Y31663D01*
X68337Y31266D01*
X67898Y30916D01*
X67422Y30617D01*
X66916Y30373D01*
X66386Y30188D01*
X65839Y30063D01*
X65281Y30000D01*
X64719Y30000D01*
X64161Y30063D01*
X63614Y30188D01*
X63084Y30373D01*
X62578Y30617D01*
X62102Y30916D01*
X61663Y31266D01*
X61266Y31663D01*
X60916Y32102D01*
X60617Y32578D01*
X60373Y33084D01*
X60188Y33614D01*
X60063Y34161D01*
X60000Y34719D01*
X60000Y35281D01*
X60063Y35839D01*
X60188Y36386D01*
X60373Y36916D01*
X60617Y37422D01*
X60916Y37898D01*
X61266Y38337D01*
X61663Y38734D01*
X62102Y39084D01*
X62578Y39383D01*
X63084Y39627D01*
X63614Y39812D01*
X64161Y39937D01*
X64719Y40000D01*
X65281Y40000D01*
X65839Y39937D01*
X66386Y39812D01*
X66916Y39627D01*
X67422Y39383D01*
X67898Y39084D01*
X68337Y38734D01*
X68734Y38337D01*
X69084Y37898D01*
X69383Y37422D01*
X69627Y36916D01*
X69812Y36386D01*
X69937Y35839D01*
X70000Y35281D01*
X70000Y34719D01*
X85000Y29719D02*
X84937Y29161D01*
X84812Y28614D01*
X84627Y28084D01*
X84383Y27578D01*
X84084Y27102D01*
X83734Y26663D01*
X83337Y26266D01*
X82898Y25916D01*
X82422Y25617D01*
X81916Y25373D01*
X81386Y25188D01*
X80839Y25063D01*
X80281Y25000D01*
X79719Y25000D01*
X79161Y25063D01*
X78614Y25188D01*
X78084Y25373D01*
X77578Y25617D01*
X77102Y25916D01*
X76663Y26266D01*
X76266Y26663D01*
X75916Y27102D01*
X75617Y27578D01*
X75373Y28084D01*
X75188Y28614D01*
X75063Y29161D01*
X75000Y29719D01*
X75000Y30281D01*
X75063Y30839D01*
X75188Y31386D01*
X75373Y31916D01*
X75617Y32422D01*
X75916Y32898D01*
X76266Y33337D01*
X76663Y33734D01*
X77102Y34084D01*
X77578Y34383D01*
X78084Y34627D01*
X78614Y34812D01*
X79161Y34937D01*
X79719Y35000D01*
X80281Y35000D01*
X80839Y34937D01*
X81386Y34812D01*
X81916Y34627D01*
X82422Y34383D01*
X82898Y34084D01*
X83337Y33734D01*
X83734Y33337D01*
X84084Y32898D01*
X84383Y32422D01*
X84627Y31916D01*
X84812Y31386D01*
X84937Y30839D01*
X85000Y30281D01*
X85000Y29719D01*
X95000Y19719D02*
X94937Y19161D01*
X94812Y18614D01*
X94627Y18084D01*
X94383Y17578D01*
X94084Y17102D01*
X93734Y16663D01*
X93337Y16266D01*
X92898Y15916D01*
X92422Y15617D01*
X91916Y15373D01*
X91386Y15188D01*
X90839Y15063D01*
X90281Y15000D01*
X89719Y15000D01*
X89161Y15063D01*
X88614Y15188D01*
X88084Y15373D01*
X87578Y15617D01*
X87102Y15916D01*
X86663Y16266D01*
X86266Y16663D01*
X85916Y17102D01*
X85617Y17578D01*
X85373Y18084D01*
X85188Y18614D01*
X85063Y19161D01*
X85000Y19719D01*
X85000Y20281D01*
X85063Y20839D01*
X85188Y21386D01*
X85373Y21916D01*
X85617Y22422D01*
X85916Y22898D01*
X86266Y23337D01*
X86663Y23734D01*
X87102Y24084D01*
X87578Y24383D01*
X88084Y24627D01*
X88614Y24812D01*
X89161Y24937D01*
X89719Y25000D01*
X90281Y25000D01*
X90839Y24937D01*
X91386Y24812D01*
X91916Y24627D01*
X92422Y24383D01*
X92898Y24084D01*
X93337Y23734D01*
X93734Y23337D01*
X94084Y22898D01*
X94383Y22422D01*
X94627Y21916D01*
X94812Y21386D01*
X94937Y20839D01*
X95000Y20281D01*
X95000Y19719D01*
X105000Y9719D02*
X104937Y9161D01*
X104812Y8614D01*
X104627Y8084D01*
X104383Y7578D01*
X104084Y7102D01*
X103734Y6663D01*
X103337Y6266D01*
X102898Y5916D01*
X102422Y5617D01*
X101916Y5373D01*
X101386Y5188D01*
X100839Y5063D01*
X100281Y5000D01*
X99719Y5000D01*
X99161Y5063D01*
X98614Y5188D01*
X98084Y5373D01*
X97578Y5617D01*
X97102Y5916D01*
X96663Y6266D01*
X96266Y6663D01*
X95916Y7102D01*
X95617Y7578D01*
X95373Y8084D01*
X95188Y8614D01*
X95063Y9161D01*
X95000Y9719D01*
X95000Y10281D01*
X95063Y10839D01*
X95188Y11386D01*
X95373Y11916D01*
X95617Y12422D01*
X95916Y12898D01*
X96266Y13337D01*
X96663Y13734D01*
X97102Y14084D01*
X97578Y14383D01*
X98084Y14627D01*
X98614Y14812D01*
X99161Y14937D01*
X99719Y15000D01*
X100281Y15000D01*
X100839Y14937D01*
X101386Y14812D01*
X101916Y14627D01*
X102422Y14383D01*
X102898Y14084D01*
X103337Y13734D01*
X103734Y13337D01*
X104084Y12898D01*
X104383Y12422D01*
X104627Y11916D01*
X104812Y11386D01*
X104937Y10839D01*
X105000Y10281D01*
X105000Y9719D01*
X250000Y34719D02*
X249937Y34161D01*
X249812Y33614D01*
X249627Y33084D01*
X249383Y32578D01*
X249084Y32102D01*
X248734Y31663D01*
X248337Y31266D01*
X247898Y30916D01*
X247422Y30617D01*
X246916Y30373D01*
X246386Y30188D01*
X245839Y30063D01*
X245281Y30000D01*
X244719Y30000D01*
X244161Y30063D01*
X243614Y30188D01*
X243084Y30373D01*
X242578Y30617D01*
X242102Y30916D01*
X241663Y31266D01*
X241266Y31663D01*
X240916Y32102D01*
X240617Y32578D01*
X240373Y33084D01*
X240188Y33614D01*
X240063Y34161D01*
X240000Y34719D01*
X240000Y35281D01*
X240063Y35839D01*
X240188Y36386D01*
X240373Y36916D01*
X240617Y37422D01*
X240916Y37898D01*
X241266Y38337D01*
X241663Y38734D01*
X242102Y39084D01*
X242578Y39383D01*
X243084Y39627D01*
X243614Y39812D01*
X244161Y39937D01*
X244719Y40000D01*
X245281Y40000D01*
X245839Y39937D01*
X246386Y39812D01*
X246916Y39627D01*
X247422Y39383D01*
X247898Y39084D01*
X248337Y38734D01*
X248734Y38337D01*
X249084Y37898D01*
X249383Y37422D01*
X249627Y36916D01*
X249812Y36386D01*
X249937Y35839D01*
X250000Y35281D01*
X250000Y34719D01*
X235000Y34719D02*
X234937Y34161D01*
X234812Y33614D01*
X234627Y33084D01*
X234383Y32578D01*
X234084Y32102D01*
X233734Y31663D01*
X233337Y31266D01*
X232898Y30916D01*
X232422Y30617D01*
X231916Y30373D01*
X231386Y30188D01*
X230839Y30063D01*
X230281Y30000D01*
X229719Y30000D01*
X229161Y30063D01*
X228614Y30188D01*
X228084Y30373D01*
X227578Y30617D01*
X227102Y30916D01*
X226663Y31266D01*
X226266Y31663D01*
X225916Y32102D01*
X225617Y32578D01*
X225373Y33084D01*
X225188Y33614D01*
X225063Y34161D01*
X225000Y34719D01*
X225000Y35281D01*
X225063Y35839D01*
X225188Y36386D01*
X225373Y36916D01*
X225617Y37422D01*
X225916Y37898D01*
X226266Y38337D01*
X226663Y38734D01*
X227102Y39084D01*
X227578Y39383D01*
X228084Y39627D01*
X228614Y39812D01*
X229161Y39937D01*
X229719Y40000D01*
X230281Y40000D01*
X230839Y39937D01*
X231386Y39812D01*
X231916Y39627D01*
X232422Y39383D01*
X232898Y39084D01*
X233337Y38734D01*
X233734Y38337D01*
X234084Y37898D01*
X234383Y37422D01*
X234627Y36916D01*
X234812Y36386D01*
X234937Y35839D01*
X235000Y35281D01*
X235000Y34719D01*
X220000Y34719D02*
X219937Y34161D01*
X219812Y33614D01*
X219627Y33084D01*
X219383Y32578D01*
X219084Y32102D01*
X218734Y31663D01*
X218337Y31266D01*
X217898Y30916D01*
X217422Y30617D01*
X216916Y30373D01*
X216386Y30188D01*
X215839Y30063D01*
X215281Y30000D01*
X214719Y30000D01*
X214161Y30063D01*
X213614Y30188D01*
X213084Y30373D01*
X212578Y30617D01*
X212102Y30916D01*
X211663Y31266D01*
X211266Y31663D01*
X210916Y32102D01*
X210617Y32578D01*
X210373Y33084D01*
X210188Y33614D01*
X210063Y34161D01*
X210000Y34719D01*
X210000Y35281D01*
X210063Y35839D01*
X210188Y36386D01*
X210373Y36916D01*
X210617Y37422D01*
X210916Y37898D01*
X211266Y38337D01*
X211663Y38734D01*
X212102Y39084D01*
X212578Y39383D01*
X213084Y39627D01*
X213614Y39812D01*
X214161Y39937D01*
X214719Y40000D01*
X215281Y40000D01*
X215839Y39937D01*
X216386Y39812D01*
X216916Y39627D01*
X217422Y39383D01*
X217898Y39084D01*
X218337Y38734D01*
X218734Y38337D01*
X219084Y37898D01*
X219383Y37422D01*
X219627Y36916D01*
X219812Y36386D01*
X219937Y35839D01*
X220000Y35281D01*
X220000Y34719D01*
X205000Y34719D02*
X204937Y34161D01*
X204812Y33614D01*
X204627Y33084D01*
X204383Y32578D01*
X204084Y32102D01*
X203734Y31663D01*
X203337Y31266D01*
X202898Y30916D01*
X202422Y30617D01*
X201916Y30373D01*
X201386Y30188D01*
X200839Y30063D01*
X200281Y30000D01*
X199719Y30000D01*
X199161Y30063D01*
X198614Y30188D01*
X198084Y30373D01*
X197578Y30617D01*
X197102Y30916D01*
X196663Y31266D01*
X196266Y31663D01*
X195916Y32102D01*
X195617Y32578D01*
X195373Y33084D01*
X195188Y33614D01*
X195063Y34161D01*
X195000Y34719D01*
X195000Y35281D01*
X195063Y35839D01*
X195188Y36386D01*
X195373Y36916D01*
X195617Y37422D01*
X195916Y37898D01*
X196266Y38337D01*
X196663Y38734D01*
X197102Y39084D01*
X197578Y39383D01*
X198084Y39627D01*
X198614Y39812D01*
X199161Y39937D01*
X199719Y40000D01*
X200281Y40000D01*
X200839Y39937D01*
X201386Y39812D01*
X201916Y39627D01*
X202422Y39383D01*
X202898Y39084D01*
X203337Y38734D01*
X203734Y38337D01*
X204084Y37898D01*
X204383Y37422D01*
X204627Y36916D01*
X204812Y36386D01*
X204937Y35839D01*
X205000Y35281D01*
X205000Y34719D01*
X190000Y34719D02*
X189937Y34161D01*
X189812Y33614D01*
X189627Y33084D01*
X189383Y32578D01*
X189084Y32102D01*
X188734Y31663D01*
X188337Y31266D01*
X187898Y30916D01*
X187422Y30617D01*
X186916Y30373D01*
X186386Y30188D01*
X185839Y30063D01*
X185281Y30000D01*
X184719Y30000D01*
X184161Y30063D01*
X183614Y30188D01*
X183084Y30373D01*
X182578Y30617D01*
X182102Y30916D01*
X181663Y31266D01*
X181266Y31663D01*
X180916Y32102D01*
X180617Y32578D01*
X180373Y33084D01*
X180188Y33614D01*
X180063Y34161D01*
X180000Y34719D01*
X180000Y35281D01*
X180063Y35839D01*
X180188Y36386D01*
X180373Y36916D01*
X180617Y37422D01*
X180916Y37898D01*
X181266Y38337D01*
X181663Y38734D01*
X182102Y39084D01*
X182578Y39383D01*
X183084Y39627D01*
X183614Y39812D01*
X184161Y39937D01*
X184719Y40000D01*
X185281Y40000D01*
X185839Y39937D01*
X186386Y39812D01*
X186916Y39627D01*
X187422Y39383D01*
X187898Y39084D01*
X188337Y38734D01*
X188734Y38337D01*
X189084Y37898D01*
X189383Y37422D01*
X189627Y36916D01*
X189812Y36386D01*
X189937Y35839D01*
X190000Y35281D01*
X190000Y34719D01*
X155000Y9719D02*
X154937Y9161D01*
X154812Y8614D01*
X154627Y8084D01*
X154383Y7578D01*
X154084Y7102D01*
X153734Y6663D01*
X153337Y6266D01*
X152898Y5916D01*
X152422Y5617D01*
X151916Y5373D01*
X151386Y5188D01*
X150839Y5063D01*
X150281Y5000D01*
X149719Y5000D01*
X149161Y5063D01*
X148614Y5188D01*
X148084Y5373D01*
X147578Y5617D01*
X147102Y5916D01*
X146663Y6266D01*
X146266Y6663D01*
X145916Y7102D01*
X145617Y7578D01*
X145373Y8084D01*
X145188Y8614D01*
X145063Y9161D01*
X145000Y9719D01*
X145000Y10281D01*
X145063Y10839D01*
X145188Y11386D01*
X145373Y11916D01*
X145617Y12422D01*
X145916Y12898D01*
X146266Y13337D01*
X146663Y13734D01*
X147102Y14084D01*
X147578Y14383D01*
X148084Y14627D01*
X148614Y14812D01*
X149161Y14937D01*
X149719Y15000D01*
X150281Y15000D01*
X150839Y14937D01*
X151386Y14812D01*
X151916Y14627D01*
X152422Y14383D01*
X152898Y14084D01*
X153337Y13734D01*
X153734Y13337D01*
X154084Y12898D01*
X154383Y12422D01*
X154627Y11916D01*
X154812Y11386D01*
X154937Y10839D01*
X155000Y10281D01*
X155000Y9719D01*
X165000Y19719D02*
X164937Y19161D01*
X164812Y18614D01*
X164627Y18084D01*
X164383Y17578D01*
X164084Y17102D01*
X163734Y16663D01*
X163337Y16266D01*
X162898Y15916D01*
X162422Y15617D01*
X161916Y15373D01*
X161386Y15188D01*
X160839Y15063D01*
X160281Y15000D01*
X159719Y15000D01*
X159161Y15063D01*
X158614Y15188D01*
X158084Y15373D01*
X157578Y15617D01*
X157102Y15916D01*
X156663Y16266D01*
X156266Y16663D01*
X155916Y17102D01*
X155617Y17578D01*
X155373Y18084D01*
X155188Y18614D01*
X155063Y19161D01*
X155000Y19719D01*
X155000Y20281D01*
X155063Y20839D01*
X155188Y21386D01*
X155373Y21916D01*
X155617Y22422D01*
X155916Y22898D01*
X156266Y23337D01*
X156663Y23734D01*
X157102Y24084D01*
X157578Y24383D01*
X158084Y24627D01*
X158614Y24812D01*
X159161Y24937D01*
X159719Y25000D01*
X160281Y25000D01*
X160839Y24937D01*
X161386Y24812D01*
X161916Y24627D01*
X162422Y24383D01*
X162898Y24084D01*
X163337Y23734D01*
X163734Y23337D01*
X164084Y22898D01*
X164383Y22422D01*
X164627Y21916D01*
X164812Y21386D01*
X164937Y20839D01*
X165000Y20281D01*
X165000Y19719D01*
X175000Y29719D02*
X174937Y29161D01*
X174812Y28614D01*
X174627Y28084D01*
X174383Y27578D01*
X174084Y27102D01*
X173734Y26663D01*
X173337Y26266D01*
X172898Y25916D01*
X172422Y25617D01*
X171916Y25373D01*
X171386Y25188D01*
X170839Y25063D01*
X170281Y25000D01*
X169719Y25000D01*
X169161Y25063D01*
X168614Y25188D01*
X168084Y25373D01*
X167578Y25617D01*
X167102Y25916D01*
X166663Y26266D01*
X166266Y26663D01*
X165916Y27102D01*
X165617Y27578D01*
X165373Y28084D01*
X165188Y28614D01*
X165063Y29161D01*
X165000Y29719D01*
X165000Y30281D01*
X165063Y30839D01*
X165188Y31386D01*
X165373Y31916D01*
X165617Y32422D01*
X165916Y32898D01*
X166266Y33337D01*
X166663Y33734D01*
X167102Y34084D01*
X167578Y34383D01*
X168084Y34627D01*
X168614Y34812D01*
X169161Y34937D01*
X169719Y35000D01*
X170281Y35000D01*
X170839Y34937D01*
X171386Y34812D01*
X171916Y34627D01*
X172422Y34383D01*
X172898Y34084D01*
X173337Y33734D01*
X173734Y33337D01*
X174084Y32898D01*
X174383Y32422D01*
X174627Y31916D01*
X174812Y31386D01*
X174937Y30839D01*
X175000Y30281D01*
X175000Y29719D01*
M02*
