G04 EAGLE Gerber RS-274X export*
G75*
%MOMM*%
%FSLAX34Y34*%
%LPD*%
%INSilkscreen Top*%
%IPPOS*%
%AMOC8*
5,1,8,0,0,1.08239X$1,22.5*%
G01*
%ADD10C,0.203200*%
%ADD11C,0.127000*%
%ADD12C,0.101600*%
%ADD13C,0.500000*%
%ADD14C,0.120000*%


D10*
X224950Y255900D02*
X212250Y255900D01*
X205900Y262250D01*
X205900Y274950D02*
X212250Y281300D01*
X205900Y262250D02*
X199550Y255900D01*
X186850Y255900D01*
X180500Y262250D01*
X180500Y274950D02*
X186850Y281300D01*
X199550Y281300D01*
X205900Y274950D01*
X231300Y274950D02*
X231300Y262250D01*
X224950Y255900D01*
X231300Y274950D02*
X224950Y281300D01*
X212250Y281300D01*
X180500Y274950D02*
X180500Y262250D01*
D11*
X225036Y253995D02*
X225036Y250241D01*
X225034Y250176D01*
X225028Y250112D01*
X225018Y250048D01*
X225005Y249984D01*
X224987Y249922D01*
X224966Y249861D01*
X224942Y249801D01*
X224913Y249743D01*
X224881Y249686D01*
X224846Y249632D01*
X224808Y249580D01*
X224766Y249530D01*
X224722Y249483D01*
X224675Y249439D01*
X224625Y249397D01*
X224573Y249359D01*
X224519Y249324D01*
X224462Y249292D01*
X224404Y249263D01*
X224344Y249239D01*
X224283Y249218D01*
X224221Y249200D01*
X224157Y249187D01*
X224093Y249177D01*
X224029Y249171D01*
X223964Y249169D01*
X223427Y249169D01*
X227984Y252923D02*
X229324Y253995D01*
X229324Y249169D01*
X227984Y249169D02*
X230665Y249169D01*
D10*
X205900Y211450D02*
X212250Y205100D01*
X205900Y211450D02*
X205900Y224150D01*
X212250Y230500D01*
X224950Y230500D02*
X231300Y224150D01*
X231300Y211450D01*
X224950Y205100D01*
X205900Y173350D02*
X205900Y160650D01*
X205900Y173350D02*
X212250Y179700D01*
X224950Y179700D02*
X231300Y173350D01*
X212250Y179700D02*
X205900Y186050D01*
X205900Y198750D01*
X212250Y205100D01*
X224950Y205100D02*
X231300Y198750D01*
X231300Y186050D01*
X224950Y179700D01*
X205900Y135250D02*
X212250Y128900D01*
X205900Y135250D02*
X205900Y147950D01*
X212250Y154300D01*
X224950Y154300D02*
X231300Y147950D01*
X231300Y135250D01*
X224950Y128900D01*
X212250Y154300D02*
X205900Y160650D01*
X224950Y154300D02*
X231300Y160650D01*
X231300Y173350D01*
X205900Y97150D02*
X205900Y84450D01*
X205900Y97150D02*
X212250Y103500D01*
X224950Y103500D02*
X231300Y97150D01*
X212250Y103500D02*
X205900Y109850D01*
X205900Y122550D01*
X212250Y128900D01*
X224950Y128900D02*
X231300Y122550D01*
X231300Y109850D01*
X224950Y103500D01*
X224950Y78100D02*
X212250Y78100D01*
X205900Y84450D01*
X224950Y78100D02*
X231300Y84450D01*
X231300Y97150D01*
X224950Y230500D02*
X212250Y230500D01*
D11*
X202923Y80344D02*
X199169Y80344D01*
X202923Y80343D02*
X202988Y80341D01*
X203052Y80335D01*
X203116Y80325D01*
X203180Y80312D01*
X203242Y80294D01*
X203303Y80273D01*
X203363Y80249D01*
X203421Y80220D01*
X203478Y80188D01*
X203532Y80153D01*
X203584Y80115D01*
X203634Y80073D01*
X203681Y80029D01*
X203725Y79982D01*
X203767Y79932D01*
X203805Y79880D01*
X203840Y79826D01*
X203872Y79769D01*
X203901Y79711D01*
X203925Y79651D01*
X203946Y79590D01*
X203964Y79528D01*
X203977Y79464D01*
X203987Y79400D01*
X203993Y79336D01*
X203995Y79271D01*
X203995Y78735D01*
X199169Y84766D02*
X199171Y84834D01*
X199177Y84901D01*
X199186Y84968D01*
X199199Y85035D01*
X199216Y85100D01*
X199237Y85165D01*
X199261Y85228D01*
X199289Y85290D01*
X199320Y85350D01*
X199354Y85408D01*
X199392Y85464D01*
X199432Y85519D01*
X199476Y85570D01*
X199523Y85619D01*
X199572Y85666D01*
X199623Y85710D01*
X199678Y85750D01*
X199734Y85788D01*
X199792Y85822D01*
X199852Y85853D01*
X199914Y85881D01*
X199977Y85905D01*
X200042Y85926D01*
X200107Y85943D01*
X200174Y85956D01*
X200241Y85965D01*
X200308Y85971D01*
X200376Y85973D01*
X199169Y84766D02*
X199171Y84688D01*
X199177Y84610D01*
X199187Y84533D01*
X199200Y84456D01*
X199218Y84380D01*
X199239Y84305D01*
X199264Y84231D01*
X199293Y84159D01*
X199325Y84088D01*
X199361Y84019D01*
X199400Y83951D01*
X199443Y83886D01*
X199489Y83823D01*
X199538Y83762D01*
X199590Y83704D01*
X199645Y83649D01*
X199702Y83596D01*
X199762Y83547D01*
X199825Y83500D01*
X199890Y83457D01*
X199956Y83417D01*
X200025Y83380D01*
X200096Y83347D01*
X200168Y83317D01*
X200242Y83291D01*
X201314Y85571D02*
X201265Y85620D01*
X201213Y85667D01*
X201158Y85710D01*
X201101Y85751D01*
X201042Y85789D01*
X200981Y85823D01*
X200918Y85854D01*
X200854Y85882D01*
X200788Y85906D01*
X200722Y85926D01*
X200654Y85943D01*
X200585Y85956D01*
X200516Y85965D01*
X200446Y85971D01*
X200376Y85973D01*
X201314Y85571D02*
X203995Y83292D01*
X203995Y85973D01*
D10*
X31750Y78100D02*
X19050Y78100D01*
X31750Y78100D02*
X38100Y71750D01*
X38100Y59050D02*
X31750Y52700D01*
X38100Y71750D02*
X44450Y78100D01*
X57150Y78100D01*
X63500Y71750D01*
X63500Y59050D02*
X57150Y52700D01*
X44450Y52700D01*
X38100Y59050D01*
X12700Y59050D02*
X12700Y71750D01*
X19050Y78100D01*
X12700Y59050D02*
X19050Y52700D01*
X31750Y52700D01*
X63500Y59050D02*
X63500Y71750D01*
D11*
X14944Y81077D02*
X14944Y84831D01*
X14943Y81077D02*
X14941Y81012D01*
X14935Y80948D01*
X14925Y80884D01*
X14912Y80820D01*
X14894Y80758D01*
X14873Y80697D01*
X14849Y80637D01*
X14820Y80579D01*
X14788Y80522D01*
X14753Y80468D01*
X14715Y80416D01*
X14673Y80366D01*
X14629Y80319D01*
X14582Y80275D01*
X14532Y80233D01*
X14480Y80195D01*
X14426Y80160D01*
X14369Y80128D01*
X14311Y80099D01*
X14251Y80075D01*
X14190Y80054D01*
X14128Y80036D01*
X14064Y80023D01*
X14000Y80013D01*
X13936Y80007D01*
X13871Y80005D01*
X13335Y80005D01*
X17892Y80005D02*
X19232Y80005D01*
X19303Y80007D01*
X19375Y80013D01*
X19445Y80022D01*
X19515Y80035D01*
X19585Y80052D01*
X19653Y80073D01*
X19720Y80097D01*
X19786Y80125D01*
X19850Y80156D01*
X19913Y80191D01*
X19973Y80229D01*
X20032Y80270D01*
X20088Y80314D01*
X20142Y80361D01*
X20193Y80410D01*
X20241Y80463D01*
X20287Y80518D01*
X20329Y80575D01*
X20369Y80635D01*
X20405Y80696D01*
X20438Y80760D01*
X20467Y80825D01*
X20493Y80891D01*
X20516Y80959D01*
X20535Y81028D01*
X20550Y81098D01*
X20561Y81168D01*
X20569Y81239D01*
X20573Y81310D01*
X20573Y81382D01*
X20569Y81453D01*
X20561Y81524D01*
X20550Y81594D01*
X20535Y81664D01*
X20516Y81733D01*
X20493Y81801D01*
X20467Y81867D01*
X20438Y81932D01*
X20405Y81996D01*
X20369Y82057D01*
X20329Y82117D01*
X20287Y82174D01*
X20241Y82229D01*
X20193Y82282D01*
X20142Y82331D01*
X20088Y82378D01*
X20032Y82422D01*
X19973Y82463D01*
X19913Y82501D01*
X19850Y82536D01*
X19786Y82567D01*
X19720Y82595D01*
X19653Y82619D01*
X19585Y82640D01*
X19515Y82657D01*
X19445Y82670D01*
X19375Y82679D01*
X19303Y82685D01*
X19232Y82687D01*
X19500Y84831D02*
X17892Y84831D01*
X19500Y84831D02*
X19565Y84829D01*
X19629Y84823D01*
X19693Y84813D01*
X19757Y84800D01*
X19819Y84782D01*
X19880Y84761D01*
X19940Y84737D01*
X19998Y84708D01*
X20055Y84676D01*
X20109Y84641D01*
X20161Y84603D01*
X20211Y84561D01*
X20258Y84517D01*
X20302Y84470D01*
X20344Y84420D01*
X20382Y84368D01*
X20417Y84314D01*
X20449Y84257D01*
X20478Y84199D01*
X20502Y84139D01*
X20523Y84078D01*
X20541Y84016D01*
X20554Y83952D01*
X20564Y83888D01*
X20570Y83824D01*
X20572Y83759D01*
X20570Y83694D01*
X20564Y83630D01*
X20554Y83566D01*
X20541Y83502D01*
X20523Y83440D01*
X20502Y83379D01*
X20478Y83319D01*
X20449Y83261D01*
X20417Y83204D01*
X20382Y83150D01*
X20344Y83098D01*
X20302Y83048D01*
X20258Y83001D01*
X20211Y82957D01*
X20161Y82915D01*
X20109Y82877D01*
X20055Y82842D01*
X19998Y82810D01*
X19940Y82781D01*
X19880Y82757D01*
X19819Y82736D01*
X19757Y82718D01*
X19693Y82705D01*
X19629Y82695D01*
X19565Y82689D01*
X19500Y82687D01*
X19500Y82686D02*
X18428Y82686D01*
D10*
X159550Y776600D02*
X172250Y776600D01*
X178600Y770250D01*
X178600Y757550D02*
X172250Y751200D01*
X178600Y770250D02*
X184950Y776600D01*
X197650Y776600D01*
X204000Y770250D01*
X204000Y757550D02*
X197650Y751200D01*
X184950Y751200D01*
X178600Y757550D01*
X134150Y776600D02*
X127800Y770250D01*
X134150Y776600D02*
X146850Y776600D01*
X153200Y770250D01*
X153200Y757550D02*
X146850Y751200D01*
X134150Y751200D01*
X127800Y757550D01*
X153200Y770250D02*
X159550Y776600D01*
X153200Y757550D02*
X159550Y751200D01*
X172250Y751200D01*
X96050Y776600D02*
X83350Y776600D01*
X96050Y776600D02*
X102400Y770250D01*
X102400Y757550D02*
X96050Y751200D01*
X102400Y770250D02*
X108750Y776600D01*
X121450Y776600D01*
X127800Y770250D01*
X127800Y757550D02*
X121450Y751200D01*
X108750Y751200D01*
X102400Y757550D01*
X77000Y757550D02*
X77000Y770250D01*
X83350Y776600D01*
X77000Y757550D02*
X83350Y751200D01*
X96050Y751200D01*
X204000Y757550D02*
X204000Y770250D01*
D11*
X79244Y779577D02*
X79244Y783331D01*
X79243Y779577D02*
X79241Y779512D01*
X79235Y779448D01*
X79225Y779384D01*
X79212Y779320D01*
X79194Y779258D01*
X79173Y779197D01*
X79149Y779137D01*
X79120Y779079D01*
X79088Y779022D01*
X79053Y778968D01*
X79015Y778916D01*
X78973Y778866D01*
X78929Y778819D01*
X78882Y778775D01*
X78832Y778733D01*
X78780Y778695D01*
X78726Y778660D01*
X78669Y778628D01*
X78611Y778599D01*
X78551Y778575D01*
X78490Y778554D01*
X78428Y778536D01*
X78364Y778523D01*
X78300Y778513D01*
X78236Y778507D01*
X78171Y778505D01*
X77635Y778505D01*
X82192Y779577D02*
X83264Y783331D01*
X82192Y779577D02*
X84873Y779577D01*
X84068Y778505D02*
X84068Y780650D01*
D10*
X12700Y651350D02*
X19050Y645000D01*
X12700Y651350D02*
X12700Y664050D01*
X19050Y670400D01*
X31750Y670400D02*
X38100Y664050D01*
X38100Y651350D01*
X31750Y645000D01*
X12700Y613250D02*
X12700Y600550D01*
X12700Y613250D02*
X19050Y619600D01*
X31750Y619600D02*
X38100Y613250D01*
X19050Y619600D02*
X12700Y625950D01*
X12700Y638650D01*
X19050Y645000D01*
X31750Y645000D02*
X38100Y638650D01*
X38100Y625950D01*
X31750Y619600D01*
X31750Y594200D02*
X19050Y594200D01*
X12700Y600550D01*
X31750Y594200D02*
X38100Y600550D01*
X38100Y613250D01*
X31750Y670400D02*
X19050Y670400D01*
D11*
X9723Y596444D02*
X5969Y596444D01*
X9723Y596443D02*
X9788Y596441D01*
X9852Y596435D01*
X9916Y596425D01*
X9980Y596412D01*
X10042Y596394D01*
X10103Y596373D01*
X10163Y596349D01*
X10221Y596320D01*
X10278Y596288D01*
X10332Y596253D01*
X10384Y596215D01*
X10434Y596173D01*
X10481Y596129D01*
X10525Y596082D01*
X10567Y596032D01*
X10605Y595980D01*
X10640Y595926D01*
X10672Y595869D01*
X10701Y595811D01*
X10725Y595751D01*
X10746Y595690D01*
X10764Y595628D01*
X10777Y595564D01*
X10787Y595500D01*
X10793Y595436D01*
X10795Y595371D01*
X10795Y594835D01*
X10795Y599392D02*
X10795Y601000D01*
X10793Y601065D01*
X10787Y601129D01*
X10777Y601193D01*
X10764Y601257D01*
X10746Y601319D01*
X10725Y601380D01*
X10701Y601440D01*
X10672Y601498D01*
X10640Y601555D01*
X10605Y601609D01*
X10567Y601661D01*
X10525Y601711D01*
X10481Y601758D01*
X10434Y601802D01*
X10384Y601844D01*
X10332Y601882D01*
X10278Y601917D01*
X10221Y601949D01*
X10163Y601978D01*
X10103Y602002D01*
X10042Y602023D01*
X9980Y602041D01*
X9916Y602054D01*
X9852Y602064D01*
X9788Y602070D01*
X9723Y602072D01*
X9723Y602073D02*
X9186Y602073D01*
X9186Y602072D02*
X9121Y602070D01*
X9057Y602064D01*
X8993Y602054D01*
X8929Y602041D01*
X8867Y602023D01*
X8806Y602002D01*
X8746Y601978D01*
X8688Y601949D01*
X8631Y601917D01*
X8577Y601882D01*
X8525Y601844D01*
X8475Y601802D01*
X8428Y601758D01*
X8384Y601711D01*
X8342Y601661D01*
X8304Y601609D01*
X8269Y601555D01*
X8237Y601498D01*
X8208Y601440D01*
X8184Y601380D01*
X8163Y601319D01*
X8145Y601257D01*
X8132Y601193D01*
X8122Y601129D01*
X8116Y601065D01*
X8114Y601000D01*
X8114Y599392D01*
X5969Y599392D01*
X5969Y602073D01*
D10*
X12700Y702150D02*
X12700Y714850D01*
X19050Y721200D01*
X31750Y721200D02*
X38100Y714850D01*
X19050Y721200D02*
X12700Y727550D01*
X12700Y740250D01*
X19050Y746600D01*
X31750Y746600D02*
X38100Y740250D01*
X38100Y727550D01*
X31750Y721200D01*
X31750Y695800D02*
X19050Y695800D01*
X12700Y702150D01*
X31750Y695800D02*
X38100Y702150D01*
X38100Y714850D01*
X31750Y746600D02*
X19050Y746600D01*
D11*
X9723Y698044D02*
X5969Y698044D01*
X9723Y698043D02*
X9788Y698041D01*
X9852Y698035D01*
X9916Y698025D01*
X9980Y698012D01*
X10042Y697994D01*
X10103Y697973D01*
X10163Y697949D01*
X10221Y697920D01*
X10278Y697888D01*
X10332Y697853D01*
X10384Y697815D01*
X10434Y697773D01*
X10481Y697729D01*
X10525Y697682D01*
X10567Y697632D01*
X10605Y697580D01*
X10640Y697526D01*
X10672Y697469D01*
X10701Y697411D01*
X10725Y697351D01*
X10746Y697290D01*
X10764Y697228D01*
X10777Y697164D01*
X10787Y697100D01*
X10793Y697036D01*
X10795Y696971D01*
X10795Y696435D01*
X8114Y700992D02*
X8114Y702600D01*
X8116Y702665D01*
X8122Y702729D01*
X8132Y702793D01*
X8145Y702857D01*
X8163Y702919D01*
X8184Y702980D01*
X8208Y703040D01*
X8237Y703098D01*
X8269Y703155D01*
X8304Y703209D01*
X8342Y703261D01*
X8384Y703311D01*
X8428Y703358D01*
X8475Y703402D01*
X8525Y703444D01*
X8577Y703482D01*
X8631Y703517D01*
X8688Y703549D01*
X8746Y703578D01*
X8806Y703602D01*
X8867Y703623D01*
X8929Y703641D01*
X8993Y703654D01*
X9057Y703664D01*
X9121Y703670D01*
X9186Y703672D01*
X9186Y703673D02*
X9454Y703673D01*
X9525Y703671D01*
X9597Y703665D01*
X9667Y703656D01*
X9737Y703643D01*
X9807Y703626D01*
X9875Y703605D01*
X9942Y703581D01*
X10008Y703553D01*
X10072Y703522D01*
X10135Y703487D01*
X10195Y703449D01*
X10254Y703408D01*
X10310Y703364D01*
X10364Y703317D01*
X10415Y703268D01*
X10463Y703215D01*
X10509Y703160D01*
X10551Y703103D01*
X10591Y703043D01*
X10627Y702982D01*
X10660Y702918D01*
X10689Y702853D01*
X10715Y702787D01*
X10738Y702719D01*
X10757Y702650D01*
X10772Y702580D01*
X10783Y702510D01*
X10791Y702439D01*
X10795Y702368D01*
X10795Y702296D01*
X10791Y702225D01*
X10783Y702154D01*
X10772Y702084D01*
X10757Y702014D01*
X10738Y701945D01*
X10715Y701877D01*
X10689Y701811D01*
X10660Y701746D01*
X10627Y701682D01*
X10591Y701621D01*
X10551Y701561D01*
X10509Y701504D01*
X10463Y701449D01*
X10415Y701396D01*
X10364Y701347D01*
X10310Y701300D01*
X10254Y701256D01*
X10195Y701215D01*
X10135Y701177D01*
X10072Y701142D01*
X10008Y701111D01*
X9942Y701083D01*
X9875Y701059D01*
X9807Y701038D01*
X9737Y701021D01*
X9667Y701008D01*
X9597Y700999D01*
X9525Y700993D01*
X9454Y700991D01*
X9454Y700992D02*
X8114Y700992D01*
X8023Y700994D01*
X7932Y701000D01*
X7842Y701009D01*
X7751Y701023D01*
X7662Y701040D01*
X7574Y701061D01*
X7486Y701086D01*
X7399Y701115D01*
X7314Y701147D01*
X7230Y701182D01*
X7148Y701222D01*
X7068Y701264D01*
X6989Y701310D01*
X6913Y701360D01*
X6839Y701412D01*
X6766Y701468D01*
X6697Y701527D01*
X6630Y701588D01*
X6565Y701653D01*
X6504Y701720D01*
X6445Y701789D01*
X6389Y701861D01*
X6337Y701936D01*
X6287Y702012D01*
X6241Y702091D01*
X6199Y702171D01*
X6159Y702253D01*
X6124Y702337D01*
X6092Y702422D01*
X6063Y702509D01*
X6038Y702596D01*
X6017Y702685D01*
X6000Y702774D01*
X5986Y702864D01*
X5977Y702955D01*
X5971Y703046D01*
X5969Y703137D01*
D10*
X31750Y439100D02*
X38100Y432750D01*
X38100Y420050D01*
X31750Y413700D01*
X19050Y413700D02*
X12700Y420050D01*
X12700Y432750D01*
X19050Y439100D01*
X38100Y470850D02*
X38100Y483550D01*
X38100Y470850D02*
X31750Y464500D01*
X19050Y464500D02*
X12700Y470850D01*
X31750Y464500D02*
X38100Y458150D01*
X38100Y445450D01*
X31750Y439100D01*
X19050Y439100D02*
X12700Y445450D01*
X12700Y458150D01*
X19050Y464500D01*
X38100Y508950D02*
X31750Y515300D01*
X38100Y508950D02*
X38100Y496250D01*
X31750Y489900D01*
X19050Y489900D02*
X12700Y496250D01*
X12700Y508950D01*
X19050Y515300D01*
X31750Y489900D02*
X38100Y483550D01*
X19050Y489900D02*
X12700Y483550D01*
X12700Y470850D01*
X38100Y547050D02*
X38100Y559750D01*
X38100Y547050D02*
X31750Y540700D01*
X19050Y540700D02*
X12700Y547050D01*
X31750Y540700D02*
X38100Y534350D01*
X38100Y521650D01*
X31750Y515300D01*
X19050Y515300D02*
X12700Y521650D01*
X12700Y534350D01*
X19050Y540700D01*
X19050Y566100D02*
X31750Y566100D01*
X38100Y559750D01*
X19050Y566100D02*
X12700Y559750D01*
X12700Y547050D01*
X19050Y413700D02*
X31750Y413700D01*
D11*
X40005Y559836D02*
X43759Y559836D01*
X43824Y559834D01*
X43888Y559828D01*
X43952Y559818D01*
X44016Y559805D01*
X44078Y559787D01*
X44139Y559766D01*
X44199Y559742D01*
X44257Y559713D01*
X44314Y559681D01*
X44368Y559646D01*
X44420Y559608D01*
X44470Y559566D01*
X44517Y559522D01*
X44561Y559475D01*
X44603Y559425D01*
X44641Y559373D01*
X44676Y559319D01*
X44708Y559262D01*
X44737Y559204D01*
X44761Y559144D01*
X44782Y559083D01*
X44800Y559021D01*
X44813Y558957D01*
X44823Y558893D01*
X44829Y558829D01*
X44831Y558764D01*
X44831Y558227D01*
X40541Y562784D02*
X40005Y562784D01*
X40005Y565465D01*
X44831Y564124D01*
D12*
X45358Y776604D02*
X45358Y781796D01*
X45360Y781909D01*
X45366Y782022D01*
X45376Y782135D01*
X45390Y782248D01*
X45407Y782360D01*
X45429Y782471D01*
X45454Y782581D01*
X45484Y782691D01*
X45517Y782799D01*
X45554Y782906D01*
X45594Y783012D01*
X45639Y783116D01*
X45687Y783219D01*
X45738Y783320D01*
X45793Y783419D01*
X45851Y783516D01*
X45913Y783611D01*
X45978Y783704D01*
X46046Y783794D01*
X46117Y783882D01*
X46192Y783968D01*
X46269Y784051D01*
X46349Y784131D01*
X46432Y784208D01*
X46518Y784283D01*
X46606Y784354D01*
X46696Y784422D01*
X46789Y784487D01*
X46884Y784549D01*
X46981Y784607D01*
X47080Y784662D01*
X47181Y784713D01*
X47284Y784761D01*
X47388Y784806D01*
X47494Y784846D01*
X47601Y784883D01*
X47709Y784916D01*
X47819Y784946D01*
X47929Y784971D01*
X48040Y784993D01*
X48152Y785010D01*
X48265Y785024D01*
X48378Y785034D01*
X48491Y785040D01*
X48604Y785042D01*
X48717Y785040D01*
X48830Y785034D01*
X48943Y785024D01*
X49056Y785010D01*
X49168Y784993D01*
X49279Y784971D01*
X49389Y784946D01*
X49499Y784916D01*
X49607Y784883D01*
X49714Y784846D01*
X49820Y784806D01*
X49924Y784761D01*
X50027Y784713D01*
X50128Y784662D01*
X50227Y784607D01*
X50324Y784549D01*
X50419Y784487D01*
X50512Y784422D01*
X50602Y784354D01*
X50690Y784283D01*
X50776Y784208D01*
X50859Y784131D01*
X50939Y784051D01*
X51016Y783968D01*
X51091Y783882D01*
X51162Y783794D01*
X51230Y783704D01*
X51295Y783611D01*
X51357Y783516D01*
X51415Y783419D01*
X51470Y783320D01*
X51521Y783219D01*
X51569Y783116D01*
X51614Y783012D01*
X51654Y782906D01*
X51691Y782799D01*
X51724Y782691D01*
X51754Y782581D01*
X51779Y782471D01*
X51801Y782360D01*
X51818Y782248D01*
X51832Y782135D01*
X51842Y782022D01*
X51848Y781909D01*
X51850Y781796D01*
X51849Y781796D02*
X51849Y776604D01*
X51850Y776604D02*
X51848Y776491D01*
X51842Y776378D01*
X51832Y776265D01*
X51818Y776152D01*
X51801Y776040D01*
X51779Y775929D01*
X51754Y775819D01*
X51724Y775709D01*
X51691Y775601D01*
X51654Y775494D01*
X51614Y775388D01*
X51569Y775284D01*
X51521Y775181D01*
X51470Y775080D01*
X51415Y774981D01*
X51357Y774884D01*
X51295Y774789D01*
X51230Y774696D01*
X51162Y774606D01*
X51091Y774518D01*
X51016Y774432D01*
X50939Y774349D01*
X50859Y774269D01*
X50776Y774192D01*
X50690Y774117D01*
X50602Y774046D01*
X50512Y773978D01*
X50419Y773913D01*
X50324Y773851D01*
X50227Y773793D01*
X50128Y773738D01*
X50027Y773687D01*
X49924Y773639D01*
X49820Y773594D01*
X49714Y773554D01*
X49607Y773517D01*
X49499Y773484D01*
X49389Y773454D01*
X49279Y773429D01*
X49168Y773407D01*
X49056Y773390D01*
X48943Y773376D01*
X48830Y773366D01*
X48717Y773360D01*
X48604Y773358D01*
X48491Y773360D01*
X48378Y773366D01*
X48265Y773376D01*
X48152Y773390D01*
X48040Y773407D01*
X47929Y773429D01*
X47819Y773454D01*
X47709Y773484D01*
X47601Y773517D01*
X47494Y773554D01*
X47388Y773594D01*
X47284Y773639D01*
X47181Y773687D01*
X47080Y773738D01*
X46981Y773793D01*
X46884Y773851D01*
X46789Y773913D01*
X46696Y773978D01*
X46606Y774046D01*
X46518Y774117D01*
X46432Y774192D01*
X46349Y774269D01*
X46269Y774349D01*
X46192Y774432D01*
X46117Y774518D01*
X46046Y774606D01*
X45978Y774696D01*
X45913Y774789D01*
X45851Y774884D01*
X45793Y774981D01*
X45738Y775080D01*
X45687Y775181D01*
X45639Y775284D01*
X45594Y775388D01*
X45554Y775494D01*
X45517Y775601D01*
X45484Y775709D01*
X45454Y775819D01*
X45429Y775929D01*
X45407Y776040D01*
X45390Y776152D01*
X45376Y776265D01*
X45366Y776378D01*
X45360Y776491D01*
X45358Y776604D01*
X50551Y775954D02*
X53147Y773358D01*
X56502Y782446D02*
X59747Y785042D01*
X59747Y773358D01*
X56502Y773358D02*
X62993Y773358D01*
D10*
X157480Y201290D02*
X157480Y158110D01*
X96520Y158110D02*
X96520Y201290D01*
X116840Y149220D02*
X136980Y149220D01*
X137280Y210180D02*
X116840Y210180D01*
X109220Y179700D02*
X109225Y180136D01*
X109241Y180572D01*
X109268Y181008D01*
X109306Y181443D01*
X109354Y181876D01*
X109412Y182309D01*
X109482Y182740D01*
X109562Y183169D01*
X109652Y183596D01*
X109753Y184020D01*
X109864Y184442D01*
X109986Y184861D01*
X110117Y185277D01*
X110259Y185690D01*
X110411Y186099D01*
X110573Y186504D01*
X110745Y186905D01*
X110927Y187302D01*
X111118Y187694D01*
X111319Y188081D01*
X111530Y188464D01*
X111750Y188841D01*
X111979Y189212D01*
X112216Y189578D01*
X112463Y189938D01*
X112719Y190292D01*
X112983Y190639D01*
X113256Y190980D01*
X113537Y191313D01*
X113826Y191640D01*
X114123Y191960D01*
X114428Y192272D01*
X114740Y192577D01*
X115060Y192874D01*
X115387Y193163D01*
X115720Y193444D01*
X116061Y193717D01*
X116408Y193981D01*
X116762Y194237D01*
X117122Y194484D01*
X117488Y194721D01*
X117859Y194950D01*
X118236Y195170D01*
X118619Y195381D01*
X119006Y195582D01*
X119398Y195773D01*
X119795Y195955D01*
X120196Y196127D01*
X120601Y196289D01*
X121010Y196441D01*
X121423Y196583D01*
X121839Y196714D01*
X122258Y196836D01*
X122680Y196947D01*
X123104Y197048D01*
X123531Y197138D01*
X123960Y197218D01*
X124391Y197288D01*
X124824Y197346D01*
X125257Y197394D01*
X125692Y197432D01*
X126128Y197459D01*
X126564Y197475D01*
X127000Y197480D01*
X127436Y197475D01*
X127872Y197459D01*
X128308Y197432D01*
X128743Y197394D01*
X129176Y197346D01*
X129609Y197288D01*
X130040Y197218D01*
X130469Y197138D01*
X130896Y197048D01*
X131320Y196947D01*
X131742Y196836D01*
X132161Y196714D01*
X132577Y196583D01*
X132990Y196441D01*
X133399Y196289D01*
X133804Y196127D01*
X134205Y195955D01*
X134602Y195773D01*
X134994Y195582D01*
X135381Y195381D01*
X135764Y195170D01*
X136141Y194950D01*
X136512Y194721D01*
X136878Y194484D01*
X137238Y194237D01*
X137592Y193981D01*
X137939Y193717D01*
X138280Y193444D01*
X138613Y193163D01*
X138940Y192874D01*
X139260Y192577D01*
X139572Y192272D01*
X139877Y191960D01*
X140174Y191640D01*
X140463Y191313D01*
X140744Y190980D01*
X141017Y190639D01*
X141281Y190292D01*
X141537Y189938D01*
X141784Y189578D01*
X142021Y189212D01*
X142250Y188841D01*
X142470Y188464D01*
X142681Y188081D01*
X142882Y187694D01*
X143073Y187302D01*
X143255Y186905D01*
X143427Y186504D01*
X143589Y186099D01*
X143741Y185690D01*
X143883Y185277D01*
X144014Y184861D01*
X144136Y184442D01*
X144247Y184020D01*
X144348Y183596D01*
X144438Y183169D01*
X144518Y182740D01*
X144588Y182309D01*
X144646Y181876D01*
X144694Y181443D01*
X144732Y181008D01*
X144759Y180572D01*
X144775Y180136D01*
X144780Y179700D01*
X144775Y179264D01*
X144759Y178828D01*
X144732Y178392D01*
X144694Y177957D01*
X144646Y177524D01*
X144588Y177091D01*
X144518Y176660D01*
X144438Y176231D01*
X144348Y175804D01*
X144247Y175380D01*
X144136Y174958D01*
X144014Y174539D01*
X143883Y174123D01*
X143741Y173710D01*
X143589Y173301D01*
X143427Y172896D01*
X143255Y172495D01*
X143073Y172098D01*
X142882Y171706D01*
X142681Y171319D01*
X142470Y170936D01*
X142250Y170559D01*
X142021Y170188D01*
X141784Y169822D01*
X141537Y169462D01*
X141281Y169108D01*
X141017Y168761D01*
X140744Y168420D01*
X140463Y168087D01*
X140174Y167760D01*
X139877Y167440D01*
X139572Y167128D01*
X139260Y166823D01*
X138940Y166526D01*
X138613Y166237D01*
X138280Y165956D01*
X137939Y165683D01*
X137592Y165419D01*
X137238Y165163D01*
X136878Y164916D01*
X136512Y164679D01*
X136141Y164450D01*
X135764Y164230D01*
X135381Y164019D01*
X134994Y163818D01*
X134602Y163627D01*
X134205Y163445D01*
X133804Y163273D01*
X133399Y163111D01*
X132990Y162959D01*
X132577Y162817D01*
X132161Y162686D01*
X131742Y162564D01*
X131320Y162453D01*
X130896Y162352D01*
X130469Y162262D01*
X130040Y162182D01*
X129609Y162112D01*
X129176Y162054D01*
X128743Y162006D01*
X128308Y161968D01*
X127872Y161941D01*
X127436Y161925D01*
X127000Y161920D01*
X126564Y161925D01*
X126128Y161941D01*
X125692Y161968D01*
X125257Y162006D01*
X124824Y162054D01*
X124391Y162112D01*
X123960Y162182D01*
X123531Y162262D01*
X123104Y162352D01*
X122680Y162453D01*
X122258Y162564D01*
X121839Y162686D01*
X121423Y162817D01*
X121010Y162959D01*
X120601Y163111D01*
X120196Y163273D01*
X119795Y163445D01*
X119398Y163627D01*
X119006Y163818D01*
X118619Y164019D01*
X118236Y164230D01*
X117859Y164450D01*
X117488Y164679D01*
X117122Y164916D01*
X116762Y165163D01*
X116408Y165419D01*
X116061Y165683D01*
X115720Y165956D01*
X115387Y166237D01*
X115060Y166526D01*
X114740Y166823D01*
X114428Y167128D01*
X114123Y167440D01*
X113826Y167760D01*
X113537Y168087D01*
X113256Y168420D01*
X112983Y168761D01*
X112719Y169108D01*
X112463Y169462D01*
X112216Y169822D01*
X111979Y170188D01*
X111750Y170559D01*
X111530Y170936D01*
X111319Y171319D01*
X111118Y171706D01*
X110927Y172098D01*
X110745Y172495D01*
X110573Y172896D01*
X110411Y173301D01*
X110259Y173710D01*
X110117Y174123D01*
X109986Y174539D01*
X109864Y174958D01*
X109753Y175380D01*
X109652Y175804D01*
X109562Y176231D01*
X109482Y176660D01*
X109412Y177091D01*
X109354Y177524D01*
X109306Y177957D01*
X109268Y178392D01*
X109241Y178828D01*
X109225Y179264D01*
X109220Y179700D01*
D11*
X164409Y178388D02*
X164474Y178386D01*
X164538Y178380D01*
X164602Y178370D01*
X164666Y178357D01*
X164728Y178339D01*
X164789Y178318D01*
X164849Y178294D01*
X164907Y178265D01*
X164964Y178233D01*
X165018Y178198D01*
X165070Y178160D01*
X165120Y178118D01*
X165167Y178074D01*
X165211Y178027D01*
X165253Y177977D01*
X165291Y177925D01*
X165326Y177871D01*
X165358Y177814D01*
X165387Y177756D01*
X165411Y177696D01*
X165432Y177635D01*
X165450Y177573D01*
X165463Y177509D01*
X165473Y177445D01*
X165479Y177381D01*
X165481Y177316D01*
X165479Y177222D01*
X165473Y177128D01*
X165463Y177034D01*
X165450Y176941D01*
X165432Y176849D01*
X165411Y176757D01*
X165386Y176666D01*
X165357Y176576D01*
X165324Y176488D01*
X165288Y176401D01*
X165248Y176316D01*
X165205Y176232D01*
X165158Y176151D01*
X165108Y176071D01*
X165055Y175993D01*
X164998Y175918D01*
X164939Y175845D01*
X164876Y175775D01*
X164811Y175707D01*
X161727Y175842D02*
X161662Y175844D01*
X161598Y175850D01*
X161534Y175860D01*
X161470Y175873D01*
X161408Y175891D01*
X161347Y175912D01*
X161287Y175936D01*
X161229Y175965D01*
X161172Y175997D01*
X161118Y176032D01*
X161066Y176070D01*
X161016Y176112D01*
X160969Y176156D01*
X160925Y176203D01*
X160883Y176253D01*
X160845Y176305D01*
X160810Y176359D01*
X160778Y176416D01*
X160749Y176474D01*
X160725Y176534D01*
X160704Y176595D01*
X160686Y176657D01*
X160673Y176721D01*
X160663Y176785D01*
X160657Y176849D01*
X160655Y176914D01*
X160657Y177000D01*
X160662Y177086D01*
X160672Y177172D01*
X160685Y177257D01*
X160701Y177342D01*
X160721Y177426D01*
X160745Y177509D01*
X160772Y177591D01*
X160803Y177671D01*
X160837Y177751D01*
X160875Y177828D01*
X160916Y177904D01*
X160960Y177978D01*
X161007Y178051D01*
X161057Y178121D01*
X162665Y176378D02*
X162632Y176325D01*
X162595Y176274D01*
X162556Y176225D01*
X162514Y176178D01*
X162469Y176134D01*
X162422Y176093D01*
X162373Y176054D01*
X162321Y176018D01*
X162267Y175985D01*
X162212Y175956D01*
X162155Y175930D01*
X162096Y175907D01*
X162037Y175887D01*
X161976Y175871D01*
X161915Y175858D01*
X161852Y175849D01*
X161790Y175844D01*
X161727Y175842D01*
X163471Y177853D02*
X163504Y177906D01*
X163541Y177957D01*
X163580Y178006D01*
X163622Y178053D01*
X163667Y178097D01*
X163714Y178138D01*
X163763Y178177D01*
X163815Y178213D01*
X163869Y178246D01*
X163924Y178275D01*
X163981Y178301D01*
X164040Y178324D01*
X164099Y178344D01*
X164160Y178360D01*
X164221Y178373D01*
X164284Y178382D01*
X164346Y178387D01*
X164409Y178389D01*
X163470Y177853D02*
X162666Y176378D01*
X161727Y181011D02*
X160655Y182352D01*
X165481Y182352D01*
X165481Y183692D02*
X165481Y181011D01*
D13*
X49860Y711949D03*
D14*
X54900Y709449D02*
X54900Y737600D01*
X229900Y737600D01*
X229900Y709449D01*
X54900Y335751D02*
X54900Y307600D01*
X229900Y307600D01*
X229900Y335751D01*
D12*
X128296Y747704D02*
X128296Y756142D01*
X128296Y747704D02*
X128298Y747591D01*
X128304Y747478D01*
X128314Y747365D01*
X128328Y747252D01*
X128345Y747140D01*
X128367Y747029D01*
X128392Y746919D01*
X128422Y746809D01*
X128455Y746701D01*
X128492Y746594D01*
X128532Y746488D01*
X128577Y746384D01*
X128625Y746281D01*
X128676Y746180D01*
X128731Y746081D01*
X128789Y745984D01*
X128851Y745889D01*
X128916Y745796D01*
X128984Y745706D01*
X129055Y745618D01*
X129130Y745532D01*
X129207Y745449D01*
X129287Y745369D01*
X129370Y745292D01*
X129456Y745217D01*
X129544Y745146D01*
X129634Y745078D01*
X129727Y745013D01*
X129822Y744951D01*
X129919Y744893D01*
X130018Y744838D01*
X130119Y744787D01*
X130222Y744739D01*
X130326Y744694D01*
X130432Y744654D01*
X130539Y744617D01*
X130647Y744584D01*
X130757Y744554D01*
X130867Y744529D01*
X130978Y744507D01*
X131090Y744490D01*
X131203Y744476D01*
X131316Y744466D01*
X131429Y744460D01*
X131542Y744458D01*
X131655Y744460D01*
X131768Y744466D01*
X131881Y744476D01*
X131994Y744490D01*
X132106Y744507D01*
X132217Y744529D01*
X132327Y744554D01*
X132437Y744584D01*
X132545Y744617D01*
X132652Y744654D01*
X132758Y744694D01*
X132862Y744739D01*
X132965Y744787D01*
X133066Y744838D01*
X133165Y744893D01*
X133262Y744951D01*
X133357Y745013D01*
X133450Y745078D01*
X133540Y745146D01*
X133628Y745217D01*
X133714Y745292D01*
X133797Y745369D01*
X133877Y745449D01*
X133954Y745532D01*
X134029Y745618D01*
X134100Y745706D01*
X134168Y745796D01*
X134233Y745889D01*
X134295Y745984D01*
X134353Y746081D01*
X134408Y746180D01*
X134459Y746281D01*
X134507Y746384D01*
X134552Y746488D01*
X134592Y746594D01*
X134629Y746701D01*
X134662Y746809D01*
X134692Y746919D01*
X134717Y747029D01*
X134739Y747140D01*
X134756Y747252D01*
X134770Y747365D01*
X134780Y747478D01*
X134786Y747591D01*
X134788Y747704D01*
X134787Y747704D02*
X134787Y756142D01*
X142591Y756142D02*
X142591Y744458D01*
X142591Y750300D02*
X140968Y751274D01*
X140967Y751273D02*
X140894Y751320D01*
X140823Y751369D01*
X140753Y751422D01*
X140687Y751478D01*
X140623Y751537D01*
X140561Y751598D01*
X140503Y751662D01*
X140447Y751729D01*
X140395Y751798D01*
X140345Y751870D01*
X140299Y751944D01*
X140256Y752019D01*
X140217Y752097D01*
X140181Y752176D01*
X140149Y752257D01*
X140120Y752339D01*
X140095Y752422D01*
X140074Y752506D01*
X140057Y752591D01*
X140043Y752677D01*
X140034Y752763D01*
X140028Y752850D01*
X140026Y752937D01*
X140028Y753024D01*
X140034Y753111D01*
X140044Y753197D01*
X140057Y753283D01*
X140075Y753368D01*
X140096Y753452D01*
X140121Y753535D01*
X140150Y753618D01*
X140182Y753698D01*
X140218Y753777D01*
X140257Y753855D01*
X140300Y753930D01*
X140347Y754004D01*
X140396Y754075D01*
X140449Y754145D01*
X140504Y754211D01*
X140563Y754275D01*
X140624Y754337D01*
X140689Y754396D01*
X140755Y754451D01*
X140824Y754504D01*
X140896Y754554D01*
X140969Y754600D01*
X141045Y754643D01*
X141122Y754682D01*
X141201Y754718D01*
X141282Y754751D01*
X141364Y754779D01*
X141447Y754805D01*
X141531Y754826D01*
X141617Y754843D01*
X141617Y754844D02*
X141757Y754868D01*
X141899Y754888D01*
X142040Y754904D01*
X142182Y754915D01*
X142325Y754923D01*
X142467Y754927D01*
X142610Y754928D01*
X142753Y754924D01*
X142895Y754916D01*
X143037Y754904D01*
X143179Y754888D01*
X143320Y754869D01*
X143461Y754845D01*
X143601Y754818D01*
X143740Y754786D01*
X143878Y754751D01*
X144016Y754712D01*
X144152Y754669D01*
X144286Y754623D01*
X144420Y754572D01*
X144552Y754519D01*
X144682Y754461D01*
X144811Y754400D01*
X144938Y754335D01*
X145064Y754267D01*
X145187Y754195D01*
X142591Y750300D02*
X144213Y749326D01*
X144214Y749327D02*
X144287Y749280D01*
X144358Y749231D01*
X144428Y749178D01*
X144494Y749122D01*
X144558Y749063D01*
X144620Y749002D01*
X144678Y748938D01*
X144734Y748871D01*
X144786Y748802D01*
X144836Y748730D01*
X144882Y748656D01*
X144925Y748581D01*
X144964Y748503D01*
X145000Y748424D01*
X145032Y748343D01*
X145061Y748261D01*
X145086Y748178D01*
X145107Y748094D01*
X145124Y748009D01*
X145138Y747923D01*
X145147Y747837D01*
X145153Y747750D01*
X145155Y747663D01*
X145153Y747576D01*
X145147Y747489D01*
X145137Y747403D01*
X145124Y747317D01*
X145106Y747232D01*
X145085Y747148D01*
X145060Y747065D01*
X145031Y746982D01*
X144999Y746902D01*
X144963Y746823D01*
X144924Y746745D01*
X144881Y746670D01*
X144834Y746596D01*
X144785Y746525D01*
X144732Y746455D01*
X144677Y746389D01*
X144618Y746325D01*
X144557Y746263D01*
X144492Y746204D01*
X144426Y746149D01*
X144357Y746096D01*
X144285Y746046D01*
X144212Y746000D01*
X144136Y745957D01*
X144059Y745918D01*
X143980Y745882D01*
X143899Y745849D01*
X143817Y745821D01*
X143734Y745795D01*
X143650Y745774D01*
X143565Y745757D01*
X143564Y745756D02*
X143424Y745732D01*
X143282Y745712D01*
X143141Y745696D01*
X142999Y745685D01*
X142856Y745677D01*
X142714Y745673D01*
X142571Y745672D01*
X142428Y745676D01*
X142286Y745684D01*
X142144Y745696D01*
X142002Y745712D01*
X141861Y745731D01*
X141720Y745755D01*
X141580Y745782D01*
X141441Y745814D01*
X141303Y745849D01*
X141165Y745888D01*
X141029Y745931D01*
X140895Y745977D01*
X140761Y746028D01*
X140629Y746081D01*
X140499Y746139D01*
X140370Y746200D01*
X140243Y746265D01*
X140117Y746333D01*
X139994Y746405D01*
X153583Y756142D02*
X153690Y756140D01*
X153796Y756134D01*
X153902Y756124D01*
X154008Y756111D01*
X154114Y756093D01*
X154218Y756072D01*
X154322Y756047D01*
X154425Y756018D01*
X154526Y755986D01*
X154626Y755949D01*
X154725Y755909D01*
X154823Y755866D01*
X154919Y755819D01*
X155013Y755768D01*
X155105Y755714D01*
X155195Y755657D01*
X155283Y755597D01*
X155368Y755533D01*
X155451Y755466D01*
X155532Y755396D01*
X155610Y755324D01*
X155686Y755248D01*
X155758Y755170D01*
X155828Y755089D01*
X155895Y755006D01*
X155959Y754921D01*
X156019Y754833D01*
X156076Y754743D01*
X156130Y754651D01*
X156181Y754557D01*
X156228Y754461D01*
X156271Y754363D01*
X156311Y754264D01*
X156348Y754164D01*
X156380Y754063D01*
X156409Y753960D01*
X156434Y753856D01*
X156455Y753752D01*
X156473Y753646D01*
X156486Y753540D01*
X156496Y753434D01*
X156502Y753328D01*
X156504Y753221D01*
X153583Y756142D02*
X153462Y756140D01*
X153341Y756134D01*
X153221Y756124D01*
X153100Y756111D01*
X152981Y756093D01*
X152861Y756072D01*
X152743Y756047D01*
X152626Y756018D01*
X152509Y755985D01*
X152394Y755949D01*
X152280Y755908D01*
X152167Y755865D01*
X152055Y755817D01*
X151946Y755766D01*
X151838Y755711D01*
X151731Y755653D01*
X151627Y755592D01*
X151525Y755527D01*
X151425Y755459D01*
X151327Y755388D01*
X151231Y755314D01*
X151138Y755237D01*
X151048Y755156D01*
X150960Y755073D01*
X150875Y754987D01*
X150792Y754898D01*
X150713Y754807D01*
X150636Y754713D01*
X150563Y754617D01*
X150493Y754519D01*
X150426Y754418D01*
X150362Y754315D01*
X150302Y754210D01*
X150245Y754103D01*
X150191Y753995D01*
X150141Y753885D01*
X150095Y753773D01*
X150052Y753660D01*
X150013Y753545D01*
X155531Y750949D02*
X155610Y751026D01*
X155686Y751107D01*
X155759Y751190D01*
X155829Y751275D01*
X155896Y751363D01*
X155960Y751453D01*
X156020Y751545D01*
X156077Y751640D01*
X156131Y751736D01*
X156182Y751834D01*
X156229Y751934D01*
X156273Y752036D01*
X156313Y752139D01*
X156349Y752243D01*
X156381Y752349D01*
X156410Y752455D01*
X156435Y752563D01*
X156457Y752671D01*
X156474Y752781D01*
X156488Y752890D01*
X156497Y753000D01*
X156503Y753111D01*
X156505Y753221D01*
X155530Y750949D02*
X150013Y744458D01*
X156504Y744458D01*
D10*
X68000Y78100D02*
X68018Y79548D01*
X68071Y80995D01*
X68160Y82440D01*
X68284Y83883D01*
X68444Y85322D01*
X68639Y86757D01*
X68869Y88187D01*
X69134Y89610D01*
X69434Y91027D01*
X69768Y92436D01*
X70137Y93836D01*
X70541Y95227D01*
X70978Y96607D01*
X71449Y97977D01*
X71953Y99334D01*
X72491Y100678D01*
X73062Y102009D01*
X73665Y103326D01*
X74300Y104627D01*
X74967Y105912D01*
X75665Y107181D01*
X76394Y108432D01*
X77154Y109665D01*
X77943Y110879D01*
X78762Y112073D01*
X79611Y113246D01*
X80488Y114399D01*
X81392Y115529D01*
X82325Y116637D01*
X83284Y117722D01*
X84269Y118783D01*
X85281Y119819D01*
X86317Y120831D01*
X87378Y121816D01*
X88463Y122775D01*
X89571Y123708D01*
X90701Y124612D01*
X91854Y125489D01*
X93027Y126338D01*
X94221Y127157D01*
X95435Y127946D01*
X96668Y128706D01*
X97919Y129435D01*
X99188Y130133D01*
X100473Y130800D01*
X101774Y131435D01*
X103091Y132038D01*
X104422Y132609D01*
X105766Y133147D01*
X107123Y133651D01*
X108493Y134122D01*
X109873Y134559D01*
X111264Y134963D01*
X112664Y135332D01*
X114073Y135666D01*
X115490Y135966D01*
X116913Y136231D01*
X118343Y136461D01*
X119778Y136656D01*
X121217Y136816D01*
X122660Y136940D01*
X124105Y137029D01*
X125552Y137082D01*
X127000Y137100D01*
X128448Y137082D01*
X129895Y137029D01*
X131340Y136940D01*
X132783Y136816D01*
X134222Y136656D01*
X135657Y136461D01*
X137087Y136231D01*
X138510Y135966D01*
X139927Y135666D01*
X141336Y135332D01*
X142736Y134963D01*
X144127Y134559D01*
X145507Y134122D01*
X146877Y133651D01*
X148234Y133147D01*
X149578Y132609D01*
X150909Y132038D01*
X152226Y131435D01*
X153527Y130800D01*
X154812Y130133D01*
X156081Y129435D01*
X157332Y128706D01*
X158565Y127946D01*
X159779Y127157D01*
X160973Y126338D01*
X162146Y125489D01*
X163299Y124612D01*
X164429Y123708D01*
X165537Y122775D01*
X166622Y121816D01*
X167683Y120831D01*
X168719Y119819D01*
X169731Y118783D01*
X170716Y117722D01*
X171675Y116637D01*
X172608Y115529D01*
X173512Y114399D01*
X174389Y113246D01*
X175238Y112073D01*
X176057Y110879D01*
X176846Y109665D01*
X177606Y108432D01*
X178335Y107181D01*
X179033Y105912D01*
X179700Y104627D01*
X180335Y103326D01*
X180938Y102009D01*
X181509Y100678D01*
X182047Y99334D01*
X182551Y97977D01*
X183022Y96607D01*
X183459Y95227D01*
X183863Y93836D01*
X184232Y92436D01*
X184566Y91027D01*
X184866Y89610D01*
X185131Y88187D01*
X185361Y86757D01*
X185556Y85322D01*
X185716Y83883D01*
X185840Y82440D01*
X185929Y80995D01*
X185982Y79548D01*
X186000Y78100D01*
X185982Y76652D01*
X185929Y75205D01*
X185840Y73760D01*
X185716Y72317D01*
X185556Y70878D01*
X185361Y69443D01*
X185131Y68013D01*
X184866Y66590D01*
X184566Y65173D01*
X184232Y63764D01*
X183863Y62364D01*
X183459Y60973D01*
X183022Y59593D01*
X182551Y58223D01*
X182047Y56866D01*
X181509Y55522D01*
X180938Y54191D01*
X180335Y52874D01*
X179700Y51573D01*
X179033Y50288D01*
X178335Y49019D01*
X177606Y47768D01*
X176846Y46535D01*
X176057Y45321D01*
X175238Y44127D01*
X174389Y42954D01*
X173512Y41801D01*
X172608Y40671D01*
X171675Y39563D01*
X170716Y38478D01*
X169731Y37417D01*
X168719Y36381D01*
X167683Y35369D01*
X166622Y34384D01*
X165537Y33425D01*
X164429Y32492D01*
X163299Y31588D01*
X162146Y30711D01*
X160973Y29862D01*
X159779Y29043D01*
X158565Y28254D01*
X157332Y27494D01*
X156081Y26765D01*
X154812Y26067D01*
X153527Y25400D01*
X152226Y24765D01*
X150909Y24162D01*
X149578Y23591D01*
X148234Y23053D01*
X146877Y22549D01*
X145507Y22078D01*
X144127Y21641D01*
X142736Y21237D01*
X141336Y20868D01*
X139927Y20534D01*
X138510Y20234D01*
X137087Y19969D01*
X135657Y19739D01*
X134222Y19544D01*
X132783Y19384D01*
X131340Y19260D01*
X129895Y19171D01*
X128448Y19118D01*
X127000Y19100D01*
X125552Y19118D01*
X124105Y19171D01*
X122660Y19260D01*
X121217Y19384D01*
X119778Y19544D01*
X118343Y19739D01*
X116913Y19969D01*
X115490Y20234D01*
X114073Y20534D01*
X112664Y20868D01*
X111264Y21237D01*
X109873Y21641D01*
X108493Y22078D01*
X107123Y22549D01*
X105766Y23053D01*
X104422Y23591D01*
X103091Y24162D01*
X101774Y24765D01*
X100473Y25400D01*
X99188Y26067D01*
X97919Y26765D01*
X96668Y27494D01*
X95435Y28254D01*
X94221Y29043D01*
X93027Y29862D01*
X91854Y30711D01*
X90701Y31588D01*
X89571Y32492D01*
X88463Y33425D01*
X87378Y34384D01*
X86317Y35369D01*
X85281Y36381D01*
X84269Y37417D01*
X83284Y38478D01*
X82325Y39563D01*
X81392Y40671D01*
X80488Y41801D01*
X79611Y42954D01*
X78762Y44127D01*
X77943Y45321D01*
X77154Y46535D01*
X76394Y47768D01*
X75665Y49019D01*
X74967Y50288D01*
X74300Y51573D01*
X73665Y52874D01*
X73062Y54191D01*
X72491Y55522D01*
X71953Y56866D01*
X71449Y58223D01*
X70978Y59593D01*
X70541Y60973D01*
X70137Y62364D01*
X69768Y63764D01*
X69434Y65173D01*
X69134Y66590D01*
X68869Y68013D01*
X68639Y69443D01*
X68444Y70878D01*
X68284Y72317D01*
X68160Y73760D01*
X68071Y75205D01*
X68018Y76652D01*
X68000Y78100D01*
D11*
X120823Y16505D02*
X120823Y11679D01*
X122968Y11679D01*
X126801Y11679D02*
X126866Y11681D01*
X126930Y11687D01*
X126994Y11697D01*
X127058Y11710D01*
X127120Y11728D01*
X127181Y11749D01*
X127241Y11773D01*
X127299Y11802D01*
X127356Y11834D01*
X127410Y11869D01*
X127462Y11907D01*
X127512Y11949D01*
X127559Y11993D01*
X127603Y12040D01*
X127645Y12090D01*
X127683Y12142D01*
X127718Y12196D01*
X127750Y12253D01*
X127779Y12311D01*
X127803Y12371D01*
X127824Y12432D01*
X127842Y12494D01*
X127855Y12558D01*
X127865Y12622D01*
X127871Y12686D01*
X127873Y12751D01*
X126801Y11679D02*
X126707Y11681D01*
X126613Y11687D01*
X126519Y11697D01*
X126426Y11710D01*
X126334Y11728D01*
X126242Y11749D01*
X126151Y11774D01*
X126061Y11803D01*
X125973Y11836D01*
X125886Y11872D01*
X125801Y11912D01*
X125717Y11955D01*
X125636Y12002D01*
X125556Y12052D01*
X125478Y12105D01*
X125403Y12162D01*
X125330Y12221D01*
X125260Y12284D01*
X125192Y12349D01*
X125327Y15433D02*
X125329Y15498D01*
X125335Y15562D01*
X125345Y15626D01*
X125358Y15690D01*
X125376Y15752D01*
X125397Y15813D01*
X125421Y15873D01*
X125450Y15931D01*
X125482Y15988D01*
X125517Y16042D01*
X125555Y16094D01*
X125597Y16144D01*
X125641Y16191D01*
X125688Y16235D01*
X125738Y16277D01*
X125790Y16315D01*
X125844Y16350D01*
X125901Y16382D01*
X125959Y16411D01*
X126019Y16435D01*
X126080Y16456D01*
X126142Y16474D01*
X126206Y16487D01*
X126270Y16497D01*
X126334Y16503D01*
X126399Y16505D01*
X126485Y16503D01*
X126571Y16498D01*
X126657Y16488D01*
X126742Y16475D01*
X126827Y16459D01*
X126911Y16439D01*
X126994Y16415D01*
X127076Y16388D01*
X127156Y16357D01*
X127236Y16323D01*
X127313Y16285D01*
X127389Y16244D01*
X127463Y16200D01*
X127535Y16153D01*
X127606Y16103D01*
X125863Y14495D02*
X125810Y14528D01*
X125759Y14565D01*
X125710Y14604D01*
X125663Y14646D01*
X125619Y14691D01*
X125578Y14738D01*
X125539Y14787D01*
X125503Y14839D01*
X125470Y14893D01*
X125441Y14948D01*
X125415Y15005D01*
X125392Y15064D01*
X125372Y15123D01*
X125356Y15184D01*
X125343Y15245D01*
X125334Y15308D01*
X125329Y15370D01*
X125327Y15433D01*
X127337Y13689D02*
X127390Y13656D01*
X127441Y13619D01*
X127490Y13580D01*
X127537Y13538D01*
X127581Y13493D01*
X127622Y13446D01*
X127661Y13397D01*
X127697Y13345D01*
X127730Y13291D01*
X127759Y13236D01*
X127785Y13179D01*
X127808Y13120D01*
X127828Y13061D01*
X127844Y13000D01*
X127857Y12939D01*
X127866Y12876D01*
X127871Y12814D01*
X127873Y12751D01*
X127337Y13690D02*
X125863Y14494D01*
X130496Y15433D02*
X131836Y16505D01*
X131836Y11679D01*
X130496Y11679D02*
X133177Y11679D01*
M02*
