G04 EAGLE Gerber RS-274X export*
G75*
%MOMM*%
%FSLAX34Y34*%
%LPD*%
%INSoldermask Bottom*%
%IPPOS*%
%AMOC8*
5,1,8,0,0,1.08239X$1,22.5*%
G01*
%ADD10C,1.203200*%
%ADD11R,2.018500X1.367800*%
%ADD12R,2.001300X1.928500*%
%ADD13R,1.928500X2.001300*%
%ADD14C,2.082800*%
%ADD15R,1.603200X1.203200*%
%ADD16R,1.203200X1.603200*%
%ADD17R,2.006200X1.803200*%
%ADD18R,1.803200X2.006200*%
%ADD19C,0.959600*%

G36*
X161247Y68109D02*
X161247Y68109D01*
X161290Y68121D01*
X161356Y68130D01*
X162973Y68584D01*
X163014Y68603D01*
X163042Y68612D01*
X163052Y68614D01*
X163056Y68616D01*
X163077Y68623D01*
X164591Y69351D01*
X164627Y69377D01*
X164686Y69407D01*
X166051Y70388D01*
X166082Y70420D01*
X166135Y70460D01*
X167309Y71662D01*
X167334Y71699D01*
X167379Y71747D01*
X168326Y73135D01*
X168344Y73176D01*
X168380Y73232D01*
X169072Y74763D01*
X169083Y74806D01*
X169109Y74867D01*
X169524Y76496D01*
X169527Y76540D01*
X169542Y76605D01*
X169668Y78280D01*
X169664Y78327D01*
X169666Y78399D01*
X169461Y80235D01*
X169447Y80281D01*
X169435Y80356D01*
X168875Y82117D01*
X168852Y82159D01*
X168826Y82231D01*
X167933Y83848D01*
X167903Y83886D01*
X167863Y83951D01*
X166672Y85363D01*
X166635Y85394D01*
X166583Y85450D01*
X165139Y86603D01*
X165097Y86626D01*
X165035Y86670D01*
X163394Y87519D01*
X163348Y87534D01*
X163279Y87565D01*
X161504Y88078D01*
X161456Y88083D01*
X161381Y88101D01*
X159541Y88257D01*
X159497Y88253D01*
X159432Y88257D01*
X157601Y88097D01*
X157555Y88084D01*
X157479Y88074D01*
X155715Y87560D01*
X155671Y87539D01*
X155599Y87514D01*
X153969Y86665D01*
X153931Y86636D01*
X153865Y86597D01*
X152432Y85447D01*
X152400Y85411D01*
X152343Y85360D01*
X151162Y83952D01*
X151138Y83911D01*
X151092Y83850D01*
X150882Y83468D01*
X150208Y82238D01*
X150193Y82193D01*
X150159Y82124D01*
X149607Y80371D01*
X149601Y80324D01*
X149581Y80250D01*
X149382Y78423D01*
X149385Y78377D01*
X149379Y78308D01*
X149502Y76632D01*
X149513Y76589D01*
X149519Y76523D01*
X149931Y74893D01*
X149949Y74853D01*
X149967Y74789D01*
X150655Y73256D01*
X150680Y73219D01*
X150709Y73159D01*
X151653Y71769D01*
X151684Y71737D01*
X151722Y71683D01*
X152893Y70477D01*
X152930Y70451D01*
X152977Y70405D01*
X154339Y69421D01*
X154380Y69402D01*
X154434Y69365D01*
X155947Y68632D01*
X155990Y68620D01*
X156001Y68615D01*
X156028Y68602D01*
X156033Y68601D01*
X156050Y68593D01*
X157667Y68135D01*
X157712Y68130D01*
X157776Y68114D01*
X159448Y67943D01*
X159496Y67947D01*
X159575Y67943D01*
X161247Y68109D01*
G37*
G36*
X96223Y68109D02*
X96223Y68109D01*
X96266Y68121D01*
X96332Y68130D01*
X97949Y68584D01*
X97990Y68603D01*
X98018Y68612D01*
X98028Y68614D01*
X98032Y68616D01*
X98053Y68623D01*
X99567Y69351D01*
X99603Y69377D01*
X99662Y69407D01*
X101027Y70388D01*
X101058Y70420D01*
X101111Y70460D01*
X102285Y71662D01*
X102310Y71699D01*
X102355Y71747D01*
X103302Y73135D01*
X103320Y73176D01*
X103356Y73232D01*
X104048Y74763D01*
X104059Y74806D01*
X104085Y74867D01*
X104500Y76496D01*
X104503Y76540D01*
X104518Y76605D01*
X104644Y78280D01*
X104640Y78327D01*
X104642Y78399D01*
X104437Y80235D01*
X104423Y80281D01*
X104411Y80356D01*
X103851Y82117D01*
X103828Y82159D01*
X103802Y82231D01*
X102909Y83848D01*
X102879Y83886D01*
X102839Y83951D01*
X101648Y85363D01*
X101611Y85394D01*
X101559Y85450D01*
X100115Y86603D01*
X100073Y86626D01*
X100011Y86670D01*
X98370Y87519D01*
X98324Y87534D01*
X98255Y87565D01*
X96480Y88078D01*
X96432Y88083D01*
X96357Y88101D01*
X94517Y88257D01*
X94473Y88253D01*
X94408Y88257D01*
X92577Y88097D01*
X92531Y88084D01*
X92455Y88074D01*
X90691Y87560D01*
X90647Y87539D01*
X90575Y87514D01*
X88945Y86665D01*
X88907Y86636D01*
X88841Y86597D01*
X87408Y85447D01*
X87376Y85411D01*
X87319Y85360D01*
X86138Y83952D01*
X86114Y83911D01*
X86068Y83850D01*
X85858Y83468D01*
X85184Y82238D01*
X85169Y82193D01*
X85135Y82124D01*
X84583Y80371D01*
X84577Y80324D01*
X84557Y80250D01*
X84358Y78423D01*
X84361Y78377D01*
X84355Y78308D01*
X84478Y76632D01*
X84489Y76589D01*
X84495Y76523D01*
X84907Y74893D01*
X84925Y74853D01*
X84943Y74789D01*
X85631Y73256D01*
X85656Y73219D01*
X85685Y73159D01*
X86629Y71769D01*
X86660Y71737D01*
X86698Y71683D01*
X87869Y70477D01*
X87906Y70451D01*
X87953Y70405D01*
X89315Y69421D01*
X89356Y69402D01*
X89410Y69365D01*
X90923Y68632D01*
X90966Y68620D01*
X90977Y68615D01*
X91004Y68602D01*
X91009Y68601D01*
X91026Y68593D01*
X92643Y68135D01*
X92688Y68130D01*
X92752Y68114D01*
X94424Y67943D01*
X94472Y67947D01*
X94551Y67943D01*
X96223Y68109D01*
G37*
D10*
X30000Y770000D03*
X220000Y770000D03*
X125000Y20000D03*
X5000Y35000D03*
X20000Y35000D03*
X35000Y35000D03*
X50000Y35000D03*
X65000Y35000D03*
X80000Y30000D03*
X90000Y20000D03*
X100000Y10000D03*
X245000Y35000D03*
X230000Y35000D03*
X215000Y35000D03*
X200000Y35000D03*
X185000Y35000D03*
X150000Y10000D03*
X160000Y20000D03*
X170000Y30000D03*
D11*
X114300Y677054D03*
X114300Y647546D03*
X176200Y124746D03*
X176200Y154254D03*
D12*
X103248Y243200D03*
X49152Y243200D03*
D13*
X139700Y254252D03*
X139700Y308348D03*
D14*
X218600Y268600D03*
X193200Y268600D03*
X218600Y90800D03*
X218600Y116200D03*
X218600Y141600D03*
X218600Y167000D03*
X218600Y192400D03*
X218600Y217800D03*
X25400Y65400D03*
X50800Y65400D03*
X89700Y763900D03*
X115100Y763900D03*
X140500Y763900D03*
X165900Y763900D03*
X191300Y763900D03*
X25400Y606900D03*
X25400Y632300D03*
X25400Y657700D03*
X25400Y708500D03*
X25400Y733900D03*
X25400Y553400D03*
X25400Y528000D03*
X25400Y502600D03*
X25400Y477200D03*
X25400Y451800D03*
X25400Y426400D03*
D15*
X52500Y154300D03*
X74500Y144800D03*
X74500Y163800D03*
D16*
X25400Y165300D03*
X15900Y143300D03*
X34900Y143300D03*
X218600Y444700D03*
X209100Y422700D03*
X228100Y422700D03*
D17*
X177800Y625720D03*
X177800Y597280D03*
D18*
X65020Y116200D03*
X36580Y116200D03*
D14*
X149606Y212212D03*
X149606Y147188D03*
X104394Y212212D03*
X104394Y147188D03*
D18*
X189220Y185000D03*
X160780Y185000D03*
D19*
X114300Y700400D03*
X139700Y624200D03*
X88900Y319400D03*
X139700Y179700D03*
X127000Y78100D03*
X38100Y268600D03*
X87571Y498000D03*
X140000Y515000D03*
X101600Y624200D03*
X203200Y471800D03*
X203200Y573400D03*
X203200Y598800D03*
X76200Y281300D03*
M02*
