M48
;GenerationSoftware,Autodesk,EAGLE,9.6.2*%
;CreationDate,2020-07-17T11:31:37Z*%
FMAT,2
ICI,OFF
METRIC,TZ,000.000
T5C0.350
T4C0.900
T3C1.000
T2C1.016
%
G90
M71
T2
X2540Y60690
X21860Y26860
X19320Y26860
X21860Y9080
X21860Y11620
X21860Y14160
X21860Y16700
X21860Y19240
X21860Y21780
X2540Y6540
X5080Y6540
X8970Y76390
X11510Y76390
X14050Y76390
X16590Y76390
X19130Y76390
X2540Y63230
X2540Y65770
X2540Y73390
X2540Y55340
X2540Y52800
X2540Y50260
X2540Y47720
X2540Y45180
X2540Y42640
X14961Y21221
X14961Y14719
X10439Y21221
X10439Y14719
X2540Y70850
T3
X23000Y3500
X16000Y2000
X3000Y77000
X22000Y77000
X12500Y2000
X500Y3500
X2000Y3500
X3500Y3500
X5000Y3500
X6500Y3500
X8000Y3000
X9000Y2000
X10000Y1000
X24500Y3500
X21500Y3500
X20000Y3500
X18500Y3500
X15000Y1000
X17000Y3000
T4
X9450Y7810
X15950Y7810
T5
X7620Y28130
X20320Y59880
X20320Y57340
X20320Y47180
X10160Y62420
X14000Y51500
X8757Y49800
X3810Y26860
X12700Y7810
X13970Y17970
X8890Y31940
X13970Y62420
X11430Y70040
M30